0
SECTION
2
HEADER
9
$INSUNITS
70
4
0
ENDSEC
0
SECTION
2
ENTITIES
0
LINE
8
CUT
10
0.0000
20
0.0000
11
548.0000
21
0.0000
0
LINE
8
CUT
10
548.0000
20
0.0000
11
548.0000
21
222.0000
0
LINE
8
CUT
10
548.0000
20
222.0000
11
0.0000
21
222.0000
0
LINE
8
CUT
10
0.0000
20
222.0000
11
0.0000
21
0.0000
0
LINE
8
CUT
10
42.3333
20
8.0000
11
62.3333
21
8.0000
0
LINE
8
CUT
10
62.3333
20
8.0000
11
62.3333
21
11.0000
0
LINE
8
CUT
10
62.3333
20
11.0000
11
42.3333
21
11.0000
0
LINE
8
CUT
10
42.3333
20
11.0000
11
42.3333
21
8.0000
0
LINE
8
CUT
10
42.3333
20
211.0000
11
62.3333
21
211.0000
0
LINE
8
CUT
10
62.3333
20
211.0000
11
62.3333
21
214.0000
0
LINE
8
CUT
10
62.3333
20
214.0000
11
42.3333
21
214.0000
0
LINE
8
CUT
10
42.3333
20
214.0000
11
42.3333
21
211.0000
0
LINE
8
CUT
10
131.0000
20
8.0000
11
151.0000
21
8.0000
0
LINE
8
CUT
10
151.0000
20
8.0000
11
151.0000
21
11.0000
0
LINE
8
CUT
10
151.0000
20
11.0000
11
131.0000
21
11.0000
0
LINE
8
CUT
10
131.0000
20
11.0000
11
131.0000
21
8.0000
0
LINE
8
CUT
10
131.0000
20
211.0000
11
151.0000
21
211.0000
0
LINE
8
CUT
10
151.0000
20
211.0000
11
151.0000
21
214.0000
0
LINE
8
CUT
10
151.0000
20
214.0000
11
131.0000
21
214.0000
0
LINE
8
CUT
10
131.0000
20
214.0000
11
131.0000
21
211.0000
0
LINE
8
CUT
10
219.6667
20
8.0000
11
239.6667
21
8.0000
0
LINE
8
CUT
10
239.6667
20
8.0000
11
239.6667
21
11.0000
0
LINE
8
CUT
10
239.6667
20
11.0000
11
219.6667
21
11.0000
0
LINE
8
CUT
10
219.6667
20
11.0000
11
219.6667
21
8.0000
0
LINE
8
CUT
10
219.6667
20
211.0000
11
239.6667
21
211.0000
0
LINE
8
CUT
10
239.6667
20
211.0000
11
239.6667
21
214.0000
0
LINE
8
CUT
10
239.6667
20
214.0000
11
219.6667
21
214.0000
0
LINE
8
CUT
10
219.6667
20
214.0000
11
219.6667
21
211.0000
0
LINE
8
CUT
10
308.3333
20
8.0000
11
328.3333
21
8.0000
0
LINE
8
CUT
10
328.3333
20
8.0000
11
328.3333
21
11.0000
0
LINE
8
CUT
10
328.3333
20
11.0000
11
308.3333
21
11.0000
0
LINE
8
CUT
10
308.3333
20
11.0000
11
308.3333
21
8.0000
0
LINE
8
CUT
10
308.3333
20
211.0000
11
328.3333
21
211.0000
0
LINE
8
CUT
10
328.3333
20
211.0000
11
328.3333
21
214.0000
0
LINE
8
CUT
10
328.3333
20
214.0000
11
308.3333
21
214.0000
0
LINE
8
CUT
10
308.3333
20
214.0000
11
308.3333
21
211.0000
0
LINE
8
CUT
10
397.0000
20
8.0000
11
417.0000
21
8.0000
0
LINE
8
CUT
10
417.0000
20
8.0000
11
417.0000
21
11.0000
0
LINE
8
CUT
10
417.0000
20
11.0000
11
397.0000
21
11.0000
0
LINE
8
CUT
10
397.0000
20
11.0000
11
397.0000
21
8.0000
0
LINE
8
CUT
10
397.0000
20
211.0000
11
417.0000
21
211.0000
0
LINE
8
CUT
10
417.0000
20
211.0000
11
417.0000
21
214.0000
0
LINE
8
CUT
10
417.0000
20
214.0000
11
397.0000
21
214.0000
0
LINE
8
CUT
10
397.0000
20
214.0000
11
397.0000
21
211.0000
0
LINE
8
CUT
10
485.6667
20
8.0000
11
505.6667
21
8.0000
0
LINE
8
CUT
10
505.6667
20
8.0000
11
505.6667
21
11.0000
0
LINE
8
CUT
10
505.6667
20
11.0000
11
485.6667
21
11.0000
0
LINE
8
CUT
10
485.6667
20
11.0000
11
485.6667
21
8.0000
0
LINE
8
CUT
10
485.6667
20
211.0000
11
505.6667
21
211.0000
0
LINE
8
CUT
10
505.6667
20
211.0000
11
505.6667
21
214.0000
0
LINE
8
CUT
10
505.6667
20
214.0000
11
485.6667
21
214.0000
0
LINE
8
CUT
10
485.6667
20
214.0000
11
485.6667
21
211.0000
0
LINE
8
CUT
10
8.0000
20
51.0000
11
11.0000
21
51.0000
0
LINE
8
CUT
10
11.0000
20
51.0000
11
11.0000
21
71.0000
0
LINE
8
CUT
10
11.0000
20
71.0000
11
8.0000
21
71.0000
0
LINE
8
CUT
10
8.0000
20
71.0000
11
8.0000
21
51.0000
0
LINE
8
CUT
10
8.0000
20
151.0000
11
11.0000
21
151.0000
0
LINE
8
CUT
10
11.0000
20
151.0000
11
11.0000
21
171.0000
0
LINE
8
CUT
10
11.0000
20
171.0000
11
8.0000
21
171.0000
0
LINE
8
CUT
10
8.0000
20
171.0000
11
8.0000
21
151.0000
0
LINE
8
CUT
10
121.0000
20
51.0000
11
124.0000
21
51.0000
0
LINE
8
CUT
10
124.0000
20
51.0000
11
124.0000
21
71.0000
0
LINE
8
CUT
10
124.0000
20
71.0000
11
121.0000
21
71.0000
0
LINE
8
CUT
10
121.0000
20
71.0000
11
121.0000
21
51.0000
0
LINE
8
CUT
10
121.0000
20
151.0000
11
124.0000
21
151.0000
0
LINE
8
CUT
10
124.0000
20
151.0000
11
124.0000
21
171.0000
0
LINE
8
CUT
10
124.0000
20
171.0000
11
121.0000
21
171.0000
0
LINE
8
CUT
10
121.0000
20
171.0000
11
121.0000
21
151.0000
0
LINE
8
CUT
10
444.0000
20
51.0000
11
447.0000
21
51.0000
0
LINE
8
CUT
10
447.0000
20
51.0000
11
447.0000
21
71.0000
0
LINE
8
CUT
10
447.0000
20
71.0000
11
444.0000
21
71.0000
0
LINE
8
CUT
10
444.0000
20
71.0000
11
444.0000
21
51.0000
0
LINE
8
CUT
10
444.0000
20
151.0000
11
447.0000
21
151.0000
0
LINE
8
CUT
10
447.0000
20
151.0000
11
447.0000
21
171.0000
0
LINE
8
CUT
10
447.0000
20
171.0000
11
444.0000
21
171.0000
0
LINE
8
CUT
10
444.0000
20
171.0000
11
444.0000
21
151.0000
0
LINE
8
CUT
10
537.0000
20
51.0000
11
540.0000
21
51.0000
0
LINE
8
CUT
10
540.0000
20
51.0000
11
540.0000
21
71.0000
0
LINE
8
CUT
10
540.0000
20
71.0000
11
537.0000
21
71.0000
0
LINE
8
CUT
10
537.0000
20
71.0000
11
537.0000
21
51.0000
0
LINE
8
CUT
10
537.0000
20
151.0000
11
540.0000
21
151.0000
0
LINE
8
CUT
10
540.0000
20
151.0000
11
540.0000
21
171.0000
0
LINE
8
CUT
10
540.0000
20
171.0000
11
537.0000
21
171.0000
0
LINE
8
CUT
10
537.0000
20
171.0000
11
537.0000
21
151.0000
0
CIRCLE
8
CUT
10
492.0000
20
111.0000
40
3.0000
0
ENDSEC
0
EOF
