0
SECTION
2
HEADER
9
$INSUNITS
70
4
0
ENDSEC
0
SECTION
2
ENTITIES
0
LINE
8
CUT
10
0.0000
20
0.0000
11
186.0000
21
0.0000
0
LINE
8
CUT
10
186.0000
20
0.0000
11
186.0000
21
215.0000
0
LINE
8
CUT
10
186.0000
20
215.0000
11
108.0000
21
215.0000
0
LINE
8
CUT
10
108.0000
20
215.0000
11
108.0000
21
285.0000
0
LINE
8
CUT
10
108.0000
20
285.0000
11
78.0000
21
285.0000
0
LINE
8
CUT
10
78.0000
20
285.0000
11
78.0000
21
215.0000
0
LINE
8
CUT
10
78.0000
20
215.0000
11
0.0000
21
215.0000
0
LINE
8
CUT
10
0.0000
20
215.0000
11
0.0000
21
0.0000
0
LINE
8
CUT
10
8.0000
20
20.0000
11
58.0000
21
20.0000
0
LINE
8
CUT
10
58.0000
20
20.0000
11
58.0000
21
28.0000
0
LINE
8
CUT
10
58.0000
20
28.0000
11
8.0000
21
28.0000
0
LINE
8
CUT
10
8.0000
20
28.0000
11
8.0000
21
20.0000
0
LINE
8
CUT
10
68.0000
20
20.0000
11
118.0000
21
20.0000
0
LINE
8
CUT
10
118.0000
20
20.0000
11
118.0000
21
28.0000
0
LINE
8
CUT
10
118.0000
20
28.0000
11
68.0000
21
28.0000
0
LINE
8
CUT
10
68.0000
20
28.0000
11
68.0000
21
20.0000
0
LINE
8
CUT
10
128.0000
20
20.0000
11
178.0000
21
20.0000
0
LINE
8
CUT
10
178.0000
20
20.0000
11
178.0000
21
28.0000
0
LINE
8
CUT
10
178.0000
20
28.0000
11
128.0000
21
28.0000
0
LINE
8
CUT
10
128.0000
20
28.0000
11
128.0000
21
20.0000
0
LINE
8
CUT
10
8.0000
20
40.0000
11
58.0000
21
40.0000
0
LINE
8
CUT
10
58.0000
20
40.0000
11
58.0000
21
48.0000
0
LINE
8
CUT
10
58.0000
20
48.0000
11
8.0000
21
48.0000
0
LINE
8
CUT
10
8.0000
20
48.0000
11
8.0000
21
40.0000
0
LINE
8
CUT
10
68.0000
20
40.0000
11
118.0000
21
40.0000
0
LINE
8
CUT
10
118.0000
20
40.0000
11
118.0000
21
48.0000
0
LINE
8
CUT
10
118.0000
20
48.0000
11
68.0000
21
48.0000
0
LINE
8
CUT
10
68.0000
20
48.0000
11
68.0000
21
40.0000
0
LINE
8
CUT
10
128.0000
20
40.0000
11
178.0000
21
40.0000
0
LINE
8
CUT
10
178.0000
20
40.0000
11
178.0000
21
48.0000
0
LINE
8
CUT
10
178.0000
20
48.0000
11
128.0000
21
48.0000
0
LINE
8
CUT
10
128.0000
20
48.0000
11
128.0000
21
40.0000
0
LINE
8
CUT
10
8.0000
20
60.0000
11
58.0000
21
60.0000
0
LINE
8
CUT
10
58.0000
20
60.0000
11
58.0000
21
68.0000
0
LINE
8
CUT
10
58.0000
20
68.0000
11
8.0000
21
68.0000
0
LINE
8
CUT
10
8.0000
20
68.0000
11
8.0000
21
60.0000
0
LINE
8
CUT
10
68.0000
20
60.0000
11
118.0000
21
60.0000
0
LINE
8
CUT
10
118.0000
20
60.0000
11
118.0000
21
68.0000
0
LINE
8
CUT
10
118.0000
20
68.0000
11
68.0000
21
68.0000
0
LINE
8
CUT
10
68.0000
20
68.0000
11
68.0000
21
60.0000
0
LINE
8
CUT
10
128.0000
20
60.0000
11
178.0000
21
60.0000
0
LINE
8
CUT
10
178.0000
20
60.0000
11
178.0000
21
68.0000
0
LINE
8
CUT
10
178.0000
20
68.0000
11
128.0000
21
68.0000
0
LINE
8
CUT
10
128.0000
20
68.0000
11
128.0000
21
60.0000
0
LINE
8
CUT
10
8.0000
20
80.0000
11
58.0000
21
80.0000
0
LINE
8
CUT
10
58.0000
20
80.0000
11
58.0000
21
88.0000
0
LINE
8
CUT
10
58.0000
20
88.0000
11
8.0000
21
88.0000
0
LINE
8
CUT
10
8.0000
20
88.0000
11
8.0000
21
80.0000
0
LINE
8
CUT
10
68.0000
20
80.0000
11
118.0000
21
80.0000
0
LINE
8
CUT
10
118.0000
20
80.0000
11
118.0000
21
88.0000
0
LINE
8
CUT
10
118.0000
20
88.0000
11
68.0000
21
88.0000
0
LINE
8
CUT
10
68.0000
20
88.0000
11
68.0000
21
80.0000
0
LINE
8
CUT
10
128.0000
20
80.0000
11
178.0000
21
80.0000
0
LINE
8
CUT
10
178.0000
20
80.0000
11
178.0000
21
88.0000
0
LINE
8
CUT
10
178.0000
20
88.0000
11
128.0000
21
88.0000
0
LINE
8
CUT
10
128.0000
20
88.0000
11
128.0000
21
80.0000
0
LINE
8
CUT
10
8.0000
20
100.0000
11
58.0000
21
100.0000
0
LINE
8
CUT
10
58.0000
20
100.0000
11
58.0000
21
108.0000
0
LINE
8
CUT
10
58.0000
20
108.0000
11
8.0000
21
108.0000
0
LINE
8
CUT
10
8.0000
20
108.0000
11
8.0000
21
100.0000
0
LINE
8
CUT
10
68.0000
20
100.0000
11
118.0000
21
100.0000
0
LINE
8
CUT
10
118.0000
20
100.0000
11
118.0000
21
108.0000
0
LINE
8
CUT
10
118.0000
20
108.0000
11
68.0000
21
108.0000
0
LINE
8
CUT
10
68.0000
20
108.0000
11
68.0000
21
100.0000
0
LINE
8
CUT
10
128.0000
20
100.0000
11
178.0000
21
100.0000
0
LINE
8
CUT
10
178.0000
20
100.0000
11
178.0000
21
108.0000
0
LINE
8
CUT
10
178.0000
20
108.0000
11
128.0000
21
108.0000
0
LINE
8
CUT
10
128.0000
20
108.0000
11
128.0000
21
100.0000
0
LINE
8
CUT
10
8.0000
20
120.0000
11
58.0000
21
120.0000
0
LINE
8
CUT
10
58.0000
20
120.0000
11
58.0000
21
128.0000
0
LINE
8
CUT
10
58.0000
20
128.0000
11
8.0000
21
128.0000
0
LINE
8
CUT
10
8.0000
20
128.0000
11
8.0000
21
120.0000
0
LINE
8
CUT
10
68.0000
20
120.0000
11
118.0000
21
120.0000
0
LINE
8
CUT
10
118.0000
20
120.0000
11
118.0000
21
128.0000
0
LINE
8
CUT
10
118.0000
20
128.0000
11
68.0000
21
128.0000
0
LINE
8
CUT
10
68.0000
20
128.0000
11
68.0000
21
120.0000
0
LINE
8
CUT
10
128.0000
20
120.0000
11
178.0000
21
120.0000
0
LINE
8
CUT
10
178.0000
20
120.0000
11
178.0000
21
128.0000
0
LINE
8
CUT
10
178.0000
20
128.0000
11
128.0000
21
128.0000
0
LINE
8
CUT
10
128.0000
20
128.0000
11
128.0000
21
120.0000
0
LINE
8
CUT
10
8.0000
20
140.0000
11
58.0000
21
140.0000
0
LINE
8
CUT
10
58.0000
20
140.0000
11
58.0000
21
148.0000
0
LINE
8
CUT
10
58.0000
20
148.0000
11
8.0000
21
148.0000
0
LINE
8
CUT
10
8.0000
20
148.0000
11
8.0000
21
140.0000
0
LINE
8
CUT
10
68.0000
20
140.0000
11
118.0000
21
140.0000
0
LINE
8
CUT
10
118.0000
20
140.0000
11
118.0000
21
148.0000
0
LINE
8
CUT
10
118.0000
20
148.0000
11
68.0000
21
148.0000
0
LINE
8
CUT
10
68.0000
20
148.0000
11
68.0000
21
140.0000
0
LINE
8
CUT
10
128.0000
20
140.0000
11
178.0000
21
140.0000
0
LINE
8
CUT
10
178.0000
20
140.0000
11
178.0000
21
148.0000
0
LINE
8
CUT
10
178.0000
20
148.0000
11
128.0000
21
148.0000
0
LINE
8
CUT
10
128.0000
20
148.0000
11
128.0000
21
140.0000
0
LINE
8
CUT
10
8.0000
20
160.0000
11
58.0000
21
160.0000
0
LINE
8
CUT
10
58.0000
20
160.0000
11
58.0000
21
168.0000
0
LINE
8
CUT
10
58.0000
20
168.0000
11
8.0000
21
168.0000
0
LINE
8
CUT
10
8.0000
20
168.0000
11
8.0000
21
160.0000
0
LINE
8
CUT
10
68.0000
20
160.0000
11
118.0000
21
160.0000
0
LINE
8
CUT
10
118.0000
20
160.0000
11
118.0000
21
168.0000
0
LINE
8
CUT
10
118.0000
20
168.0000
11
68.0000
21
168.0000
0
LINE
8
CUT
10
68.0000
20
168.0000
11
68.0000
21
160.0000
0
LINE
8
CUT
10
128.0000
20
160.0000
11
178.0000
21
160.0000
0
LINE
8
CUT
10
178.0000
20
160.0000
11
178.0000
21
168.0000
0
LINE
8
CUT
10
178.0000
20
168.0000
11
128.0000
21
168.0000
0
LINE
8
CUT
10
128.0000
20
168.0000
11
128.0000
21
160.0000
0
LINE
8
CUT
10
8.0000
20
180.0000
11
58.0000
21
180.0000
0
LINE
8
CUT
10
58.0000
20
180.0000
11
58.0000
21
188.0000
0
LINE
8
CUT
10
58.0000
20
188.0000
11
8.0000
21
188.0000
0
LINE
8
CUT
10
8.0000
20
188.0000
11
8.0000
21
180.0000
0
LINE
8
CUT
10
68.0000
20
180.0000
11
118.0000
21
180.0000
0
LINE
8
CUT
10
118.0000
20
180.0000
11
118.0000
21
188.0000
0
LINE
8
CUT
10
118.0000
20
188.0000
11
68.0000
21
188.0000
0
LINE
8
CUT
10
68.0000
20
188.0000
11
68.0000
21
180.0000
0
LINE
8
CUT
10
128.0000
20
180.0000
11
178.0000
21
180.0000
0
LINE
8
CUT
10
178.0000
20
180.0000
11
178.0000
21
188.0000
0
LINE
8
CUT
10
178.0000
20
188.0000
11
128.0000
21
188.0000
0
LINE
8
CUT
10
128.0000
20
188.0000
11
128.0000
21
180.0000
0
CIRCLE
8
CUT
10
93.0000
20
244.7000
40
1.7000
0
CIRCLE
8
CUT
10
93.0000
20
277.0000
40
1.7000
0
ENDSEC
0
EOF
