0
SECTION
2
HEADER
9
$INSUNITS
70
4
0
ENDSEC
0
SECTION
2
ENTITIES
0
LINE
8
CUT
10
0.0000
20
0.0000
11
40.0000
21
0.0000
0
LINE
8
CUT
10
40.0000
20
0.0000
11
40.0000
21
-3.0000
0
LINE
8
CUT
10
40.0000
20
-3.0000
11
60.0000
21
-3.0000
0
LINE
8
CUT
10
60.0000
20
-3.0000
11
60.0000
21
0.0000
0
LINE
8
CUT
10
60.0000
20
0.0000
11
140.0000
21
0.0000
0
LINE
8
CUT
10
140.0000
20
0.0000
11
140.0000
21
-3.0000
0
LINE
8
CUT
10
140.0000
20
-3.0000
11
160.0000
21
-3.0000
0
LINE
8
CUT
10
160.0000
20
-3.0000
11
160.0000
21
0.0000
0
LINE
8
CUT
10
160.0000
20
0.0000
11
200.0000
21
0.0000
0
LINE
8
CUT
10
200.0000
20
0.0000
11
200.0000
21
35.0000
0
LINE
8
CUT
10
200.0000
20
35.0000
11
203.0000
21
35.0000
0
LINE
8
CUT
10
203.0000
20
35.0000
11
203.0000
21
55.0000
0
LINE
8
CUT
10
203.0000
20
55.0000
11
200.0000
21
55.0000
0
LINE
8
CUT
10
200.0000
20
55.0000
11
200.0000
21
115.0000
0
LINE
8
CUT
10
200.0000
20
115.0000
11
203.0000
21
115.0000
0
LINE
8
CUT
10
203.0000
20
115.0000
11
203.0000
21
135.0000
0
LINE
8
CUT
10
203.0000
20
135.0000
11
200.0000
21
135.0000
0
LINE
8
CUT
10
200.0000
20
135.0000
11
200.0000
21
195.0000
0
LINE
8
CUT
10
200.0000
20
195.0000
11
203.0000
21
195.0000
0
LINE
8
CUT
10
203.0000
20
195.0000
11
203.0000
21
215.0000
0
LINE
8
CUT
10
203.0000
20
215.0000
11
200.0000
21
215.0000
0
LINE
8
CUT
10
200.0000
20
215.0000
11
200.0000
21
250.0000
0
LINE
8
CUT
10
200.0000
20
250.0000
11
0.0000
21
250.0000
0
LINE
8
CUT
10
0.0000
20
250.0000
11
0.0000
21
215.0000
0
LINE
8
CUT
10
0.0000
20
215.0000
11
-3.0000
21
215.0000
0
LINE
8
CUT
10
-3.0000
20
215.0000
11
-3.0000
21
195.0000
0
LINE
8
CUT
10
-3.0000
20
195.0000
11
0.0000
21
195.0000
0
LINE
8
CUT
10
0.0000
20
195.0000
11
0.0000
21
135.0000
0
LINE
8
CUT
10
0.0000
20
135.0000
11
-3.0000
21
135.0000
0
LINE
8
CUT
10
-3.0000
20
135.0000
11
-3.0000
21
115.0000
0
LINE
8
CUT
10
-3.0000
20
115.0000
11
0.0000
21
115.0000
0
LINE
8
CUT
10
0.0000
20
115.0000
11
0.0000
21
55.0000
0
LINE
8
CUT
10
0.0000
20
55.0000
11
-3.0000
21
55.0000
0
LINE
8
CUT
10
-3.0000
20
55.0000
11
-3.0000
21
35.0000
0
LINE
8
CUT
10
-3.0000
20
35.0000
11
0.0000
21
35.0000
0
LINE
8
CUT
10
0.0000
20
35.0000
11
0.0000
21
0.0000
0
LINE
8
CUT
10
15.0000
20
30.0000
11
65.0000
21
30.0000
0
LINE
8
CUT
10
65.0000
20
30.0000
11
65.0000
21
38.0000
0
LINE
8
CUT
10
65.0000
20
38.0000
11
15.0000
21
38.0000
0
LINE
8
CUT
10
15.0000
20
38.0000
11
15.0000
21
30.0000
0
LINE
8
CUT
10
75.0000
20
30.0000
11
125.0000
21
30.0000
0
LINE
8
CUT
10
125.0000
20
30.0000
11
125.0000
21
38.0000
0
LINE
8
CUT
10
125.0000
20
38.0000
11
75.0000
21
38.0000
0
LINE
8
CUT
10
75.0000
20
38.0000
11
75.0000
21
30.0000
0
LINE
8
CUT
10
135.0000
20
30.0000
11
185.0000
21
30.0000
0
LINE
8
CUT
10
185.0000
20
30.0000
11
185.0000
21
38.0000
0
LINE
8
CUT
10
185.0000
20
38.0000
11
135.0000
21
38.0000
0
LINE
8
CUT
10
135.0000
20
38.0000
11
135.0000
21
30.0000
0
LINE
8
CUT
10
15.0000
20
50.0000
11
65.0000
21
50.0000
0
LINE
8
CUT
10
65.0000
20
50.0000
11
65.0000
21
58.0000
0
LINE
8
CUT
10
65.0000
20
58.0000
11
15.0000
21
58.0000
0
LINE
8
CUT
10
15.0000
20
58.0000
11
15.0000
21
50.0000
0
LINE
8
CUT
10
75.0000
20
50.0000
11
125.0000
21
50.0000
0
LINE
8
CUT
10
125.0000
20
50.0000
11
125.0000
21
58.0000
0
LINE
8
CUT
10
125.0000
20
58.0000
11
75.0000
21
58.0000
0
LINE
8
CUT
10
75.0000
20
58.0000
11
75.0000
21
50.0000
0
LINE
8
CUT
10
135.0000
20
50.0000
11
185.0000
21
50.0000
0
LINE
8
CUT
10
185.0000
20
50.0000
11
185.0000
21
58.0000
0
LINE
8
CUT
10
185.0000
20
58.0000
11
135.0000
21
58.0000
0
LINE
8
CUT
10
135.0000
20
58.0000
11
135.0000
21
50.0000
0
LINE
8
CUT
10
15.0000
20
70.0000
11
65.0000
21
70.0000
0
LINE
8
CUT
10
65.0000
20
70.0000
11
65.0000
21
78.0000
0
LINE
8
CUT
10
65.0000
20
78.0000
11
15.0000
21
78.0000
0
LINE
8
CUT
10
15.0000
20
78.0000
11
15.0000
21
70.0000
0
LINE
8
CUT
10
75.0000
20
70.0000
11
125.0000
21
70.0000
0
LINE
8
CUT
10
125.0000
20
70.0000
11
125.0000
21
78.0000
0
LINE
8
CUT
10
125.0000
20
78.0000
11
75.0000
21
78.0000
0
LINE
8
CUT
10
75.0000
20
78.0000
11
75.0000
21
70.0000
0
LINE
8
CUT
10
135.0000
20
70.0000
11
185.0000
21
70.0000
0
LINE
8
CUT
10
185.0000
20
70.0000
11
185.0000
21
78.0000
0
LINE
8
CUT
10
185.0000
20
78.0000
11
135.0000
21
78.0000
0
LINE
8
CUT
10
135.0000
20
78.0000
11
135.0000
21
70.0000
0
LINE
8
CUT
10
15.0000
20
90.0000
11
65.0000
21
90.0000
0
LINE
8
CUT
10
65.0000
20
90.0000
11
65.0000
21
98.0000
0
LINE
8
CUT
10
65.0000
20
98.0000
11
15.0000
21
98.0000
0
LINE
8
CUT
10
15.0000
20
98.0000
11
15.0000
21
90.0000
0
LINE
8
CUT
10
75.0000
20
90.0000
11
125.0000
21
90.0000
0
LINE
8
CUT
10
125.0000
20
90.0000
11
125.0000
21
98.0000
0
LINE
8
CUT
10
125.0000
20
98.0000
11
75.0000
21
98.0000
0
LINE
8
CUT
10
75.0000
20
98.0000
11
75.0000
21
90.0000
0
LINE
8
CUT
10
135.0000
20
90.0000
11
185.0000
21
90.0000
0
LINE
8
CUT
10
185.0000
20
90.0000
11
185.0000
21
98.0000
0
LINE
8
CUT
10
185.0000
20
98.0000
11
135.0000
21
98.0000
0
LINE
8
CUT
10
135.0000
20
98.0000
11
135.0000
21
90.0000
0
LINE
8
CUT
10
15.0000
20
110.0000
11
65.0000
21
110.0000
0
LINE
8
CUT
10
65.0000
20
110.0000
11
65.0000
21
118.0000
0
LINE
8
CUT
10
65.0000
20
118.0000
11
15.0000
21
118.0000
0
LINE
8
CUT
10
15.0000
20
118.0000
11
15.0000
21
110.0000
0
LINE
8
CUT
10
75.0000
20
110.0000
11
125.0000
21
110.0000
0
LINE
8
CUT
10
125.0000
20
110.0000
11
125.0000
21
118.0000
0
LINE
8
CUT
10
125.0000
20
118.0000
11
75.0000
21
118.0000
0
LINE
8
CUT
10
75.0000
20
118.0000
11
75.0000
21
110.0000
0
LINE
8
CUT
10
135.0000
20
110.0000
11
185.0000
21
110.0000
0
LINE
8
CUT
10
185.0000
20
110.0000
11
185.0000
21
118.0000
0
LINE
8
CUT
10
185.0000
20
118.0000
11
135.0000
21
118.0000
0
LINE
8
CUT
10
135.0000
20
118.0000
11
135.0000
21
110.0000
0
LINE
8
CUT
10
15.0000
20
130.0000
11
65.0000
21
130.0000
0
LINE
8
CUT
10
65.0000
20
130.0000
11
65.0000
21
138.0000
0
LINE
8
CUT
10
65.0000
20
138.0000
11
15.0000
21
138.0000
0
LINE
8
CUT
10
15.0000
20
138.0000
11
15.0000
21
130.0000
0
LINE
8
CUT
10
75.0000
20
130.0000
11
125.0000
21
130.0000
0
LINE
8
CUT
10
125.0000
20
130.0000
11
125.0000
21
138.0000
0
LINE
8
CUT
10
125.0000
20
138.0000
11
75.0000
21
138.0000
0
LINE
8
CUT
10
75.0000
20
138.0000
11
75.0000
21
130.0000
0
LINE
8
CUT
10
135.0000
20
130.0000
11
185.0000
21
130.0000
0
LINE
8
CUT
10
185.0000
20
130.0000
11
185.0000
21
138.0000
0
LINE
8
CUT
10
185.0000
20
138.0000
11
135.0000
21
138.0000
0
LINE
8
CUT
10
135.0000
20
138.0000
11
135.0000
21
130.0000
0
LINE
8
CUT
10
15.0000
20
150.0000
11
65.0000
21
150.0000
0
LINE
8
CUT
10
65.0000
20
150.0000
11
65.0000
21
158.0000
0
LINE
8
CUT
10
65.0000
20
158.0000
11
15.0000
21
158.0000
0
LINE
8
CUT
10
15.0000
20
158.0000
11
15.0000
21
150.0000
0
LINE
8
CUT
10
75.0000
20
150.0000
11
125.0000
21
150.0000
0
LINE
8
CUT
10
125.0000
20
150.0000
11
125.0000
21
158.0000
0
LINE
8
CUT
10
125.0000
20
158.0000
11
75.0000
21
158.0000
0
LINE
8
CUT
10
75.0000
20
158.0000
11
75.0000
21
150.0000
0
LINE
8
CUT
10
135.0000
20
150.0000
11
185.0000
21
150.0000
0
LINE
8
CUT
10
185.0000
20
150.0000
11
185.0000
21
158.0000
0
LINE
8
CUT
10
185.0000
20
158.0000
11
135.0000
21
158.0000
0
LINE
8
CUT
10
135.0000
20
158.0000
11
135.0000
21
150.0000
0
LINE
8
CUT
10
15.0000
20
170.0000
11
65.0000
21
170.0000
0
LINE
8
CUT
10
65.0000
20
170.0000
11
65.0000
21
178.0000
0
LINE
8
CUT
10
65.0000
20
178.0000
11
15.0000
21
178.0000
0
LINE
8
CUT
10
15.0000
20
178.0000
11
15.0000
21
170.0000
0
LINE
8
CUT
10
75.0000
20
170.0000
11
125.0000
21
170.0000
0
LINE
8
CUT
10
125.0000
20
170.0000
11
125.0000
21
178.0000
0
LINE
8
CUT
10
125.0000
20
178.0000
11
75.0000
21
178.0000
0
LINE
8
CUT
10
75.0000
20
178.0000
11
75.0000
21
170.0000
0
LINE
8
CUT
10
135.0000
20
170.0000
11
185.0000
21
170.0000
0
LINE
8
CUT
10
185.0000
20
170.0000
11
185.0000
21
178.0000
0
LINE
8
CUT
10
185.0000
20
178.0000
11
135.0000
21
178.0000
0
LINE
8
CUT
10
135.0000
20
178.0000
11
135.0000
21
170.0000
0
LINE
8
CUT
10
15.0000
20
190.0000
11
65.0000
21
190.0000
0
LINE
8
CUT
10
65.0000
20
190.0000
11
65.0000
21
198.0000
0
LINE
8
CUT
10
65.0000
20
198.0000
11
15.0000
21
198.0000
0
LINE
8
CUT
10
15.0000
20
198.0000
11
15.0000
21
190.0000
0
LINE
8
CUT
10
75.0000
20
190.0000
11
125.0000
21
190.0000
0
LINE
8
CUT
10
125.0000
20
190.0000
11
125.0000
21
198.0000
0
LINE
8
CUT
10
125.0000
20
198.0000
11
75.0000
21
198.0000
0
LINE
8
CUT
10
75.0000
20
198.0000
11
75.0000
21
190.0000
0
LINE
8
CUT
10
135.0000
20
190.0000
11
185.0000
21
190.0000
0
LINE
8
CUT
10
185.0000
20
190.0000
11
185.0000
21
198.0000
0
LINE
8
CUT
10
185.0000
20
198.0000
11
135.0000
21
198.0000
0
LINE
8
CUT
10
135.0000
20
198.0000
11
135.0000
21
190.0000
0
CIRCLE
8
CUT
10
170.0000
20
235.0000
40
4.0000
0
ENDSEC
0
EOF
