0
SECTION
2
HEADER
9
$INSUNITS
70
4
0
ENDSEC
0
SECTION
2
ENTITIES
0
LINE
8
CUT
10
0.0000
20
0.0000
11
40.0000
21
0.0000
0
LINE
8
CUT
10
40.0000
20
0.0000
11
40.0000
21
-3.0000
0
LINE
8
CUT
10
40.0000
20
-3.0000
11
60.0000
21
-3.0000
0
LINE
8
CUT
10
60.0000
20
-3.0000
11
60.0000
21
0.0000
0
LINE
8
CUT
10
60.0000
20
0.0000
11
140.0000
21
0.0000
0
LINE
8
CUT
10
140.0000
20
0.0000
11
140.0000
21
-3.0000
0
LINE
8
CUT
10
140.0000
20
-3.0000
11
160.0000
21
-3.0000
0
LINE
8
CUT
10
160.0000
20
-3.0000
11
160.0000
21
0.0000
0
LINE
8
CUT
10
160.0000
20
0.0000
11
200.0000
21
0.0000
0
LINE
8
CUT
10
200.0000
20
0.0000
11
200.0000
21
35.0000
0
LINE
8
CUT
10
200.0000
20
35.0000
11
203.0000
21
35.0000
0
LINE
8
CUT
10
203.0000
20
35.0000
11
203.0000
21
55.0000
0
LINE
8
CUT
10
203.0000
20
55.0000
11
200.0000
21
55.0000
0
LINE
8
CUT
10
200.0000
20
55.0000
11
200.0000
21
115.0000
0
LINE
8
CUT
10
200.0000
20
115.0000
11
203.0000
21
115.0000
0
LINE
8
CUT
10
203.0000
20
115.0000
11
203.0000
21
135.0000
0
LINE
8
CUT
10
203.0000
20
135.0000
11
200.0000
21
135.0000
0
LINE
8
CUT
10
200.0000
20
135.0000
11
200.0000
21
195.0000
0
LINE
8
CUT
10
200.0000
20
195.0000
11
203.0000
21
195.0000
0
LINE
8
CUT
10
203.0000
20
195.0000
11
203.0000
21
215.0000
0
LINE
8
CUT
10
203.0000
20
215.0000
11
200.0000
21
215.0000
0
LINE
8
CUT
10
200.0000
20
215.0000
11
200.0000
21
250.0000
0
LINE
8
CUT
10
200.0000
20
250.0000
11
0.0000
21
250.0000
0
LINE
8
CUT
10
0.0000
20
250.0000
11
0.0000
21
215.0000
0
LINE
8
CUT
10
0.0000
20
215.0000
11
-3.0000
21
215.0000
0
LINE
8
CUT
10
-3.0000
20
215.0000
11
-3.0000
21
195.0000
0
LINE
8
CUT
10
-3.0000
20
195.0000
11
0.0000
21
195.0000
0
LINE
8
CUT
10
0.0000
20
195.0000
11
0.0000
21
135.0000
0
LINE
8
CUT
10
0.0000
20
135.0000
11
-3.0000
21
135.0000
0
LINE
8
CUT
10
-3.0000
20
135.0000
11
-3.0000
21
115.0000
0
LINE
8
CUT
10
-3.0000
20
115.0000
11
0.0000
21
115.0000
0
LINE
8
CUT
10
0.0000
20
115.0000
11
0.0000
21
55.0000
0
LINE
8
CUT
10
0.0000
20
55.0000
11
-3.0000
21
55.0000
0
LINE
8
CUT
10
-3.0000
20
55.0000
11
-3.0000
21
35.0000
0
LINE
8
CUT
10
-3.0000
20
35.0000
11
0.0000
21
35.0000
0
LINE
8
CUT
10
0.0000
20
35.0000
11
0.0000
21
0.0000
0
CIRCLE
8
CUT
10
40.0000
20
60.0000
40
6.0000
0
CIRCLE
8
CUT
10
80.0000
20
60.0000
40
6.0000
0
CIRCLE
8
CUT
10
120.0000
20
60.0000
40
6.0000
0
CIRCLE
8
CUT
10
160.0000
20
60.0000
40
6.0000
0
CIRCLE
8
CUT
10
100.0000
20
170.0000
40
6.0000
0
CIRCLE
8
CUT
10
170.0000
20
235.0000
40
4.0000
0
ENDSEC
0
EOF
