0
SECTION
2
HEADER
9
$INSUNITS
70
4
0
ENDSEC
0
SECTION
2
ENTITIES
0
LINE
8
CUT
10
0.0000
20
0.0000
11
104.0000
21
0.0000
0
LINE
8
CUT
10
104.0000
20
0.0000
11
104.0000
21
190.0000
0
LINE
8
CUT
10
104.0000
20
190.0000
11
0.0000
21
190.0000
0
LINE
8
CUT
10
0.0000
20
190.0000
11
0.0000
21
0.0000
0
CIRCLE
8
CUT
10
7.0000
20
10.0000
40
1.6000
0
CIRCLE
8
CUT
10
7.0000
20
20.0000
40
1.6000
0
CIRCLE
8
CUT
10
7.0000
20
30.0000
40
1.6000
0
CIRCLE
8
CUT
10
7.0000
20
40.0000
40
1.6000
0
CIRCLE
8
CUT
10
7.0000
20
50.0000
40
1.6000
0
CIRCLE
8
CUT
10
7.0000
20
60.0000
40
1.6000
0
CIRCLE
8
CUT
10
7.0000
20
70.0000
40
1.6000
0
CIRCLE
8
CUT
10
7.0000
20
80.0000
40
1.6000
0
CIRCLE
8
CUT
10
7.0000
20
90.0000
40
1.6000
0
CIRCLE
8
CUT
10
7.0000
20
100.0000
40
1.6000
0
CIRCLE
8
CUT
10
7.0000
20
110.0000
40
1.6000
0
CIRCLE
8
CUT
10
7.0000
20
120.0000
40
1.6000
0
CIRCLE
8
CUT
10
7.0000
20
130.0000
40
1.6000
0
CIRCLE
8
CUT
10
7.0000
20
140.0000
40
1.6000
0
CIRCLE
8
CUT
10
7.0000
20
150.0000
40
1.6000
0
CIRCLE
8
CUT
10
7.0000
20
160.0000
40
1.6000
0
CIRCLE
8
CUT
10
7.0000
20
170.0000
40
1.6000
0
CIRCLE
8
CUT
10
7.0000
20
180.0000
40
1.6000
0
CIRCLE
8
CUT
10
17.0000
20
10.0000
40
1.6000
0
CIRCLE
8
CUT
10
17.0000
20
20.0000
40
1.6000
0
CIRCLE
8
CUT
10
17.0000
20
30.0000
40
1.6000
0
CIRCLE
8
CUT
10
17.0000
20
40.0000
40
1.6000
0
CIRCLE
8
CUT
10
17.0000
20
50.0000
40
1.6000
0
CIRCLE
8
CUT
10
17.0000
20
60.0000
40
1.6000
0
CIRCLE
8
CUT
10
17.0000
20
70.0000
40
1.6000
0
CIRCLE
8
CUT
10
17.0000
20
80.0000
40
1.6000
0
CIRCLE
8
CUT
10
17.0000
20
90.0000
40
1.6000
0
CIRCLE
8
CUT
10
17.0000
20
100.0000
40
1.6000
0
CIRCLE
8
CUT
10
17.0000
20
110.0000
40
1.6000
0
CIRCLE
8
CUT
10
17.0000
20
120.0000
40
1.6000
0
CIRCLE
8
CUT
10
17.0000
20
130.0000
40
1.6000
0
CIRCLE
8
CUT
10
17.0000
20
140.0000
40
1.6000
0
CIRCLE
8
CUT
10
17.0000
20
150.0000
40
1.6000
0
CIRCLE
8
CUT
10
17.0000
20
160.0000
40
1.6000
0
CIRCLE
8
CUT
10
17.0000
20
170.0000
40
1.6000
0
CIRCLE
8
CUT
10
17.0000
20
180.0000
40
1.6000
0
CIRCLE
8
CUT
10
27.0000
20
10.0000
40
1.6000
0
CIRCLE
8
CUT
10
27.0000
20
20.0000
40
1.6000
0
CIRCLE
8
CUT
10
27.0000
20
30.0000
40
1.6000
0
CIRCLE
8
CUT
10
27.0000
20
40.0000
40
1.6000
0
CIRCLE
8
CUT
10
27.0000
20
50.0000
40
1.6000
0
CIRCLE
8
CUT
10
27.0000
20
60.0000
40
1.6000
0
CIRCLE
8
CUT
10
27.0000
20
70.0000
40
1.6000
0
CIRCLE
8
CUT
10
27.0000
20
80.0000
40
1.6000
0
CIRCLE
8
CUT
10
27.0000
20
90.0000
40
1.6000
0
CIRCLE
8
CUT
10
27.0000
20
100.0000
40
1.6000
0
CIRCLE
8
CUT
10
27.0000
20
110.0000
40
1.6000
0
CIRCLE
8
CUT
10
27.0000
20
120.0000
40
1.6000
0
CIRCLE
8
CUT
10
27.0000
20
130.0000
40
1.6000
0
CIRCLE
8
CUT
10
27.0000
20
140.0000
40
1.6000
0
CIRCLE
8
CUT
10
27.0000
20
150.0000
40
1.6000
0
CIRCLE
8
CUT
10
27.0000
20
160.0000
40
1.6000
0
CIRCLE
8
CUT
10
27.0000
20
170.0000
40
1.6000
0
CIRCLE
8
CUT
10
27.0000
20
180.0000
40
1.6000
0
CIRCLE
8
CUT
10
37.0000
20
10.0000
40
1.6000
0
CIRCLE
8
CUT
10
37.0000
20
20.0000
40
1.6000
0
CIRCLE
8
CUT
10
37.0000
20
30.0000
40
1.6000
0
CIRCLE
8
CUT
10
37.0000
20
40.0000
40
1.6000
0
CIRCLE
8
CUT
10
37.0000
20
50.0000
40
1.6000
0
CIRCLE
8
CUT
10
37.0000
20
60.0000
40
1.6000
0
CIRCLE
8
CUT
10
37.0000
20
70.0000
40
1.6000
0
CIRCLE
8
CUT
10
37.0000
20
80.0000
40
1.6000
0
CIRCLE
8
CUT
10
37.0000
20
90.0000
40
1.6000
0
CIRCLE
8
CUT
10
37.0000
20
100.0000
40
1.6000
0
CIRCLE
8
CUT
10
37.0000
20
110.0000
40
1.6000
0
CIRCLE
8
CUT
10
37.0000
20
120.0000
40
1.6000
0
CIRCLE
8
CUT
10
37.0000
20
130.0000
40
1.6000
0
CIRCLE
8
CUT
10
37.0000
20
140.0000
40
1.6000
0
CIRCLE
8
CUT
10
37.0000
20
150.0000
40
1.6000
0
CIRCLE
8
CUT
10
37.0000
20
160.0000
40
1.6000
0
CIRCLE
8
CUT
10
37.0000
20
170.0000
40
1.6000
0
CIRCLE
8
CUT
10
37.0000
20
180.0000
40
1.6000
0
CIRCLE
8
CUT
10
47.0000
20
10.0000
40
1.6000
0
CIRCLE
8
CUT
10
47.0000
20
20.0000
40
1.6000
0
CIRCLE
8
CUT
10
47.0000
20
30.0000
40
1.6000
0
CIRCLE
8
CUT
10
47.0000
20
40.0000
40
1.6000
0
CIRCLE
8
CUT
10
47.0000
20
50.0000
40
1.6000
0
CIRCLE
8
CUT
10
47.0000
20
60.0000
40
1.6000
0
CIRCLE
8
CUT
10
47.0000
20
70.0000
40
1.6000
0
CIRCLE
8
CUT
10
47.0000
20
80.0000
40
1.6000
0
CIRCLE
8
CUT
10
47.0000
20
90.0000
40
1.6000
0
CIRCLE
8
CUT
10
47.0000
20
100.0000
40
1.6000
0
CIRCLE
8
CUT
10
47.0000
20
110.0000
40
1.6000
0
CIRCLE
8
CUT
10
47.0000
20
120.0000
40
1.6000
0
CIRCLE
8
CUT
10
47.0000
20
130.0000
40
1.6000
0
CIRCLE
8
CUT
10
47.0000
20
140.0000
40
1.6000
0
CIRCLE
8
CUT
10
47.0000
20
150.0000
40
1.6000
0
CIRCLE
8
CUT
10
47.0000
20
160.0000
40
1.6000
0
CIRCLE
8
CUT
10
47.0000
20
170.0000
40
1.6000
0
CIRCLE
8
CUT
10
47.0000
20
180.0000
40
1.6000
0
CIRCLE
8
CUT
10
57.0000
20
10.0000
40
1.6000
0
CIRCLE
8
CUT
10
57.0000
20
20.0000
40
1.6000
0
CIRCLE
8
CUT
10
57.0000
20
30.0000
40
1.6000
0
CIRCLE
8
CUT
10
57.0000
20
40.0000
40
1.6000
0
CIRCLE
8
CUT
10
57.0000
20
50.0000
40
1.6000
0
CIRCLE
8
CUT
10
57.0000
20
60.0000
40
1.6000
0
CIRCLE
8
CUT
10
57.0000
20
70.0000
40
1.6000
0
CIRCLE
8
CUT
10
57.0000
20
80.0000
40
1.6000
0
CIRCLE
8
CUT
10
57.0000
20
90.0000
40
1.6000
0
CIRCLE
8
CUT
10
57.0000
20
100.0000
40
1.6000
0
CIRCLE
8
CUT
10
57.0000
20
110.0000
40
1.6000
0
CIRCLE
8
CUT
10
57.0000
20
120.0000
40
1.6000
0
CIRCLE
8
CUT
10
57.0000
20
130.0000
40
1.6000
0
CIRCLE
8
CUT
10
57.0000
20
140.0000
40
1.6000
0
CIRCLE
8
CUT
10
57.0000
20
150.0000
40
1.6000
0
CIRCLE
8
CUT
10
57.0000
20
160.0000
40
1.6000
0
CIRCLE
8
CUT
10
57.0000
20
170.0000
40
1.6000
0
CIRCLE
8
CUT
10
57.0000
20
180.0000
40
1.6000
0
CIRCLE
8
CUT
10
67.0000
20
10.0000
40
1.6000
0
CIRCLE
8
CUT
10
67.0000
20
20.0000
40
1.6000
0
CIRCLE
8
CUT
10
67.0000
20
30.0000
40
1.6000
0
CIRCLE
8
CUT
10
67.0000
20
40.0000
40
1.6000
0
CIRCLE
8
CUT
10
67.0000
20
50.0000
40
1.6000
0
CIRCLE
8
CUT
10
67.0000
20
60.0000
40
1.6000
0
CIRCLE
8
CUT
10
67.0000
20
70.0000
40
1.6000
0
CIRCLE
8
CUT
10
67.0000
20
80.0000
40
1.6000
0
CIRCLE
8
CUT
10
67.0000
20
90.0000
40
1.6000
0
CIRCLE
8
CUT
10
67.0000
20
100.0000
40
1.6000
0
CIRCLE
8
CUT
10
67.0000
20
110.0000
40
1.6000
0
CIRCLE
8
CUT
10
67.0000
20
120.0000
40
1.6000
0
CIRCLE
8
CUT
10
67.0000
20
130.0000
40
1.6000
0
CIRCLE
8
CUT
10
67.0000
20
140.0000
40
1.6000
0
CIRCLE
8
CUT
10
67.0000
20
150.0000
40
1.6000
0
CIRCLE
8
CUT
10
67.0000
20
160.0000
40
1.6000
0
CIRCLE
8
CUT
10
67.0000
20
170.0000
40
1.6000
0
CIRCLE
8
CUT
10
67.0000
20
180.0000
40
1.6000
0
CIRCLE
8
CUT
10
77.0000
20
10.0000
40
1.6000
0
CIRCLE
8
CUT
10
77.0000
20
20.0000
40
1.6000
0
CIRCLE
8
CUT
10
77.0000
20
30.0000
40
1.6000
0
CIRCLE
8
CUT
10
77.0000
20
40.0000
40
1.6000
0
CIRCLE
8
CUT
10
77.0000
20
50.0000
40
1.6000
0
CIRCLE
8
CUT
10
77.0000
20
60.0000
40
1.6000
0
CIRCLE
8
CUT
10
77.0000
20
70.0000
40
1.6000
0
CIRCLE
8
CUT
10
77.0000
20
80.0000
40
1.6000
0
CIRCLE
8
CUT
10
77.0000
20
90.0000
40
1.6000
0
CIRCLE
8
CUT
10
77.0000
20
100.0000
40
1.6000
0
CIRCLE
8
CUT
10
77.0000
20
110.0000
40
1.6000
0
CIRCLE
8
CUT
10
77.0000
20
120.0000
40
1.6000
0
CIRCLE
8
CUT
10
77.0000
20
130.0000
40
1.6000
0
CIRCLE
8
CUT
10
77.0000
20
140.0000
40
1.6000
0
CIRCLE
8
CUT
10
77.0000
20
150.0000
40
1.6000
0
CIRCLE
8
CUT
10
77.0000
20
160.0000
40
1.6000
0
CIRCLE
8
CUT
10
77.0000
20
170.0000
40
1.6000
0
CIRCLE
8
CUT
10
77.0000
20
180.0000
40
1.6000
0
CIRCLE
8
CUT
10
87.0000
20
10.0000
40
1.6000
0
CIRCLE
8
CUT
10
87.0000
20
20.0000
40
1.6000
0
CIRCLE
8
CUT
10
87.0000
20
30.0000
40
1.6000
0
CIRCLE
8
CUT
10
87.0000
20
40.0000
40
1.6000
0
CIRCLE
8
CUT
10
87.0000
20
50.0000
40
1.6000
0
CIRCLE
8
CUT
10
87.0000
20
60.0000
40
1.6000
0
CIRCLE
8
CUT
10
87.0000
20
70.0000
40
1.6000
0
CIRCLE
8
CUT
10
87.0000
20
80.0000
40
1.6000
0
CIRCLE
8
CUT
10
87.0000
20
90.0000
40
1.6000
0
CIRCLE
8
CUT
10
87.0000
20
100.0000
40
1.6000
0
CIRCLE
8
CUT
10
87.0000
20
110.0000
40
1.6000
0
CIRCLE
8
CUT
10
87.0000
20
120.0000
40
1.6000
0
CIRCLE
8
CUT
10
87.0000
20
130.0000
40
1.6000
0
CIRCLE
8
CUT
10
87.0000
20
140.0000
40
1.6000
0
CIRCLE
8
CUT
10
87.0000
20
150.0000
40
1.6000
0
CIRCLE
8
CUT
10
87.0000
20
160.0000
40
1.6000
0
CIRCLE
8
CUT
10
87.0000
20
170.0000
40
1.6000
0
CIRCLE
8
CUT
10
87.0000
20
180.0000
40
1.6000
0
CIRCLE
8
CUT
10
97.0000
20
10.0000
40
1.6000
0
CIRCLE
8
CUT
10
97.0000
20
20.0000
40
1.6000
0
CIRCLE
8
CUT
10
97.0000
20
30.0000
40
1.6000
0
CIRCLE
8
CUT
10
97.0000
20
40.0000
40
1.6000
0
CIRCLE
8
CUT
10
97.0000
20
50.0000
40
1.6000
0
CIRCLE
8
CUT
10
97.0000
20
60.0000
40
1.6000
0
CIRCLE
8
CUT
10
97.0000
20
70.0000
40
1.6000
0
CIRCLE
8
CUT
10
97.0000
20
80.0000
40
1.6000
0
CIRCLE
8
CUT
10
97.0000
20
90.0000
40
1.6000
0
CIRCLE
8
CUT
10
97.0000
20
100.0000
40
1.6000
0
CIRCLE
8
CUT
10
97.0000
20
110.0000
40
1.6000
0
CIRCLE
8
CUT
10
97.0000
20
120.0000
40
1.6000
0
CIRCLE
8
CUT
10
97.0000
20
130.0000
40
1.6000
0
CIRCLE
8
CUT
10
97.0000
20
140.0000
40
1.6000
0
CIRCLE
8
CUT
10
97.0000
20
150.0000
40
1.6000
0
CIRCLE
8
CUT
10
97.0000
20
160.0000
40
1.6000
0
CIRCLE
8
CUT
10
97.0000
20
170.0000
40
1.6000
0
CIRCLE
8
CUT
10
97.0000
20
180.0000
40
1.6000
0
ENDSEC
0
EOF
