0
SECTION
2
HEADER
9
$INSUNITS
70
4
0
ENDSEC
0
SECTION
2
ENTITIES
0
LINE
8
CUT
10
0.0000
20
0.0000
11
40.0000
21
0.0000
0
LINE
8
CUT
10
40.0000
20
0.0000
11
40.0000
21
-3.0000
0
LINE
8
CUT
10
40.0000
20
-3.0000
11
60.0000
21
-3.0000
0
LINE
8
CUT
10
60.0000
20
-3.0000
11
60.0000
21
0.0000
0
LINE
8
CUT
10
60.0000
20
0.0000
11
140.0000
21
0.0000
0
LINE
8
CUT
10
140.0000
20
0.0000
11
140.0000
21
-3.0000
0
LINE
8
CUT
10
140.0000
20
-3.0000
11
160.0000
21
-3.0000
0
LINE
8
CUT
10
160.0000
20
-3.0000
11
160.0000
21
0.0000
0
LINE
8
CUT
10
160.0000
20
0.0000
11
200.0000
21
0.0000
0
LINE
8
CUT
10
200.0000
20
0.0000
11
200.0000
21
35.0000
0
LINE
8
CUT
10
200.0000
20
35.0000
11
203.0000
21
35.0000
0
LINE
8
CUT
10
203.0000
20
35.0000
11
203.0000
21
55.0000
0
LINE
8
CUT
10
203.0000
20
55.0000
11
200.0000
21
55.0000
0
LINE
8
CUT
10
200.0000
20
55.0000
11
200.0000
21
115.0000
0
LINE
8
CUT
10
200.0000
20
115.0000
11
203.0000
21
115.0000
0
LINE
8
CUT
10
203.0000
20
115.0000
11
203.0000
21
135.0000
0
LINE
8
CUT
10
203.0000
20
135.0000
11
200.0000
21
135.0000
0
LINE
8
CUT
10
200.0000
20
135.0000
11
200.0000
21
195.0000
0
LINE
8
CUT
10
200.0000
20
195.0000
11
203.0000
21
195.0000
0
LINE
8
CUT
10
203.0000
20
195.0000
11
203.0000
21
215.0000
0
LINE
8
CUT
10
203.0000
20
215.0000
11
200.0000
21
215.0000
0
LINE
8
CUT
10
200.0000
20
215.0000
11
200.0000
21
250.0000
0
LINE
8
CUT
10
200.0000
20
250.0000
11
0.0000
21
250.0000
0
LINE
8
CUT
10
0.0000
20
250.0000
11
0.0000
21
215.0000
0
LINE
8
CUT
10
0.0000
20
215.0000
11
-3.0000
21
215.0000
0
LINE
8
CUT
10
-3.0000
20
215.0000
11
-3.0000
21
195.0000
0
LINE
8
CUT
10
-3.0000
20
195.0000
11
0.0000
21
195.0000
0
LINE
8
CUT
10
0.0000
20
195.0000
11
0.0000
21
135.0000
0
LINE
8
CUT
10
0.0000
20
135.0000
11
-3.0000
21
135.0000
0
LINE
8
CUT
10
-3.0000
20
135.0000
11
-3.0000
21
115.0000
0
LINE
8
CUT
10
-3.0000
20
115.0000
11
0.0000
21
115.0000
0
LINE
8
CUT
10
0.0000
20
115.0000
11
0.0000
21
55.0000
0
LINE
8
CUT
10
0.0000
20
55.0000
11
-3.0000
21
55.0000
0
LINE
8
CUT
10
-3.0000
20
55.0000
11
-3.0000
21
35.0000
0
LINE
8
CUT
10
-3.0000
20
35.0000
11
0.0000
21
35.0000
0
LINE
8
CUT
10
0.0000
20
35.0000
11
0.0000
21
0.0000
0
CIRCLE
8
CUT
10
35.0000
20
40.0000
40
4.0000
0
CIRCLE
8
CUT
10
65.0000
20
40.0000
40
6.0000
0
LINE
8
CUT
10
100.0000
20
12.0000
11
116.0000
21
12.0000
0
LINE
8
CUT
10
116.0000
20
12.0000
11
116.0000
21
22.0000
0
LINE
8
CUT
10
116.0000
20
22.0000
11
100.0000
21
22.0000
0
LINE
8
CUT
10
100.0000
20
22.0000
11
100.0000
21
12.0000
0
CIRCLE
8
CUT
10
150.0000
20
40.0000
40
3.0000
0
LINE
8
CUT
10
15.0000
20
225.0000
11
35.0000
21
225.0000
0
LINE
8
CUT
10
35.0000
20
225.0000
11
35.0000
21
229.0000
0
LINE
8
CUT
10
35.0000
20
229.0000
11
15.0000
21
229.0000
0
LINE
8
CUT
10
15.0000
20
229.0000
11
15.0000
21
225.0000
0
LINE
8
CUT
10
45.0000
20
225.0000
11
65.0000
21
225.0000
0
LINE
8
CUT
10
65.0000
20
225.0000
11
65.0000
21
229.0000
0
LINE
8
CUT
10
65.0000
20
229.0000
11
45.0000
21
229.0000
0
LINE
8
CUT
10
45.0000
20
229.0000
11
45.0000
21
225.0000
0
LINE
8
CUT
10
75.0000
20
225.0000
11
95.0000
21
225.0000
0
LINE
8
CUT
10
95.0000
20
225.0000
11
95.0000
21
229.0000
0
LINE
8
CUT
10
95.0000
20
229.0000
11
75.0000
21
229.0000
0
LINE
8
CUT
10
75.0000
20
229.0000
11
75.0000
21
225.0000
0
LINE
8
CUT
10
105.0000
20
225.0000
11
125.0000
21
225.0000
0
LINE
8
CUT
10
125.0000
20
225.0000
11
125.0000
21
229.0000
0
LINE
8
CUT
10
125.0000
20
229.0000
11
105.0000
21
229.0000
0
LINE
8
CUT
10
105.0000
20
229.0000
11
105.0000
21
225.0000
0
LINE
8
CUT
10
135.0000
20
225.0000
11
155.0000
21
225.0000
0
LINE
8
CUT
10
155.0000
20
225.0000
11
155.0000
21
229.0000
0
LINE
8
CUT
10
155.0000
20
229.0000
11
135.0000
21
229.0000
0
LINE
8
CUT
10
135.0000
20
229.0000
11
135.0000
21
225.0000
0
LINE
8
CUT
10
165.0000
20
225.0000
11
185.0000
21
225.0000
0
LINE
8
CUT
10
185.0000
20
225.0000
11
185.0000
21
229.0000
0
LINE
8
CUT
10
185.0000
20
229.0000
11
165.0000
21
229.0000
0
LINE
8
CUT
10
165.0000
20
229.0000
11
165.0000
21
225.0000
0
LINE
8
CUT
10
125.0000
20
60.0000
11
145.0000
21
60.0000
0
LINE
8
CUT
10
145.0000
20
60.0000
11
145.0000
21
64.0000
0
LINE
8
CUT
10
145.0000
20
64.0000
11
125.0000
21
64.0000
0
LINE
8
CUT
10
125.0000
20
64.0000
11
125.0000
21
60.0000
0
LINE
8
CUT
10
155.0000
20
60.0000
11
175.0000
21
60.0000
0
LINE
8
CUT
10
175.0000
20
60.0000
11
175.0000
21
64.0000
0
LINE
8
CUT
10
175.0000
20
64.0000
11
155.0000
21
64.0000
0
LINE
8
CUT
10
155.0000
20
64.0000
11
155.0000
21
60.0000
0
ENDSEC
0
EOF
