0
SECTION
2
HEADER
9
$INSUNITS
70
4
0
ENDSEC
0
SECTION
2
ENTITIES
0
LINE
8
CUT
10
0.0000
20
0.0000
11
56.0000
21
0.0000
0
LINE
8
CUT
10
56.0000
20
0.0000
11
56.0000
21
70.0000
0
LINE
8
CUT
10
56.0000
20
70.0000
11
50.0000
21
70.0000
0
LINE
8
CUT
10
50.0000
20
70.0000
11
50.0000
21
73.0000
0
LINE
8
CUT
10
50.0000
20
73.0000
11
40.0000
21
73.0000
0
LINE
8
CUT
10
40.0000
20
73.0000
11
40.0000
21
70.0000
0
LINE
8
CUT
10
40.0000
20
70.0000
11
16.0000
21
70.0000
0
LINE
8
CUT
10
16.0000
20
70.0000
11
16.0000
21
73.0000
0
LINE
8
CUT
10
16.0000
20
73.0000
11
6.0000
21
73.0000
0
LINE
8
CUT
10
6.0000
20
73.0000
11
6.0000
21
70.0000
0
LINE
8
CUT
10
6.0000
20
70.0000
11
0.0000
21
70.0000
0
LINE
8
CUT
10
0.0000
20
70.0000
11
0.0000
21
0.0000
0
CIRCLE
8
CUT
10
28.0000
20
30.0000
40
19.0000
0
CIRCLE
8
CUT
10
12.0000
20
14.0000
40
1.7000
0
CIRCLE
8
CUT
10
12.0000
20
46.0000
40
1.7000
0
CIRCLE
8
CUT
10
44.0000
20
14.0000
40
1.7000
0
CIRCLE
8
CUT
10
44.0000
20
46.0000
40
1.7000
0
ENDSEC
0
EOF
