0
SECTION
2
HEADER
9
$INSUNITS
70
4
0
ENDSEC
0
SECTION
2
ENTITIES
0
LINE
8
CUT
10
0.0000
20
0.0000
11
114.5000
21
0.0000
0
LINE
8
CUT
10
114.5000
20
0.0000
11
114.5000
21
206.0000
0
LINE
8
CUT
10
114.5000
20
206.0000
11
0.0000
21
206.0000
0
LINE
8
CUT
10
0.0000
20
206.0000
11
0.0000
21
0.0000
0
LINE
8
CUT
10
20.0000
20
40.0000
11
26.0000
21
40.0000
0
LINE
8
CUT
10
26.0000
20
40.0000
11
26.0000
21
166.0000
0
LINE
8
CUT
10
26.0000
20
166.0000
11
20.0000
21
166.0000
0
LINE
8
CUT
10
20.0000
20
166.0000
11
20.0000
21
40.0000
0
LINE
8
CUT
10
34.0000
20
40.0000
11
40.0000
21
40.0000
0
LINE
8
CUT
10
40.0000
20
40.0000
11
40.0000
21
166.0000
0
LINE
8
CUT
10
40.0000
20
166.0000
11
34.0000
21
166.0000
0
LINE
8
CUT
10
34.0000
20
166.0000
11
34.0000
21
40.0000
0
LINE
8
CUT
10
48.0000
20
40.0000
11
54.0000
21
40.0000
0
LINE
8
CUT
10
54.0000
20
40.0000
11
54.0000
21
166.0000
0
LINE
8
CUT
10
54.0000
20
166.0000
11
48.0000
21
166.0000
0
LINE
8
CUT
10
48.0000
20
166.0000
11
48.0000
21
40.0000
0
LINE
8
CUT
10
62.0000
20
40.0000
11
68.0000
21
40.0000
0
LINE
8
CUT
10
68.0000
20
40.0000
11
68.0000
21
166.0000
0
LINE
8
CUT
10
68.0000
20
166.0000
11
62.0000
21
166.0000
0
LINE
8
CUT
10
62.0000
20
166.0000
11
62.0000
21
40.0000
0
LINE
8
CUT
10
76.0000
20
40.0000
11
82.0000
21
40.0000
0
LINE
8
CUT
10
82.0000
20
40.0000
11
82.0000
21
166.0000
0
LINE
8
CUT
10
82.0000
20
166.0000
11
76.0000
21
166.0000
0
LINE
8
CUT
10
76.0000
20
166.0000
11
76.0000
21
40.0000
0
ENDSEC
0
EOF
