0
SECTION
2
HEADER
9
$INSUNITS
70
4
0
ENDSEC
0
SECTION
2
ENTITIES
0
LINE
8
CUT
10
0.0000
20
0.0000
11
323.0000
21
0.0000
0
LINE
8
CUT
10
323.0000
20
0.0000
11
323.0000
21
206.0000
0
LINE
8
CUT
10
323.0000
20
206.0000
11
0.0000
21
206.0000
0
LINE
8
CUT
10
0.0000
20
206.0000
11
0.0000
21
0.0000
0
LINE
8
CUT
10
18.0000
20
45.0000
11
24.0000
21
45.0000
0
LINE
8
CUT
10
24.0000
20
45.0000
11
24.0000
21
161.0000
0
LINE
8
CUT
10
24.0000
20
161.0000
11
18.0000
21
161.0000
0
LINE
8
CUT
10
18.0000
20
161.0000
11
18.0000
21
45.0000
0
LINE
8
CUT
10
32.0000
20
45.0000
11
38.0000
21
45.0000
0
LINE
8
CUT
10
38.0000
20
45.0000
11
38.0000
21
161.0000
0
LINE
8
CUT
10
38.0000
20
161.0000
11
32.0000
21
161.0000
0
LINE
8
CUT
10
32.0000
20
161.0000
11
32.0000
21
45.0000
0
LINE
8
CUT
10
46.0000
20
45.0000
11
52.0000
21
45.0000
0
LINE
8
CUT
10
52.0000
20
45.0000
11
52.0000
21
161.0000
0
LINE
8
CUT
10
52.0000
20
161.0000
11
46.0000
21
161.0000
0
LINE
8
CUT
10
46.0000
20
161.0000
11
46.0000
21
45.0000
0
LINE
8
CUT
10
60.0000
20
45.0000
11
66.0000
21
45.0000
0
LINE
8
CUT
10
66.0000
20
45.0000
11
66.0000
21
161.0000
0
LINE
8
CUT
10
66.0000
20
161.0000
11
60.0000
21
161.0000
0
LINE
8
CUT
10
60.0000
20
161.0000
11
60.0000
21
45.0000
0
LINE
8
CUT
10
95.0000
20
81.0000
11
98.0000
21
81.0000
0
LINE
8
CUT
10
98.0000
20
81.0000
11
98.0000
21
91.0000
0
LINE
8
CUT
10
98.0000
20
91.0000
11
95.0000
21
91.0000
0
LINE
8
CUT
10
95.0000
20
91.0000
11
95.0000
21
81.0000
0
LINE
8
CUT
10
95.0000
20
115.0000
11
98.0000
21
115.0000
0
LINE
8
CUT
10
98.0000
20
115.0000
11
98.0000
21
125.0000
0
LINE
8
CUT
10
98.0000
20
125.0000
11
95.0000
21
125.0000
0
LINE
8
CUT
10
95.0000
20
125.0000
11
95.0000
21
115.0000
0
CIRCLE
8
CUT
10
115.0000
20
181.0000
40
3.0000
0
CIRCLE
8
CUT
10
263.0000
20
103.0000
40
12.5000
0
ENDSEC
0
EOF
