0
SECTION
2
HEADER
9
$INSUNITS
70
4
0
ENDSEC
0
SECTION
2
ENTITIES
0
LINE
8
CUT
10
0.0000
20
0.0000
11
94.5000
21
0.0000
0
LINE
8
CUT
10
94.5000
20
0.0000
11
94.5000
21
206.0000
0
LINE
8
CUT
10
94.5000
20
206.0000
11
0.0000
21
206.0000
0
LINE
8
CUT
10
0.0000
20
206.0000
11
0.0000
21
120.0000
0
LINE
8
CUT
10
0.0000
20
120.0000
11
6.0000
21
120.0000
0
LINE
8
CUT
10
6.0000
20
120.0000
11
6.0000
21
86.0000
0
LINE
8
CUT
10
6.0000
20
86.0000
11
0.0000
21
86.0000
0
LINE
8
CUT
10
0.0000
20
86.0000
11
0.0000
21
0.0000
0
CIRCLE
8
CUT
10
57.2500
20
103.0000
40
10.0000
0
ENDSEC
0
EOF
