solid OpenSCAD_Model
  facet normal -1 0 0
    outer loop
      vertex 0 6.8 0
      vertex 0 5.8 8
      vertex 0 6.8 8
    endloop
  endfacet
  facet normal -1 0 0
    outer loop
      vertex 0 6.8 0
      vertex 0 2.4 8
      vertex 0 5.8 8
    endloop
  endfacet
  facet normal -1 0 0
    outer loop
      vertex 0 0 0
      vertex 0 2.4 8
      vertex 0 6.8 0
    endloop
  endfacet
  facet normal -1 0 0
    outer loop
      vertex 0 0 14
      vertex 0 2.4 8
      vertex 0 0 0
    endloop
  endfacet
  facet normal -1 0 0
    outer loop
      vertex 0 2.4 8
      vertex 0 0 14
      vertex 0 2.4 14
    endloop
  endfacet
  facet normal -1 0 0
    outer loop
      vertex 0 11.2 8
      vertex 0 14.8 0
      vertex 0 11.2 0
    endloop
  endfacet
  facet normal -1 0 0
    outer loop
      vertex 0 14.8 0
      vertex 0 11.2 8
      vertex 0 14.8 14
    endloop
  endfacet
  facet normal -1 0 0
    outer loop
      vertex 0 5.8 14
      vertex 0 11.2 8
      vertex 0 6.8 8
    endloop
  endfacet
  facet normal -1 0 0
    outer loop
      vertex 0 5.8 14
      vertex 0 6.8 8
      vertex 0 5.8 8
    endloop
  endfacet
  facet normal -1 0 0
    outer loop
      vertex 0 11.2 8
      vertex 0 5.8 14
      vertex 0 14.8 14
    endloop
  endfacet
  facet normal -0 0 1
    outer loop
      vertex 0 2.4 14
      vertex 120 0 14
      vertex 120 2.4 14
    endloop
  endfacet
  facet normal 0 0 1
    outer loop
      vertex 120 0 14
      vertex 0 2.4 14
      vertex 0 0 14
    endloop
  endfacet
  facet normal -0 0 1
    outer loop
      vertex 0 14.8 14
      vertex 120 5.8 14
      vertex 120 14.8 14
    endloop
  endfacet
  facet normal 0 0 1
    outer loop
      vertex 120 5.8 14
      vertex 0 14.8 14
      vertex 0 5.8 14
    endloop
  endfacet
  facet normal 1 0 0
    outer loop
      vertex 120 2.4 14
      vertex 120 0 14
      vertex 120 2.4 8
    endloop
  endfacet
  facet normal 1 0 0
    outer loop
      vertex 120 14.8 14
      vertex 120 11.2 8
      vertex 120 14.8 0
    endloop
  endfacet
  facet normal 1 -0 0
    outer loop
      vertex 120 5.8 14
      vertex 120 11.2 8
      vertex 120 14.8 14
    endloop
  endfacet
  facet normal 1 0 0
    outer loop
      vertex 120 11.2 8
      vertex 120 5.8 14
      vertex 120 6.8 8
    endloop
  endfacet
  facet normal 1 0 0
    outer loop
      vertex 120 5.8 8
      vertex 120 6.8 8
      vertex 120 5.8 14
    endloop
  endfacet
  facet normal 1 0 0
    outer loop
      vertex 120 6.8 8
      vertex 120 5.8 8
      vertex 120 6.8 0
    endloop
  endfacet
  facet normal 1 -0 0
    outer loop
      vertex 120 2.4 8
      vertex 120 6.8 0
      vertex 120 5.8 8
    endloop
  endfacet
  facet normal 1 0 0
    outer loop
      vertex 120 2.4 8
      vertex 120 0 0
      vertex 120 6.8 0
    endloop
  endfacet
  facet normal 1 0 0
    outer loop
      vertex 120 0 0
      vertex 120 2.4 8
      vertex 120 0 14
    endloop
  endfacet
  facet normal 1 0 0
    outer loop
      vertex 120 14.8 0
      vertex 120 11.2 8
      vertex 120 11.2 0
    endloop
  endfacet
  facet normal 0 0 -1
    outer loop
      vertex 0 0 0
      vertex 120 6.8 0
      vertex 120 0 0
    endloop
  endfacet
  facet normal -0 0 -1
    outer loop
      vertex 120 6.8 0
      vertex 0 0 0
      vertex 0 6.8 0
    endloop
  endfacet
  facet normal 0 0 -1
    outer loop
      vertex 0 11.2 0
      vertex 120 14.8 0
      vertex 120 11.2 0
    endloop
  endfacet
  facet normal -0 0 -1
    outer loop
      vertex 120 14.8 0
      vertex 0 11.2 0
      vertex 0 14.8 0
    endloop
  endfacet
  facet normal 0 -1 0
    outer loop
      vertex 0 0 0
      vertex 120 0 14
      vertex 0 0 14
    endloop
  endfacet
  facet normal 0 -1 -0
    outer loop
      vertex 120 0 14
      vertex 0 0 0
      vertex 120 0 0
    endloop
  endfacet
  facet normal 0 1 -0
    outer loop
      vertex 120 14.8 0
      vertex 0 14.8 14
      vertex 120 14.8 14
    endloop
  endfacet
  facet normal 0 1 0
    outer loop
      vertex 0 14.8 14
      vertex 120 14.8 0
      vertex 0 14.8 0
    endloop
  endfacet
  facet normal 0 -1 0
    outer loop
      vertex 0 5.8 8
      vertex 120 5.8 14
      vertex 0 5.8 14
    endloop
  endfacet
  facet normal 0 -1 -0
    outer loop
      vertex 120 5.8 14
      vertex 0 5.8 8
      vertex 120 5.8 8
    endloop
  endfacet
  facet normal -0 0 1
    outer loop
      vertex 0 5.8 8
      vertex 120 2.4 8
      vertex 120 5.8 8
    endloop
  endfacet
  facet normal 0 0 1
    outer loop
      vertex 120 2.4 8
      vertex 0 5.8 8
      vertex 0 2.4 8
    endloop
  endfacet
  facet normal 0 1 -0
    outer loop
      vertex 120 2.4 8
      vertex 0 2.4 14
      vertex 120 2.4 14
    endloop
  endfacet
  facet normal 0 1 0
    outer loop
      vertex 0 2.4 14
      vertex 120 2.4 8
      vertex 0 2.4 8
    endloop
  endfacet
  facet normal 0 0 -1
    outer loop
      vertex 0 6.8 8
      vertex 120 11.2 8
      vertex 120 6.8 8
    endloop
  endfacet
  facet normal -0 0 -1
    outer loop
      vertex 120 11.2 8
      vertex 0 6.8 8
      vertex 0 11.2 8
    endloop
  endfacet
  facet normal 0 -1 0
    outer loop
      vertex 0 11.2 0
      vertex 120 11.2 8
      vertex 0 11.2 8
    endloop
  endfacet
  facet normal 0 -1 -0
    outer loop
      vertex 120 11.2 8
      vertex 0 11.2 0
      vertex 120 11.2 0
    endloop
  endfacet
  facet normal 0 1 -0
    outer loop
      vertex 120 6.8 0
      vertex 0 6.8 8
      vertex 120 6.8 8
    endloop
  endfacet
  facet normal 0 1 0
    outer loop
      vertex 0 6.8 8
      vertex 120 6.8 0
      vertex 0 6.8 0
    endloop
  endfacet
endsolid OpenSCAD_Model
