solid OpenSCAD_Model
  facet normal 0.555573 0.831468 -0
    outer loop
      vertex 11.5665 15.0737 0
      vertex 9.5 16.4545 8
      vertex 11.5665 15.0737 8
    endloop
  endfacet
  facet normal 0.555573 0.831468 0
    outer loop
      vertex 9.5 16.4545 8
      vertex 11.5665 15.0737 0
      vertex 9.5 16.4545 0
    endloop
  endfacet
  facet normal -0.321447 -0.946927 0
    outer loop
      vertex -7.27098 -17.5537 0
      vertex -4.91756 -18.3526 8
      vertex -7.27098 -17.5537 8
    endloop
  endfacet
  facet normal -0.321447 -0.946927 -0
    outer loop
      vertex -4.91756 -18.3526 8
      vertex -7.27098 -17.5537 0
      vertex -4.91756 -18.3526 0
    endloop
  endfacet
  facet normal -0.321447 0.946927 0
    outer loop
      vertex -4.91756 18.3526 0
      vertex -7.27098 17.5537 8
      vertex -4.91756 18.3526 8
    endloop
  endfacet
  facet normal -0.321447 0.946927 0
    outer loop
      vertex -7.27098 17.5537 8
      vertex -4.91756 18.3526 0
      vertex -7.27098 17.5537 0
    endloop
  endfacet
  facet normal -0.896878 0.442279 0
    outer loop
      vertex -17.5537 7.27098 0
      vertex -16.4545 9.5 8
      vertex -16.4545 9.5 0
    endloop
  endfacet
  facet normal -0.896878 0.442279 0
    outer loop
      vertex -16.4545 9.5 8
      vertex -17.5537 7.27098 0
      vertex -17.5537 7.27098 8
    endloop
  endfacet
  facet normal 0.896878 0.442279 0
    outer loop
      vertex 17.5537 7.27098 8
      vertex 16.4545 9.5 0
      vertex 16.4545 9.5 8
    endloop
  endfacet
  facet normal 0.896878 0.442279 0
    outer loop
      vertex 16.4545 9.5 0
      vertex 17.5537 7.27098 8
      vertex 17.5537 7.27098 0
    endloop
  endfacet
  facet normal 0.980782 0.195105 0
    outer loop
      vertex 18.8375 2.48 8
      vertex 18.3526 4.91756 0
      vertex 18.3526 4.91756 8
    endloop
  endfacet
  facet normal 0.980782 0.195105 0
    outer loop
      vertex 18.3526 4.91756 0
      vertex 18.8375 2.48 8
      vertex 18.8375 2.48 0
    endloop
  endfacet
  facet normal 0.831468 0.555573 0
    outer loop
      vertex 16.4545 9.5 8
      vertex 15.0737 11.5665 0
      vertex 15.0737 11.5665 8
    endloop
  endfacet
  facet normal 0.831468 0.555573 0
    outer loop
      vertex 15.0737 11.5665 0
      vertex 16.4545 9.5 8
      vertex 16.4545 9.5 0
    endloop
  endfacet
  facet normal 0.321447 0.946927 -0
    outer loop
      vertex 7.27098 17.5537 0
      vertex 4.91756 18.3526 8
      vertex 7.27098 17.5537 8
    endloop
  endfacet
  facet normal 0.321447 0.946927 0
    outer loop
      vertex 4.91756 18.3526 8
      vertex 7.27098 17.5537 0
      vertex 4.91756 18.3526 0
    endloop
  endfacet
  facet normal 0.065384 0.99786 -0
    outer loop
      vertex 2.48 18.8375 0
      vertex 0 19 8
      vertex 2.48 18.8375 8
    endloop
  endfacet
  facet normal 0.065384 0.99786 0
    outer loop
      vertex 0 19 8
      vertex 2.48 18.8375 0
      vertex 0 19 0
    endloop
  endfacet
  facet normal -0.980782 0.195105 0
    outer loop
      vertex -18.8375 2.48 0
      vertex -18.3526 4.91756 8
      vertex -18.3526 4.91756 0
    endloop
  endfacet
  facet normal -0.980782 0.195105 0
    outer loop
      vertex -18.3526 4.91756 8
      vertex -18.8375 2.48 0
      vertex -18.8375 2.48 8
    endloop
  endfacet
  facet normal -0.751826 0.659362 0
    outer loop
      vertex -15.0737 11.5665 0
      vertex -13.435 13.435 8
      vertex -13.435 13.435 0
    endloop
  endfacet
  facet normal -0.751826 0.659362 0
    outer loop
      vertex -13.435 13.435 8
      vertex -15.0737 11.5665 0
      vertex -15.0737 11.5665 8
    endloop
  endfacet
  facet normal -0.195105 0.980782 0
    outer loop
      vertex -2.48 18.8375 0
      vertex -4.91756 18.3526 8
      vertex -2.48 18.8375 8
    endloop
  endfacet
  facet normal -0.195105 0.980782 0
    outer loop
      vertex -4.91756 18.3526 8
      vertex -2.48 18.8375 0
      vertex -4.91756 18.3526 0
    endloop
  endfacet
  facet normal -0.659362 0.751826 0
    outer loop
      vertex -11.5665 15.0737 0
      vertex -13.435 13.435 8
      vertex -11.5665 15.0737 8
    endloop
  endfacet
  facet normal -0.659362 0.751826 0
    outer loop
      vertex -13.435 13.435 8
      vertex -11.5665 15.0737 0
      vertex -13.435 13.435 0
    endloop
  endfacet
  facet normal 0.99786 0.065384 0
    outer loop
      vertex 19 0 8
      vertex 18.8375 2.48 0
      vertex 18.8375 2.48 8
    endloop
  endfacet
  facet normal 0.99786 0.065384 0
    outer loop
      vertex 18.8375 2.48 0
      vertex 19 0 8
      vertex 19 0 0
    endloop
  endfacet
  facet normal 0.321447 -0.946927 0
    outer loop
      vertex 4.91756 -18.3526 0
      vertex 7.27098 -17.5537 8
      vertex 4.91756 -18.3526 8
    endloop
  endfacet
  facet normal 0.321447 -0.946927 0
    outer loop
      vertex 7.27098 -17.5537 8
      vertex 4.91756 -18.3526 0
      vertex 7.27098 -17.5537 0
    endloop
  endfacet
  facet normal 0.831468 -0.555573 0
    outer loop
      vertex 15.0737 -11.5665 8
      vertex 16.4545 -9.5 0
      vertex 16.4545 -9.5 8
    endloop
  endfacet
  facet normal 0.831468 -0.555573 0
    outer loop
      vertex 16.4545 -9.5 0
      vertex 15.0737 -11.5665 8
      vertex 15.0737 -11.5665 0
    endloop
  endfacet
  facet normal -0.195105 -0.980782 0
    outer loop
      vertex -4.91756 -18.3526 0
      vertex -2.48 -18.8375 8
      vertex -4.91756 -18.3526 8
    endloop
  endfacet
  facet normal -0.195105 -0.980782 -0
    outer loop
      vertex -2.48 -18.8375 8
      vertex -4.91756 -18.3526 0
      vertex -2.48 -18.8375 0
    endloop
  endfacet
  facet normal -0.659362 -0.751826 0
    outer loop
      vertex -13.435 -13.435 0
      vertex -11.5665 -15.0737 8
      vertex -13.435 -13.435 8
    endloop
  endfacet
  facet normal -0.659362 -0.751826 -0
    outer loop
      vertex -11.5665 -15.0737 8
      vertex -13.435 -13.435 0
      vertex -11.5665 -15.0737 0
    endloop
  endfacet
  facet normal 0 0 -1
    outer loop
      vertex 12.2 -1.2 0
      vertex 19 0 0
      vertex 18.8375 -2.48 0
    endloop
  endfacet
  facet normal 0 0 -1
    outer loop
      vertex 12.2 -1.2 0
      vertex 18.8375 -2.48 0
      vertex 18.3526 -4.91756 0
    endloop
  endfacet
  facet normal 0 0 -1
    outer loop
      vertex 12.2 1.2 0
      vertex 19 0 0
      vertex 12.2 -1.2 0
    endloop
  endfacet
  facet normal 0 0 -1
    outer loop
      vertex 12.2 -1.2 0
      vertex 18.3526 -4.91756 0
      vertex 17.5537 -7.27098 0
    endloop
  endfacet
  facet normal 0 0 -1
    outer loop
      vertex 19 0 0
      vertex 12.2 1.2 0
      vertex 18.8375 2.48 0
    endloop
  endfacet
  facet normal 0 0 -1
    outer loop
      vertex 9.2388 -3.82683 0
      vertex 17.5537 -7.27098 0
      vertex 16.4545 -9.5 0
    endloop
  endfacet
  facet normal -0 0 -1
    outer loop
      vertex 18.8375 2.48 0
      vertex 12.2 1.2 0
      vertex 18.3526 4.91756 0
    endloop
  endfacet
  facet normal 0 0 -1
    outer loop
      vertex 8.66025 -5 0
      vertex 16.4545 -9.5 0
      vertex 15.0737 -11.5665 0
    endloop
  endfacet
  facet normal -0 0 -1
    outer loop
      vertex 18.3526 4.91756 0
      vertex 12.2 1.2 0
      vertex 17.5537 7.27098 0
    endloop
  endfacet
  facet normal 0 0 -1
    outer loop
      vertex 7.93353 -6.08761 0
      vertex 15.0737 -11.5665 0
      vertex 13.435 -13.435 0
    endloop
  endfacet
  facet normal 0 0 -1
    outer loop
      vertex 9.2388 3.82683 0
      vertex 17.5537 7.27098 0
      vertex 12.2 1.2 0
    endloop
  endfacet
  facet normal -0 0 -1
    outer loop
      vertex 17.5537 7.27098 0
      vertex 9.2388 3.82683 0
      vertex 16.4545 9.5 0
    endloop
  endfacet
  facet normal 0 0 -1
    outer loop
      vertex 7.07107 -7.07107 0
      vertex 13.435 -13.435 0
      vertex 11.5665 -15.0737 0
    endloop
  endfacet
  facet normal 0 0 -1
    outer loop
      vertex 16.4545 -9.5 0
      vertex 8.66025 -5 0
      vertex 9.2388 -3.82683 0
    endloop
  endfacet
  facet normal -0 0 -1
    outer loop
      vertex 12.2 -1.2 0
      vertex 9.91445 -1.30526 0
      vertex 9.92135 -1.2 0
    endloop
  endfacet
  facet normal 0 0 -1
    outer loop
      vertex 12.2 -1.2 0
      vertex 9.65926 -2.58819 0
      vertex 9.91445 -1.30526 0
    endloop
  endfacet
  facet normal 0 0 -1
    outer loop
      vertex 6.08761 -7.93353 0
      vertex 11.5665 -15.0737 0
      vertex 9.5 -16.4545 0
    endloop
  endfacet
  facet normal 0 0 -1
    outer loop
      vertex 12.2 -1.2 0
      vertex 9.2388 -3.82683 0
      vertex 9.65926 -2.58819 0
    endloop
  endfacet
  facet normal 0 0 -1
    outer loop
      vertex 17.5537 -7.27098 0
      vertex 9.2388 -3.82683 0
      vertex 12.2 -1.2 0
    endloop
  endfacet
  facet normal 0 0 -1
    outer loop
      vertex 15.0737 -11.5665 0
      vertex 7.93353 -6.08761 0
      vertex 8.66025 -5 0
    endloop
  endfacet
  facet normal 0 0 -1
    outer loop
      vertex 5 -8.66025 0
      vertex 9.5 -16.4545 0
      vertex 7.27098 -17.5537 0
    endloop
  endfacet
  facet normal 0 0 -1
    outer loop
      vertex 13.435 -13.435 0
      vertex 7.07107 -7.07107 0
      vertex 7.93353 -6.08761 0
    endloop
  endfacet
  facet normal 0 0 -1
    outer loop
      vertex 11.5665 -15.0737 0
      vertex 6.08761 -7.93353 0
      vertex 7.07107 -7.07107 0
    endloop
  endfacet
  facet normal 0 0 -1
    outer loop
      vertex 9.5 -16.4545 0
      vertex 5 -8.66025 0
      vertex 6.08761 -7.93353 0
    endloop
  endfacet
  facet normal 0 0 -1
    outer loop
      vertex 3.82683 -9.2388 0
      vertex 7.27098 -17.5537 0
      vertex 4.91756 -18.3526 0
    endloop
  endfacet
  facet normal 0 0 -1
    outer loop
      vertex 7.27098 -17.5537 0
      vertex 3.82683 -9.2388 0
      vertex 5 -8.66025 0
    endloop
  endfacet
  facet normal 0 0 -1
    outer loop
      vertex 4.91756 -18.3526 0
      vertex 2.58819 -9.65926 0
      vertex 3.82683 -9.2388 0
    endloop
  endfacet
  facet normal 0 0 -1
    outer loop
      vertex 2.48 -18.8375 0
      vertex 2.58819 -9.65926 0
      vertex 4.91756 -18.3526 0
    endloop
  endfacet
  facet normal 0 0 -1
    outer loop
      vertex 2.48 -18.8375 0
      vertex 1.30526 -9.91445 0
      vertex 2.58819 -9.65926 0
    endloop
  endfacet
  facet normal 0 0 -1
    outer loop
      vertex 0 -19 0
      vertex 1.30526 -9.91445 0
      vertex 2.48 -18.8375 0
    endloop
  endfacet
  facet normal 0 0 -1
    outer loop
      vertex 0 -19 0
      vertex 0 -10 0
      vertex 1.30526 -9.91445 0
    endloop
  endfacet
  facet normal 0 0 -1
    outer loop
      vertex 0 -19 0
      vertex -1.30526 -9.91445 0
      vertex 0 -10 0
    endloop
  endfacet
  facet normal 0 0 -1
    outer loop
      vertex -2.48 -18.8375 0
      vertex -1.30526 -9.91445 0
      vertex 0 -19 0
    endloop
  endfacet
  facet normal 0 0 -1
    outer loop
      vertex -2.48 -18.8375 0
      vertex -2.58819 -9.65926 0
      vertex -1.30526 -9.91445 0
    endloop
  endfacet
  facet normal 0 0 -1
    outer loop
      vertex -4.91756 -18.3526 0
      vertex -2.58819 -9.65926 0
      vertex -2.48 -18.8375 0
    endloop
  endfacet
  facet normal -0 0 -1
    outer loop
      vertex -2.58819 -9.65926 0
      vertex -4.91756 -18.3526 0
      vertex -3.82683 -9.2388 0
    endloop
  endfacet
  facet normal 0 0 -1
    outer loop
      vertex -7.27098 -17.5537 0
      vertex -3.82683 -9.2388 0
      vertex -4.91756 -18.3526 0
    endloop
  endfacet
  facet normal -0 0 -1
    outer loop
      vertex -3.82683 -9.2388 0
      vertex -7.27098 -17.5537 0
      vertex -5 -8.66025 0
    endloop
  endfacet
  facet normal 0 0 -1
    outer loop
      vertex -9.5 -16.4545 0
      vertex -5 -8.66025 0
      vertex -7.27098 -17.5537 0
    endloop
  endfacet
  facet normal -0 0 -1
    outer loop
      vertex -5 -8.66025 0
      vertex -9.5 -16.4545 0
      vertex -6.08761 -7.93353 0
    endloop
  endfacet
  facet normal 0 0 -1
    outer loop
      vertex -11.5665 -15.0737 0
      vertex -6.08761 -7.93353 0
      vertex -9.5 -16.4545 0
    endloop
  endfacet
  facet normal -0 0 -1
    outer loop
      vertex -6.08761 -7.93353 0
      vertex -11.5665 -15.0737 0
      vertex -7.07107 -7.07107 0
    endloop
  endfacet
  facet normal 0 0 -1
    outer loop
      vertex -13.435 -13.435 0
      vertex -7.07107 -7.07107 0
      vertex -11.5665 -15.0737 0
    endloop
  endfacet
  facet normal -0 0 -1
    outer loop
      vertex -7.07107 -7.07107 0
      vertex -13.435 -13.435 0
      vertex -7.93353 -6.08761 0
    endloop
  endfacet
  facet normal 0 0 -1
    outer loop
      vertex -15.0737 -11.5665 0
      vertex -7.93353 -6.08761 0
      vertex -13.435 -13.435 0
    endloop
  endfacet
  facet normal -0 0 -1
    outer loop
      vertex -7.93353 -6.08761 0
      vertex -15.0737 -11.5665 0
      vertex -8.66025 -5 0
    endloop
  endfacet
  facet normal 0 0 -1
    outer loop
      vertex -16.4545 -9.5 0
      vertex -8.66025 -5 0
      vertex -15.0737 -11.5665 0
    endloop
  endfacet
  facet normal -0 0 -1
    outer loop
      vertex -8.66025 -5 0
      vertex -16.4545 -9.5 0
      vertex -9.2388 -3.82683 0
    endloop
  endfacet
  facet normal 0 0 -1
    outer loop
      vertex -17.5537 -7.27098 0
      vertex -9.2388 -3.82683 0
      vertex -16.4545 -9.5 0
    endloop
  endfacet
  facet normal 0 0 -1
    outer loop
      vertex -9.65926 -2.58819 0
      vertex -12.2 -1.2 0
      vertex -9.91445 -1.30526 0
    endloop
  endfacet
  facet normal 0 -0 -1
    outer loop
      vertex -12.2 -1.2 0
      vertex -9.2388 -3.82683 0
      vertex -17.5537 -7.27098 0
    endloop
  endfacet
  facet normal 0 0 -1
    outer loop
      vertex 8.66025 5 0
      vertex 16.4545 9.5 0
      vertex 9.2388 3.82683 0
    endloop
  endfacet
  facet normal -0 0 -1
    outer loop
      vertex 16.4545 9.5 0
      vertex 8.66025 5 0
      vertex 15.0737 11.5665 0
    endloop
  endfacet
  facet normal 0 0 -1
    outer loop
      vertex 9.91445 1.30526 0
      vertex 12.2 1.2 0
      vertex 9.92135 1.2 0
    endloop
  endfacet
  facet normal 0 0 -1
    outer loop
      vertex 9.65926 2.58819 0
      vertex 12.2 1.2 0
      vertex 9.91445 1.30526 0
    endloop
  endfacet
  facet normal 0 0 -1
    outer loop
      vertex 9.2388 3.82683 0
      vertex 12.2 1.2 0
      vertex 9.65926 2.58819 0
    endloop
  endfacet
  facet normal 0 0 -1
    outer loop
      vertex 7.93353 6.08761 0
      vertex 15.0737 11.5665 0
      vertex 8.66025 5 0
    endloop
  endfacet
  facet normal -0 0 -1
    outer loop
      vertex 15.0737 11.5665 0
      vertex 7.93353 6.08761 0
      vertex 13.435 13.435 0
    endloop
  endfacet
  facet normal 0 0 -1
    outer loop
      vertex 7.07107 7.07107 0
      vertex 13.435 13.435 0
      vertex 7.93353 6.08761 0
    endloop
  endfacet
  facet normal -0 0 -1
    outer loop
      vertex 13.435 13.435 0
      vertex 7.07107 7.07107 0
      vertex 11.5665 15.0737 0
    endloop
  endfacet
  facet normal 0 0 -1
    outer loop
      vertex 6.08761 7.93353 0
      vertex 11.5665 15.0737 0
      vertex 7.07107 7.07107 0
    endloop
  endfacet
  facet normal -0 0 -1
    outer loop
      vertex 11.5665 15.0737 0
      vertex 6.08761 7.93353 0
      vertex 9.5 16.4545 0
    endloop
  endfacet
  facet normal 0 0 -1
    outer loop
      vertex 5 8.66025 0
      vertex 9.5 16.4545 0
      vertex 6.08761 7.93353 0
    endloop
  endfacet
  facet normal -0 0 -1
    outer loop
      vertex 9.5 16.4545 0
      vertex 5 8.66025 0
      vertex 7.27098 17.5537 0
    endloop
  endfacet
  facet normal 0 0 -1
    outer loop
      vertex 3.82683 9.2388 0
      vertex 7.27098 17.5537 0
      vertex 5 8.66025 0
    endloop
  endfacet
  facet normal -0 0 -1
    outer loop
      vertex 7.27098 17.5537 0
      vertex 3.82683 9.2388 0
      vertex 4.91756 18.3526 0
    endloop
  endfacet
  facet normal 0 0 -1
    outer loop
      vertex 2.58819 9.65926 0
      vertex 4.91756 18.3526 0
      vertex 3.82683 9.2388 0
    endloop
  endfacet
  facet normal 0 0 -1
    outer loop
      vertex 2.58819 9.65926 0
      vertex 2.48 18.8375 0
      vertex 4.91756 18.3526 0
    endloop
  endfacet
  facet normal 0 0 -1
    outer loop
      vertex 1.30526 9.91445 0
      vertex 2.48 18.8375 0
      vertex 2.58819 9.65926 0
    endloop
  endfacet
  facet normal 0 0 -1
    outer loop
      vertex 0 10 0
      vertex 2.48 18.8375 0
      vertex 1.30526 9.91445 0
    endloop
  endfacet
  facet normal 0 0 -1
    outer loop
      vertex 0 10 0
      vertex 0 19 0
      vertex 2.48 18.8375 0
    endloop
  endfacet
  facet normal 0 0 -1
    outer loop
      vertex -1.30526 9.91445 0
      vertex 0 19 0
      vertex 0 10 0
    endloop
  endfacet
  facet normal 0 0 -1
    outer loop
      vertex -1.30526 9.91445 0
      vertex -2.48 18.8375 0
      vertex 0 19 0
    endloop
  endfacet
  facet normal 0 0 -1
    outer loop
      vertex -2.58819 9.65926 0
      vertex -2.48 18.8375 0
      vertex -1.30526 9.91445 0
    endloop
  endfacet
  facet normal 0 0 -1
    outer loop
      vertex -4.91756 18.3526 0
      vertex -2.58819 9.65926 0
      vertex -3.82683 9.2388 0
    endloop
  endfacet
  facet normal 0 0 -1
    outer loop
      vertex -2.58819 9.65926 0
      vertex -4.91756 18.3526 0
      vertex -2.48 18.8375 0
    endloop
  endfacet
  facet normal 0 0 -1
    outer loop
      vertex -7.27098 17.5537 0
      vertex -3.82683 9.2388 0
      vertex -5 8.66025 0
    endloop
  endfacet
  facet normal 0 0 -1
    outer loop
      vertex -9.5 16.4545 0
      vertex -5 8.66025 0
      vertex -6.08761 7.93353 0
    endloop
  endfacet
  facet normal 0 0 -1
    outer loop
      vertex -11.5665 15.0737 0
      vertex -6.08761 7.93353 0
      vertex -7.07107 7.07107 0
    endloop
  endfacet
  facet normal 0 0 -1
    outer loop
      vertex -3.82683 9.2388 0
      vertex -7.27098 17.5537 0
      vertex -4.91756 18.3526 0
    endloop
  endfacet
  facet normal 0 0 -1
    outer loop
      vertex -13.435 13.435 0
      vertex -7.07107 7.07107 0
      vertex -7.93353 6.08761 0
    endloop
  endfacet
  facet normal 0 0 -1
    outer loop
      vertex -15.0737 11.5665 0
      vertex -7.93353 6.08761 0
      vertex -8.66025 5 0
    endloop
  endfacet
  facet normal 0 0 -1
    outer loop
      vertex -16.4545 9.5 0
      vertex -8.66025 5 0
      vertex -9.2388 3.82683 0
    endloop
  endfacet
  facet normal 0 0 -1
    outer loop
      vertex -5 8.66025 0
      vertex -9.5 16.4545 0
      vertex -7.27098 17.5537 0
    endloop
  endfacet
  facet normal 0 0 -1
    outer loop
      vertex -12.2 1.2 0
      vertex -9.2388 3.82683 0
      vertex -9.65926 2.58819 0
    endloop
  endfacet
  facet normal 0 0 -1
    outer loop
      vertex -12.2 1.2 0
      vertex -9.65926 2.58819 0
      vertex -9.91445 1.30526 0
    endloop
  endfacet
  facet normal 0 0 -1
    outer loop
      vertex -12.2 1.2 0
      vertex -9.91445 1.30526 0
      vertex -9.92135 1.2 0
    endloop
  endfacet
  facet normal 0 0 -1
    outer loop
      vertex -6.08761 7.93353 0
      vertex -11.5665 15.0737 0
      vertex -9.5 16.4545 0
    endloop
  endfacet
  facet normal -0 0 -1
    outer loop
      vertex -9.2388 3.82683 0
      vertex -12.2 1.2 0
      vertex -17.5537 7.27098 0
    endloop
  endfacet
  facet normal 0 0 -1
    outer loop
      vertex -9.91445 -1.30526 0
      vertex -12.2 -1.2 0
      vertex -9.92135 -1.2 0
    endloop
  endfacet
  facet normal 0 0 -1
    outer loop
      vertex -7.07107 7.07107 0
      vertex -13.435 13.435 0
      vertex -11.5665 15.0737 0
    endloop
  endfacet
  facet normal 0 0 -1
    outer loop
      vertex -9.2388 -3.82683 0
      vertex -12.2 -1.2 0
      vertex -9.65926 -2.58819 0
    endloop
  endfacet
  facet normal 0 0 -1
    outer loop
      vertex -7.93353 6.08761 0
      vertex -15.0737 11.5665 0
      vertex -13.435 13.435 0
    endloop
  endfacet
  facet normal 0 0 -1
    outer loop
      vertex -18.3526 -4.91756 0
      vertex -12.2 -1.2 0
      vertex -17.5537 -7.27098 0
    endloop
  endfacet
  facet normal 0 0 -1
    outer loop
      vertex -8.66025 5 0
      vertex -16.4545 9.5 0
      vertex -15.0737 11.5665 0
    endloop
  endfacet
  facet normal 0 0 -1
    outer loop
      vertex -18.8375 -2.48 0
      vertex -12.2 -1.2 0
      vertex -18.3526 -4.91756 0
    endloop
  endfacet
  facet normal 0 0 -1
    outer loop
      vertex -9.2388 3.82683 0
      vertex -17.5537 7.27098 0
      vertex -16.4545 9.5 0
    endloop
  endfacet
  facet normal 0 0 -1
    outer loop
      vertex -19 0 0
      vertex -12.2 -1.2 0
      vertex -18.8375 -2.48 0
    endloop
  endfacet
  facet normal 0 0 -1
    outer loop
      vertex -12.2 1.2 0
      vertex -18.3526 4.91756 0
      vertex -17.5537 7.27098 0
    endloop
  endfacet
  facet normal 0 0 -1
    outer loop
      vertex -12.2 -1.2 0
      vertex -19 0 0
      vertex -12.2 1.2 0
    endloop
  endfacet
  facet normal 0 0 -1
    outer loop
      vertex -12.2 1.2 0
      vertex -18.8375 2.48 0
      vertex -18.3526 4.91756 0
    endloop
  endfacet
  facet normal -0 0 -1
    outer loop
      vertex -12.2 1.2 0
      vertex -19 0 0
      vertex -18.8375 2.48 0
    endloop
  endfacet
  facet normal -0.751826 -0.659362 0
    outer loop
      vertex -13.435 -13.435 0
      vertex -15.0737 -11.5665 8
      vertex -15.0737 -11.5665 0
    endloop
  endfacet
  facet normal -0.751826 -0.659362 0
    outer loop
      vertex -15.0737 -11.5665 8
      vertex -13.435 -13.435 0
      vertex -13.435 -13.435 8
    endloop
  endfacet
  facet normal 0.946927 0.321447 0
    outer loop
      vertex 18.3526 4.91756 8
      vertex 17.5537 7.27098 0
      vertex 17.5537 7.27098 8
    endloop
  endfacet
  facet normal 0.946927 0.321447 0
    outer loop
      vertex 17.5537 7.27098 0
      vertex 18.3526 4.91756 8
      vertex 18.3526 4.91756 0
    endloop
  endfacet
  facet normal 0.751826 0.659362 0
    outer loop
      vertex 15.0737 11.5665 8
      vertex 13.435 13.435 0
      vertex 13.435 13.435 8
    endloop
  endfacet
  facet normal 0.751826 0.659362 0
    outer loop
      vertex 13.435 13.435 0
      vertex 15.0737 11.5665 8
      vertex 15.0737 11.5665 0
    endloop
  endfacet
  facet normal 0.659362 0.751826 -0
    outer loop
      vertex 13.435 13.435 0
      vertex 11.5665 15.0737 8
      vertex 13.435 13.435 8
    endloop
  endfacet
  facet normal 0.659362 0.751826 0
    outer loop
      vertex 11.5665 15.0737 8
      vertex 13.435 13.435 0
      vertex 11.5665 15.0737 0
    endloop
  endfacet
  facet normal 0.442279 0.896878 -0
    outer loop
      vertex 9.5 16.4545 0
      vertex 7.27098 17.5537 8
      vertex 9.5 16.4545 8
    endloop
  endfacet
  facet normal 0.442279 0.896878 0
    outer loop
      vertex 7.27098 17.5537 8
      vertex 9.5 16.4545 0
      vertex 7.27098 17.5537 0
    endloop
  endfacet
  facet normal 0.195105 0.980782 -0
    outer loop
      vertex 4.91756 18.3526 0
      vertex 2.48 18.8375 8
      vertex 4.91756 18.3526 8
    endloop
  endfacet
  facet normal 0.195105 0.980782 0
    outer loop
      vertex 2.48 18.8375 8
      vertex 4.91756 18.3526 0
      vertex 2.48 18.8375 0
    endloop
  endfacet
  facet normal -0.99786 0.065384 0
    outer loop
      vertex -19 0 0
      vertex -18.8375 2.48 8
      vertex -18.8375 2.48 0
    endloop
  endfacet
  facet normal -0.99786 0.065384 0
    outer loop
      vertex -18.8375 2.48 8
      vertex -19 0 0
      vertex -19 0 8
    endloop
  endfacet
  facet normal -0 0 1
    outer loop
      vertex 12.2 1.2 8
      vertex 19 0 8
      vertex 18.8375 2.48 8
    endloop
  endfacet
  facet normal 0 0 1
    outer loop
      vertex 12.2 1.2 8
      vertex 18.8375 2.48 8
      vertex 18.3526 4.91756 8
    endloop
  endfacet
  facet normal 0 0 1
    outer loop
      vertex 12.2 -1.2 8
      vertex 19 0 8
      vertex 12.2 1.2 8
    endloop
  endfacet
  facet normal 0 0 1
    outer loop
      vertex 12.2 1.2 8
      vertex 18.3526 4.91756 8
      vertex 17.5537 7.27098 8
    endloop
  endfacet
  facet normal 0 0 1
    outer loop
      vertex 19 0 8
      vertex 12.2 -1.2 8
      vertex 18.8375 -2.48 8
    endloop
  endfacet
  facet normal 0 0 1
    outer loop
      vertex 12.2 1.2 8
      vertex 17.5537 7.27098 8
      vertex 16.4545 9.5 8
    endloop
  endfacet
  facet normal 0 0 1
    outer loop
      vertex 18.8375 -2.48 8
      vertex 12.2 -1.2 8
      vertex 18.3526 -4.91756 8
    endloop
  endfacet
  facet normal 0 0 1
    outer loop
      vertex 12.2 1.2 8
      vertex 16.4545 9.5 8
      vertex 15.0737 11.5665 8
    endloop
  endfacet
  facet normal 0 0 1
    outer loop
      vertex 18.3526 -4.91756 8
      vertex 12.2 -1.2 8
      vertex 17.5537 -7.27098 8
    endloop
  endfacet
  facet normal 0 0 1
    outer loop
      vertex 12.2 1.2 8
      vertex 15.0737 11.5665 8
      vertex 13.435 13.435 8
    endloop
  endfacet
  facet normal 0 0 1
    outer loop
      vertex 17.5537 -7.27098 8
      vertex 12.2 -1.2 8
      vertex 16.4545 -9.5 8
    endloop
  endfacet
  facet normal 0 0 1
    outer loop
      vertex 16.4545 -9.5 8
      vertex 12.2 -1.2 8
      vertex 15.0737 -11.5665 8
    endloop
  endfacet
  facet normal 0 0 1
    outer loop
      vertex 11.5665 15.0737 8
      vertex 12.2 1.2 8
      vertex 13.435 13.435 8
    endloop
  endfacet
  facet normal 0 0 1
    outer loop
      vertex 9.5 16.4545 8
      vertex 12.2 1.2 8
      vertex 11.5665 15.0737 8
    endloop
  endfacet
  facet normal 0 0 1
    outer loop
      vertex 7.27098 17.5537 8
      vertex 12.2 1.2 8
      vertex 9.5 16.4545 8
    endloop
  endfacet
  facet normal 0 0 1
    outer loop
      vertex 4.91756 18.3526 8
      vertex 12.2 1.2 8
      vertex 7.27098 17.5537 8
    endloop
  endfacet
  facet normal 0 0 1
    outer loop
      vertex 2.48 18.8375 8
      vertex 12.2 1.2 8
      vertex 4.91756 18.3526 8
    endloop
  endfacet
  facet normal 0 0 1
    outer loop
      vertex 0 19 8
      vertex 12.2 1.2 8
      vertex 2.48 18.8375 8
    endloop
  endfacet
  facet normal 0 0 1
    outer loop
      vertex -12.2 1.2 8
      vertex 0 19 8
      vertex -2.48 18.8375 8
    endloop
  endfacet
  facet normal 0 0 1
    outer loop
      vertex -12.2 1.2 8
      vertex -2.48 18.8375 8
      vertex -4.91756 18.3526 8
    endloop
  endfacet
  facet normal 0 0 1
    outer loop
      vertex -12.2 1.2 8
      vertex -4.91756 18.3526 8
      vertex -7.27098 17.5537 8
    endloop
  endfacet
  facet normal 0 0 1
    outer loop
      vertex -12.2 1.2 8
      vertex -7.27098 17.5537 8
      vertex -9.5 16.4545 8
    endloop
  endfacet
  facet normal 0 0 1
    outer loop
      vertex -12.2 1.2 8
      vertex -9.5 16.4545 8
      vertex -11.5665 15.0737 8
    endloop
  endfacet
  facet normal 0 0 1
    outer loop
      vertex 0 19 8
      vertex -12.2 1.2 8
      vertex 12.2 1.2 8
    endloop
  endfacet
  facet normal -0 0 1
    outer loop
      vertex -15.0737 11.5665 8
      vertex -12.2 1.2 8
      vertex -13.435 13.435 8
    endloop
  endfacet
  facet normal -0 0 1
    outer loop
      vertex -13.435 13.435 8
      vertex -12.2 1.2 8
      vertex -11.5665 15.0737 8
    endloop
  endfacet
  facet normal 0 0 1
    outer loop
      vertex 15.0737 -11.5665 8
      vertex 12.2 -1.2 8
      vertex 13.435 -13.435 8
    endloop
  endfacet
  facet normal 0 0 1
    outer loop
      vertex 12.2 -1.2 8
      vertex 11.5665 -15.0737 8
      vertex 13.435 -13.435 8
    endloop
  endfacet
  facet normal 0 0 1
    outer loop
      vertex 12.2 -1.2 8
      vertex 9.5 -16.4545 8
      vertex 11.5665 -15.0737 8
    endloop
  endfacet
  facet normal 0 0 1
    outer loop
      vertex 12.2 -1.2 8
      vertex 7.27098 -17.5537 8
      vertex 9.5 -16.4545 8
    endloop
  endfacet
  facet normal 0 0 1
    outer loop
      vertex 12.2 -1.2 8
      vertex 4.91756 -18.3526 8
      vertex 7.27098 -17.5537 8
    endloop
  endfacet
  facet normal 0 0 1
    outer loop
      vertex 12.2 -1.2 8
      vertex 2.48 -18.8375 8
      vertex 4.91756 -18.3526 8
    endloop
  endfacet
  facet normal 0 0 1
    outer loop
      vertex 12.2 -1.2 8
      vertex 0 -19 8
      vertex 2.48 -18.8375 8
    endloop
  endfacet
  facet normal -0 0 1
    outer loop
      vertex -12.2 -1.2 8
      vertex 0 -19 8
      vertex 12.2 -1.2 8
    endloop
  endfacet
  facet normal 0 0 1
    outer loop
      vertex 0 -19 8
      vertex -12.2 -1.2 8
      vertex -2.48 -18.8375 8
    endloop
  endfacet
  facet normal 0 0 1
    outer loop
      vertex -2.48 -18.8375 8
      vertex -12.2 -1.2 8
      vertex -4.91756 -18.3526 8
    endloop
  endfacet
  facet normal 0 0 1
    outer loop
      vertex -4.91756 -18.3526 8
      vertex -12.2 -1.2 8
      vertex -7.27098 -17.5537 8
    endloop
  endfacet
  facet normal 0 0 1
    outer loop
      vertex -7.27098 -17.5537 8
      vertex -12.2 -1.2 8
      vertex -9.5 -16.4545 8
    endloop
  endfacet
  facet normal 0 0 1
    outer loop
      vertex -9.5 -16.4545 8
      vertex -12.2 -1.2 8
      vertex -11.5665 -15.0737 8
    endloop
  endfacet
  facet normal -0 0 1
    outer loop
      vertex -16.4545 9.5 8
      vertex -12.2 1.2 8
      vertex -15.0737 11.5665 8
    endloop
  endfacet
  facet normal 0 0 1
    outer loop
      vertex -12.2 -1.2 8
      vertex -13.435 -13.435 8
      vertex -11.5665 -15.0737 8
    endloop
  endfacet
  facet normal -0 0 1
    outer loop
      vertex -17.5537 7.27098 8
      vertex -12.2 1.2 8
      vertex -16.4545 9.5 8
    endloop
  endfacet
  facet normal 0 0 1
    outer loop
      vertex -12.2 -1.2 8
      vertex -15.0737 -11.5665 8
      vertex -13.435 -13.435 8
    endloop
  endfacet
  facet normal -0 0 1
    outer loop
      vertex -18.3526 4.91756 8
      vertex -12.2 1.2 8
      vertex -17.5537 7.27098 8
    endloop
  endfacet
  facet normal 0 0 1
    outer loop
      vertex -12.2 -1.2 8
      vertex -16.4545 -9.5 8
      vertex -15.0737 -11.5665 8
    endloop
  endfacet
  facet normal -0 0 1
    outer loop
      vertex -18.8375 2.48 8
      vertex -12.2 1.2 8
      vertex -18.3526 4.91756 8
    endloop
  endfacet
  facet normal 0 0 1
    outer loop
      vertex -12.2 -1.2 8
      vertex -17.5537 -7.27098 8
      vertex -16.4545 -9.5 8
    endloop
  endfacet
  facet normal 0 0 1
    outer loop
      vertex -19 0 8
      vertex -12.2 1.2 8
      vertex -18.8375 2.48 8
    endloop
  endfacet
  facet normal 0 0 1
    outer loop
      vertex -12.2 -1.2 8
      vertex -18.3526 -4.91756 8
      vertex -17.5537 -7.27098 8
    endloop
  endfacet
  facet normal 0 0 1
    outer loop
      vertex -12.2 1.2 8
      vertex -19 0 8
      vertex -12.2 -1.2 8
    endloop
  endfacet
  facet normal 0 0 1
    outer loop
      vertex -12.2 -1.2 8
      vertex -18.8375 -2.48 8
      vertex -18.3526 -4.91756 8
    endloop
  endfacet
  facet normal 0 0 1
    outer loop
      vertex -12.2 -1.2 8
      vertex -19 0 8
      vertex -18.8375 -2.48 8
    endloop
  endfacet
  facet normal -0.946927 0.321447 0
    outer loop
      vertex -18.3526 4.91756 0
      vertex -17.5537 7.27098 8
      vertex -17.5537 7.27098 0
    endloop
  endfacet
  facet normal -0.946927 0.321447 0
    outer loop
      vertex -17.5537 7.27098 8
      vertex -18.3526 4.91756 0
      vertex -18.3526 4.91756 8
    endloop
  endfacet
  facet normal -0.831468 0.555573 0
    outer loop
      vertex -16.4545 9.5 0
      vertex -15.0737 11.5665 8
      vertex -15.0737 11.5665 0
    endloop
  endfacet
  facet normal -0.831468 0.555573 0
    outer loop
      vertex -15.0737 11.5665 8
      vertex -16.4545 9.5 0
      vertex -16.4545 9.5 8
    endloop
  endfacet
  facet normal -0.065384 0.99786 0
    outer loop
      vertex 0 19 0
      vertex -2.48 18.8375 8
      vertex 0 19 8
    endloop
  endfacet
  facet normal -0.065384 0.99786 0
    outer loop
      vertex -2.48 18.8375 8
      vertex 0 19 0
      vertex -2.48 18.8375 0
    endloop
  endfacet
  facet normal -0.555573 0.831468 0
    outer loop
      vertex -9.5 16.4545 0
      vertex -11.5665 15.0737 8
      vertex -9.5 16.4545 8
    endloop
  endfacet
  facet normal -0.555573 0.831468 0
    outer loop
      vertex -11.5665 15.0737 8
      vertex -9.5 16.4545 0
      vertex -11.5665 15.0737 0
    endloop
  endfacet
  facet normal -0.442279 0.896878 0
    outer loop
      vertex -7.27098 17.5537 0
      vertex -9.5 16.4545 8
      vertex -7.27098 17.5537 8
    endloop
  endfacet
  facet normal -0.442279 0.896878 0
    outer loop
      vertex -9.5 16.4545 8
      vertex -7.27098 17.5537 0
      vertex -9.5 16.4545 0
    endloop
  endfacet
  facet normal 0.980782 -0.195105 0
    outer loop
      vertex 18.3526 -4.91756 8
      vertex 18.8375 -2.48 0
      vertex 18.8375 -2.48 8
    endloop
  endfacet
  facet normal 0.980782 -0.195105 0
    outer loop
      vertex 18.8375 -2.48 0
      vertex 18.3526 -4.91756 8
      vertex 18.3526 -4.91756 0
    endloop
  endfacet
  facet normal 0.065384 -0.99786 0
    outer loop
      vertex 0 -19 0
      vertex 2.48 -18.8375 8
      vertex 0 -19 8
    endloop
  endfacet
  facet normal 0.065384 -0.99786 0
    outer loop
      vertex 2.48 -18.8375 8
      vertex 0 -19 0
      vertex 2.48 -18.8375 0
    endloop
  endfacet
  facet normal 0.659362 -0.751826 0
    outer loop
      vertex 11.5665 -15.0737 0
      vertex 13.435 -13.435 8
      vertex 11.5665 -15.0737 8
    endloop
  endfacet
  facet normal 0.659362 -0.751826 0
    outer loop
      vertex 13.435 -13.435 8
      vertex 11.5665 -15.0737 0
      vertex 13.435 -13.435 0
    endloop
  endfacet
  facet normal 0.442279 -0.896878 0
    outer loop
      vertex 7.27098 -17.5537 0
      vertex 9.5 -16.4545 8
      vertex 7.27098 -17.5537 8
    endloop
  endfacet
  facet normal 0.442279 -0.896878 0
    outer loop
      vertex 9.5 -16.4545 8
      vertex 7.27098 -17.5537 0
      vertex 9.5 -16.4545 0
    endloop
  endfacet
  facet normal 0.946927 -0.321447 0
    outer loop
      vertex 17.5537 -7.27098 8
      vertex 18.3526 -4.91756 0
      vertex 18.3526 -4.91756 8
    endloop
  endfacet
  facet normal 0.946927 -0.321447 0
    outer loop
      vertex 18.3526 -4.91756 0
      vertex 17.5537 -7.27098 8
      vertex 17.5537 -7.27098 0
    endloop
  endfacet
  facet normal -0.555573 -0.831468 0
    outer loop
      vertex -11.5665 -15.0737 0
      vertex -9.5 -16.4545 8
      vertex -11.5665 -15.0737 8
    endloop
  endfacet
  facet normal -0.555573 -0.831468 -0
    outer loop
      vertex -9.5 -16.4545 8
      vertex -11.5665 -15.0737 0
      vertex -9.5 -16.4545 0
    endloop
  endfacet
  facet normal -0.946927 -0.321447 0
    outer loop
      vertex -17.5537 -7.27098 0
      vertex -18.3526 -4.91756 8
      vertex -18.3526 -4.91756 0
    endloop
  endfacet
  facet normal -0.946927 -0.321447 0
    outer loop
      vertex -18.3526 -4.91756 8
      vertex -17.5537 -7.27098 0
      vertex -17.5537 -7.27098 8
    endloop
  endfacet
  facet normal -0.99786 -0.065384 0
    outer loop
      vertex -18.8375 -2.48 0
      vertex -19 0 8
      vertex -19 0 0
    endloop
  endfacet
  facet normal -0.99786 -0.065384 0
    outer loop
      vertex -19 0 8
      vertex -18.8375 -2.48 0
      vertex -18.8375 -2.48 8
    endloop
  endfacet
  facet normal -0.896878 -0.442279 0
    outer loop
      vertex -16.4545 -9.5 0
      vertex -17.5537 -7.27098 8
      vertex -17.5537 -7.27098 0
    endloop
  endfacet
  facet normal -0.896878 -0.442279 0
    outer loop
      vertex -17.5537 -7.27098 8
      vertex -16.4545 -9.5 0
      vertex -16.4545 -9.5 8
    endloop
  endfacet
  facet normal 0.99786 -0.065384 0
    outer loop
      vertex 18.8375 -2.48 8
      vertex 19 0 0
      vertex 19 0 8
    endloop
  endfacet
  facet normal 0.99786 -0.065384 0
    outer loop
      vertex 19 0 0
      vertex 18.8375 -2.48 8
      vertex 18.8375 -2.48 0
    endloop
  endfacet
  facet normal 0.195105 -0.980782 0
    outer loop
      vertex 2.48 -18.8375 0
      vertex 4.91756 -18.3526 8
      vertex 2.48 -18.8375 8
    endloop
  endfacet
  facet normal 0.195105 -0.980782 0
    outer loop
      vertex 4.91756 -18.3526 8
      vertex 2.48 -18.8375 0
      vertex 4.91756 -18.3526 0
    endloop
  endfacet
  facet normal 0.751826 -0.659362 0
    outer loop
      vertex 13.435 -13.435 8
      vertex 15.0737 -11.5665 0
      vertex 15.0737 -11.5665 8
    endloop
  endfacet
  facet normal 0.751826 -0.659362 0
    outer loop
      vertex 15.0737 -11.5665 0
      vertex 13.435 -13.435 8
      vertex 13.435 -13.435 0
    endloop
  endfacet
  facet normal 0.555573 -0.831468 0
    outer loop
      vertex 9.5 -16.4545 0
      vertex 11.5665 -15.0737 8
      vertex 9.5 -16.4545 8
    endloop
  endfacet
  facet normal 0.555573 -0.831468 0
    outer loop
      vertex 11.5665 -15.0737 8
      vertex 9.5 -16.4545 0
      vertex 11.5665 -15.0737 0
    endloop
  endfacet
  facet normal 0.896878 -0.442279 0
    outer loop
      vertex 16.4545 -9.5 8
      vertex 17.5537 -7.27098 0
      vertex 17.5537 -7.27098 8
    endloop
  endfacet
  facet normal 0.896878 -0.442279 0
    outer loop
      vertex 17.5537 -7.27098 0
      vertex 16.4545 -9.5 8
      vertex 16.4545 -9.5 0
    endloop
  endfacet
  facet normal -0.065384 -0.99786 0
    outer loop
      vertex -2.48 -18.8375 0
      vertex 0 -19 8
      vertex -2.48 -18.8375 8
    endloop
  endfacet
  facet normal -0.065384 -0.99786 -0
    outer loop
      vertex 0 -19 8
      vertex -2.48 -18.8375 0
      vertex 0 -19 0
    endloop
  endfacet
  facet normal -0.442279 -0.896878 0
    outer loop
      vertex -9.5 -16.4545 0
      vertex -7.27098 -17.5537 8
      vertex -9.5 -16.4545 8
    endloop
  endfacet
  facet normal -0.442279 -0.896878 -0
    outer loop
      vertex -7.27098 -17.5537 8
      vertex -9.5 -16.4545 0
      vertex -7.27098 -17.5537 0
    endloop
  endfacet
  facet normal -0.980782 -0.195105 0
    outer loop
      vertex -18.3526 -4.91756 0
      vertex -18.8375 -2.48 8
      vertex -18.8375 -2.48 0
    endloop
  endfacet
  facet normal -0.980782 -0.195105 0
    outer loop
      vertex -18.8375 -2.48 8
      vertex -18.3526 -4.91756 0
      vertex -18.3526 -4.91756 8
    endloop
  endfacet
  facet normal -0.831468 -0.555573 0
    outer loop
      vertex -15.0737 -11.5665 0
      vertex -16.4545 -9.5 8
      vertex -16.4545 -9.5 0
    endloop
  endfacet
  facet normal -0.831468 -0.555573 0
    outer loop
      vertex -16.4545 -9.5 8
      vertex -15.0737 -11.5665 0
      vertex -15.0737 -11.5665 8
    endloop
  endfacet
  facet normal 1 -0 0
    outer loop
      vertex -12.2 -1.2 8
      vertex -12.2 1.2 0
      vertex -12.2 1.2 8
    endloop
  endfacet
  facet normal 1 0 0
    outer loop
      vertex -12.2 1.2 0
      vertex -12.2 -1.2 8
      vertex -12.2 -1.2 0
    endloop
  endfacet
  facet normal -1 0 0
    outer loop
      vertex 12.2 -1.2 0
      vertex 12.2 1.2 8
      vertex 12.2 1.2 0
    endloop
  endfacet
  facet normal -1 -0 0
    outer loop
      vertex 12.2 1.2 8
      vertex 12.2 -1.2 0
      vertex 12.2 -1.2 8
    endloop
  endfacet
  facet normal 0 -1 0
    outer loop
      vertex -12.2 1.2 8
      vertex -9.92135 1.2 2
      vertex 12.2 1.2 8
    endloop
  endfacet
  facet normal 0 -1 0
    outer loop
      vertex -12.2 1.2 0
      vertex -9.92135 1.2 2
      vertex -12.2 1.2 8
    endloop
  endfacet
  facet normal 0 -1 -0
    outer loop
      vertex -9.92135 1.2 2
      vertex -12.2 1.2 0
      vertex -9.92135 1.2 0
    endloop
  endfacet
  facet normal 0 -1 0
    outer loop
      vertex 9.92135 1.2 2
      vertex 12.2 1.2 8
      vertex -9.92135 1.2 2
    endloop
  endfacet
  facet normal 0 -1 0
    outer loop
      vertex 12.2 1.2 0
      vertex 9.92135 1.2 2
      vertex 9.92135 1.2 0
    endloop
  endfacet
  facet normal 0 -1 0
    outer loop
      vertex 9.92135 1.2 2
      vertex 12.2 1.2 0
      vertex 12.2 1.2 8
    endloop
  endfacet
  facet normal 0 1 0
    outer loop
      vertex 12.2 -1.2 8
      vertex 9.92135 -1.2 2
      vertex -12.2 -1.2 8
    endloop
  endfacet
  facet normal 0 1 -0
    outer loop
      vertex 12.2 -1.2 0
      vertex 9.92135 -1.2 2
      vertex 12.2 -1.2 8
    endloop
  endfacet
  facet normal 0 1 0
    outer loop
      vertex 9.92135 -1.2 2
      vertex 12.2 -1.2 0
      vertex 9.92135 -1.2 0
    endloop
  endfacet
  facet normal 0 1 -0
    outer loop
      vertex -9.92135 -1.2 2
      vertex -12.2 -1.2 8
      vertex 9.92135 -1.2 2
    endloop
  endfacet
  facet normal 0 1 0
    outer loop
      vertex -12.2 -1.2 0
      vertex -9.92135 -1.2 2
      vertex -9.92135 -1.2 0
    endloop
  endfacet
  facet normal 0 1 0
    outer loop
      vertex -9.92135 -1.2 2
      vertex -12.2 -1.2 0
      vertex -12.2 -1.2 8
    endloop
  endfacet
  facet normal -0.997858 -0.0654116 0
    outer loop
      vertex 9.92135 1.2 0
      vertex 9.91445 1.30526 2
      vertex 9.91445 1.30526 0
    endloop
  endfacet
  facet normal -0.997858 -0.0654116 0
    outer loop
      vertex 9.91445 1.30526 2
      vertex 9.92135 1.2 0
      vertex 9.92135 1.2 2
    endloop
  endfacet
  facet normal 0.997858 -0.0654116 0
    outer loop
      vertex -9.92135 1.2 2
      vertex -9.91445 1.30526 0
      vertex -9.91445 1.30526 2
    endloop
  endfacet
  facet normal 0.997858 -0.0654116 0
    outer loop
      vertex -9.91445 1.30526 0
      vertex -9.92135 1.2 2
      vertex -9.92135 1.2 0
    endloop
  endfacet
  facet normal -0.0654022 -0.997859 0
    outer loop
      vertex 0 10 0
      vertex 1.30526 9.91445 2
      vertex 0 10 2
    endloop
  endfacet
  facet normal -0.0654022 -0.997859 -0
    outer loop
      vertex 1.30526 9.91445 2
      vertex 0 10 0
      vertex 1.30526 9.91445 0
    endloop
  endfacet
  facet normal 0.751844 0.659341 0
    outer loop
      vertex -7.07107 -7.07107 2
      vertex -7.93353 -6.08761 0
      vertex -7.93353 -6.08761 2
    endloop
  endfacet
  facet normal 0.751844 0.659341 0
    outer loop
      vertex -7.93353 -6.08761 0
      vertex -7.07107 -7.07107 2
      vertex -7.07107 -7.07107 0
    endloop
  endfacet
  facet normal -0.751844 -0.659341 0
    outer loop
      vertex 7.93353 6.08761 0
      vertex 7.07107 7.07107 2
      vertex 7.07107 7.07107 0
    endloop
  endfacet
  facet normal -0.751844 -0.659341 0
    outer loop
      vertex 7.07107 7.07107 2
      vertex 7.93353 6.08761 0
      vertex 7.93353 6.08761 2
    endloop
  endfacet
  facet normal 0.659341 -0.751844 0
    outer loop
      vertex -7.07107 7.07107 0
      vertex -6.08761 7.93353 2
      vertex -7.07107 7.07107 2
    endloop
  endfacet
  facet normal 0.659341 -0.751844 0
    outer loop
      vertex -6.08761 7.93353 2
      vertex -7.07107 7.07107 0
      vertex -6.08761 7.93353 0
    endloop
  endfacet
  facet normal 0.321438 -0.946931 0
    outer loop
      vertex -3.82683 9.2388 0
      vertex -2.58819 9.65926 2
      vertex -3.82683 9.2388 2
    endloop
  endfacet
  facet normal 0.321438 -0.946931 0
    outer loop
      vertex -2.58819 9.65926 2
      vertex -3.82683 9.2388 0
      vertex -2.58819 9.65926 0
    endloop
  endfacet
  facet normal -0.946931 -0.321438 0
    outer loop
      vertex 9.65926 2.58819 0
      vertex 9.2388 3.82683 2
      vertex 9.2388 3.82683 0
    endloop
  endfacet
  facet normal -0.946931 -0.321438 0
    outer loop
      vertex 9.2388 3.82683 2
      vertex 9.65926 2.58819 0
      vertex 9.65926 2.58819 2
    endloop
  endfacet
  facet normal -0.980785 -0.19509 0
    outer loop
      vertex 9.91445 1.30526 0
      vertex 9.65926 2.58819 2
      vertex 9.65926 2.58819 0
    endloop
  endfacet
  facet normal -0.980785 -0.19509 0
    outer loop
      vertex 9.65926 2.58819 2
      vertex 9.91445 1.30526 0
      vertex 9.91445 1.30526 2
    endloop
  endfacet
  facet normal -0.896871 -0.442293 0
    outer loop
      vertex 9.2388 3.82683 0
      vertex 8.66025 5 2
      vertex 8.66025 5 0
    endloop
  endfacet
  facet normal -0.896871 -0.442293 0
    outer loop
      vertex 8.66025 5 2
      vertex 9.2388 3.82683 0
      vertex 9.2388 3.82683 2
    endloop
  endfacet
  facet normal -0.442293 -0.896871 0
    outer loop
      vertex 3.82683 9.2388 0
      vertex 5 8.66025 2
      vertex 3.82683 9.2388 2
    endloop
  endfacet
  facet normal -0.442293 -0.896871 -0
    outer loop
      vertex 5 8.66025 2
      vertex 3.82683 9.2388 0
      vertex 5 8.66025 0
    endloop
  endfacet
  facet normal -0.321438 -0.946931 0
    outer loop
      vertex 2.58819 9.65926 0
      vertex 3.82683 9.2388 2
      vertex 2.58819 9.65926 2
    endloop
  endfacet
  facet normal -0.321438 -0.946931 -0
    outer loop
      vertex 3.82683 9.2388 2
      vertex 2.58819 9.65926 0
      vertex 3.82683 9.2388 0
    endloop
  endfacet
  facet normal -0.555571 -0.831469 0
    outer loop
      vertex 5 8.66025 0
      vertex 6.08761 7.93353 2
      vertex 5 8.66025 2
    endloop
  endfacet
  facet normal -0.555571 -0.831469 -0
    outer loop
      vertex 6.08761 7.93353 2
      vertex 5 8.66025 0
      vertex 6.08761 7.93353 0
    endloop
  endfacet
  facet normal 0.896871 -0.442293 0
    outer loop
      vertex -9.2388 3.82683 2
      vertex -8.66025 5 0
      vertex -8.66025 5 2
    endloop
  endfacet
  facet normal 0.896871 -0.442293 0
    outer loop
      vertex -8.66025 5 0
      vertex -9.2388 3.82683 2
      vertex -9.2388 3.82683 0
    endloop
  endfacet
  facet normal 0.946931 -0.321438 0
    outer loop
      vertex -9.65926 2.58819 2
      vertex -9.2388 3.82683 0
      vertex -9.2388 3.82683 2
    endloop
  endfacet
  facet normal 0.946931 -0.321438 0
    outer loop
      vertex -9.2388 3.82683 0
      vertex -9.65926 2.58819 2
      vertex -9.65926 2.58819 0
    endloop
  endfacet
  facet normal 0.442293 -0.896871 0
    outer loop
      vertex -5 8.66025 0
      vertex -3.82683 9.2388 2
      vertex -5 8.66025 2
    endloop
  endfacet
  facet normal 0.442293 -0.896871 0
    outer loop
      vertex -3.82683 9.2388 2
      vertex -5 8.66025 0
      vertex -3.82683 9.2388 0
    endloop
  endfacet
  facet normal 0.19509 -0.980785 0
    outer loop
      vertex -2.58819 9.65926 0
      vertex -1.30526 9.91445 2
      vertex -2.58819 9.65926 2
    endloop
  endfacet
  facet normal 0.19509 -0.980785 0
    outer loop
      vertex -1.30526 9.91445 2
      vertex -2.58819 9.65926 0
      vertex -1.30526 9.91445 0
    endloop
  endfacet
  facet normal -0.442293 0.896871 0
    outer loop
      vertex 5 -8.66025 0
      vertex 3.82683 -9.2388 2
      vertex 5 -8.66025 2
    endloop
  endfacet
  facet normal -0.442293 0.896871 0
    outer loop
      vertex 3.82683 -9.2388 2
      vertex 5 -8.66025 0
      vertex 3.82683 -9.2388 0
    endloop
  endfacet
  facet normal 0.321438 0.946931 -0
    outer loop
      vertex -2.58819 -9.65926 0
      vertex -3.82683 -9.2388 2
      vertex -2.58819 -9.65926 2
    endloop
  endfacet
  facet normal 0.321438 0.946931 0
    outer loop
      vertex -3.82683 -9.2388 2
      vertex -2.58819 -9.65926 0
      vertex -3.82683 -9.2388 0
    endloop
  endfacet
  facet normal 0.896871 0.442293 0
    outer loop
      vertex -8.66025 -5 2
      vertex -9.2388 -3.82683 0
      vertex -9.2388 -3.82683 2
    endloop
  endfacet
  facet normal 0.896871 0.442293 0
    outer loop
      vertex -9.2388 -3.82683 0
      vertex -8.66025 -5 2
      vertex -8.66025 -5 0
    endloop
  endfacet
  facet normal -0.831469 -0.555571 0
    outer loop
      vertex 8.66025 5 0
      vertex 7.93353 6.08761 2
      vertex 7.93353 6.08761 0
    endloop
  endfacet
  facet normal -0.831469 -0.555571 0
    outer loop
      vertex 7.93353 6.08761 2
      vertex 8.66025 5 0
      vertex 8.66025 5 2
    endloop
  endfacet
  facet normal -0.19509 -0.980785 0
    outer loop
      vertex 1.30526 9.91445 0
      vertex 2.58819 9.65926 2
      vertex 1.30526 9.91445 2
    endloop
  endfacet
  facet normal -0.19509 -0.980785 -0
    outer loop
      vertex 2.58819 9.65926 2
      vertex 1.30526 9.91445 0
      vertex 2.58819 9.65926 0
    endloop
  endfacet
  facet normal -0.659341 -0.751844 0
    outer loop
      vertex 6.08761 7.93353 0
      vertex 7.07107 7.07107 2
      vertex 6.08761 7.93353 2
    endloop
  endfacet
  facet normal -0.659341 -0.751844 -0
    outer loop
      vertex 7.07107 7.07107 2
      vertex 6.08761 7.93353 0
      vertex 7.07107 7.07107 0
    endloop
  endfacet
  facet normal 0.831469 -0.555571 0
    outer loop
      vertex -8.66025 5 2
      vertex -7.93353 6.08761 0
      vertex -7.93353 6.08761 2
    endloop
  endfacet
  facet normal 0.831469 -0.555571 0
    outer loop
      vertex -7.93353 6.08761 0
      vertex -8.66025 5 2
      vertex -8.66025 5 0
    endloop
  endfacet
  facet normal 0.751844 -0.659341 0
    outer loop
      vertex -7.93353 6.08761 2
      vertex -7.07107 7.07107 0
      vertex -7.07107 7.07107 2
    endloop
  endfacet
  facet normal 0.751844 -0.659341 0
    outer loop
      vertex -7.07107 7.07107 0
      vertex -7.93353 6.08761 2
      vertex -7.93353 6.08761 0
    endloop
  endfacet
  facet normal 0.980785 -0.19509 0
    outer loop
      vertex -9.91445 1.30526 2
      vertex -9.65926 2.58819 0
      vertex -9.65926 2.58819 2
    endloop
  endfacet
  facet normal 0.980785 -0.19509 0
    outer loop
      vertex -9.65926 2.58819 0
      vertex -9.91445 1.30526 2
      vertex -9.91445 1.30526 0
    endloop
  endfacet
  facet normal 0 0 -1
    outer loop
      vertex 9.92135 1.2 2
      vertex 9.65926 2.58819 2
      vertex 9.91445 1.30526 2
    endloop
  endfacet
  facet normal 0 0 -1
    outer loop
      vertex 9.92135 1.2 2
      vertex 9.2388 3.82683 2
      vertex 9.65926 2.58819 2
    endloop
  endfacet
  facet normal 0 0 -1
    outer loop
      vertex 9.92135 1.2 2
      vertex 8.66025 5 2
      vertex 9.2388 3.82683 2
    endloop
  endfacet
  facet normal 0 0 -1
    outer loop
      vertex 9.92135 1.2 2
      vertex 7.93353 6.08761 2
      vertex 8.66025 5 2
    endloop
  endfacet
  facet normal 0 0 -1
    outer loop
      vertex 9.92135 1.2 2
      vertex 7.07107 7.07107 2
      vertex 7.93353 6.08761 2
    endloop
  endfacet
  facet normal 0 0 -1
    outer loop
      vertex 9.92135 1.2 2
      vertex 6.08761 7.93353 2
      vertex 7.07107 7.07107 2
    endloop
  endfacet
  facet normal 0 0 -1
    outer loop
      vertex 9.92135 1.2 2
      vertex 5 8.66025 2
      vertex 6.08761 7.93353 2
    endloop
  endfacet
  facet normal 0 0 -1
    outer loop
      vertex 9.92135 1.2 2
      vertex 3.82683 9.2388 2
      vertex 5 8.66025 2
    endloop
  endfacet
  facet normal 0 0 -1
    outer loop
      vertex 9.92135 1.2 2
      vertex 2.58819 9.65926 2
      vertex 3.82683 9.2388 2
    endloop
  endfacet
  facet normal 0 0 -1
    outer loop
      vertex 9.92135 1.2 2
      vertex 1.30526 9.91445 2
      vertex 2.58819 9.65926 2
    endloop
  endfacet
  facet normal 0 0 -1
    outer loop
      vertex 9.92135 1.2 2
      vertex 0 10 2
      vertex 1.30526 9.91445 2
    endloop
  endfacet
  facet normal 0 0 -1
    outer loop
      vertex 9.92135 1.2 2
      vertex -1.30526 9.91445 2
      vertex 0 10 2
    endloop
  endfacet
  facet normal 0 0 -1
    outer loop
      vertex 9.92135 1.2 2
      vertex -2.58819 9.65926 2
      vertex -1.30526 9.91445 2
    endloop
  endfacet
  facet normal 0 0 -1
    outer loop
      vertex 9.92135 1.2 2
      vertex -3.82683 9.2388 2
      vertex -2.58819 9.65926 2
    endloop
  endfacet
  facet normal 0 0 -1
    outer loop
      vertex 9.92135 1.2 2
      vertex -5 8.66025 2
      vertex -3.82683 9.2388 2
    endloop
  endfacet
  facet normal 0 0 -1
    outer loop
      vertex 9.92135 1.2 2
      vertex -6.08761 7.93353 2
      vertex -5 8.66025 2
    endloop
  endfacet
  facet normal 0 0 -1
    outer loop
      vertex 9.92135 1.2 2
      vertex -7.07107 7.07107 2
      vertex -6.08761 7.93353 2
    endloop
  endfacet
  facet normal 0 0 -1
    outer loop
      vertex 9.92135 1.2 2
      vertex -7.93353 6.08761 2
      vertex -7.07107 7.07107 2
    endloop
  endfacet
  facet normal 0 0 -1
    outer loop
      vertex 9.92135 1.2 2
      vertex -8.66025 5 2
      vertex -7.93353 6.08761 2
    endloop
  endfacet
  facet normal 0 0 -1
    outer loop
      vertex 9.92135 1.2 2
      vertex -9.2388 3.82683 2
      vertex -8.66025 5 2
    endloop
  endfacet
  facet normal 0 0 -1
    outer loop
      vertex 9.92135 1.2 2
      vertex -9.65926 2.58819 2
      vertex -9.2388 3.82683 2
    endloop
  endfacet
  facet normal 0 0 -1
    outer loop
      vertex -9.92135 1.2 2
      vertex -9.65926 2.58819 2
      vertex 9.92135 1.2 2
    endloop
  endfacet
  facet normal 0 0 -1
    outer loop
      vertex -9.65926 2.58819 2
      vertex -9.92135 1.2 2
      vertex -9.91445 1.30526 2
    endloop
  endfacet
  facet normal 0 0 -1
    outer loop
      vertex 9.65926 -2.58819 2
      vertex 9.92135 -1.2 2
      vertex 9.91445 -1.30526 2
    endloop
  endfacet
  facet normal 0 0 -1
    outer loop
      vertex 9.2388 -3.82683 2
      vertex 9.92135 -1.2 2
      vertex 9.65926 -2.58819 2
    endloop
  endfacet
  facet normal 0 0 -1
    outer loop
      vertex 8.66025 -5 2
      vertex 9.92135 -1.2 2
      vertex 9.2388 -3.82683 2
    endloop
  endfacet
  facet normal 0 0 -1
    outer loop
      vertex 7.93353 -6.08761 2
      vertex 9.92135 -1.2 2
      vertex 8.66025 -5 2
    endloop
  endfacet
  facet normal 0 0 -1
    outer loop
      vertex 7.07107 -7.07107 2
      vertex 9.92135 -1.2 2
      vertex 7.93353 -6.08761 2
    endloop
  endfacet
  facet normal 0 0 -1
    outer loop
      vertex 6.08761 -7.93353 2
      vertex 9.92135 -1.2 2
      vertex 7.07107 -7.07107 2
    endloop
  endfacet
  facet normal 0 0 -1
    outer loop
      vertex 5 -8.66025 2
      vertex 9.92135 -1.2 2
      vertex 6.08761 -7.93353 2
    endloop
  endfacet
  facet normal 0 0 -1
    outer loop
      vertex 3.82683 -9.2388 2
      vertex 9.92135 -1.2 2
      vertex 5 -8.66025 2
    endloop
  endfacet
  facet normal 0 0 -1
    outer loop
      vertex 2.58819 -9.65926 2
      vertex 9.92135 -1.2 2
      vertex 3.82683 -9.2388 2
    endloop
  endfacet
  facet normal 0 0 -1
    outer loop
      vertex 1.30526 -9.91445 2
      vertex 9.92135 -1.2 2
      vertex 2.58819 -9.65926 2
    endloop
  endfacet
  facet normal 0 0 -1
    outer loop
      vertex 0 -10 2
      vertex 9.92135 -1.2 2
      vertex 1.30526 -9.91445 2
    endloop
  endfacet
  facet normal 0 0 -1
    outer loop
      vertex -1.30526 -9.91445 2
      vertex 9.92135 -1.2 2
      vertex 0 -10 2
    endloop
  endfacet
  facet normal 0 0 -1
    outer loop
      vertex -2.58819 -9.65926 2
      vertex 9.92135 -1.2 2
      vertex -1.30526 -9.91445 2
    endloop
  endfacet
  facet normal 0 0 -1
    outer loop
      vertex -3.82683 -9.2388 2
      vertex 9.92135 -1.2 2
      vertex -2.58819 -9.65926 2
    endloop
  endfacet
  facet normal 0 0 -1
    outer loop
      vertex -5 -8.66025 2
      vertex 9.92135 -1.2 2
      vertex -3.82683 -9.2388 2
    endloop
  endfacet
  facet normal 0 0 -1
    outer loop
      vertex -6.08761 -7.93353 2
      vertex 9.92135 -1.2 2
      vertex -5 -8.66025 2
    endloop
  endfacet
  facet normal 0 0 -1
    outer loop
      vertex -7.07107 -7.07107 2
      vertex 9.92135 -1.2 2
      vertex -6.08761 -7.93353 2
    endloop
  endfacet
  facet normal 0 0 -1
    outer loop
      vertex -7.93353 -6.08761 2
      vertex 9.92135 -1.2 2
      vertex -7.07107 -7.07107 2
    endloop
  endfacet
  facet normal 0 0 -1
    outer loop
      vertex -8.66025 -5 2
      vertex 9.92135 -1.2 2
      vertex -7.93353 -6.08761 2
    endloop
  endfacet
  facet normal 0 0 -1
    outer loop
      vertex -9.2388 -3.82683 2
      vertex 9.92135 -1.2 2
      vertex -8.66025 -5 2
    endloop
  endfacet
  facet normal 0 0 -1
    outer loop
      vertex -9.65926 -2.58819 2
      vertex 9.92135 -1.2 2
      vertex -9.2388 -3.82683 2
    endloop
  endfacet
  facet normal 0 0 -1
    outer loop
      vertex -9.92135 -1.2 2
      vertex -9.65926 -2.58819 2
      vertex -9.91445 -1.30526 2
    endloop
  endfacet
  facet normal 0 0 -1
    outer loop
      vertex -9.65926 -2.58819 2
      vertex -9.92135 -1.2 2
      vertex 9.92135 -1.2 2
    endloop
  endfacet
  facet normal 0.555571 -0.831469 0
    outer loop
      vertex -6.08761 7.93353 0
      vertex -5 8.66025 2
      vertex -6.08761 7.93353 2
    endloop
  endfacet
  facet normal 0.555571 -0.831469 0
    outer loop
      vertex -5 8.66025 2
      vertex -6.08761 7.93353 0
      vertex -5 8.66025 0
    endloop
  endfacet
  facet normal 0.0654022 -0.997859 0
    outer loop
      vertex -1.30526 9.91445 0
      vertex 0 10 2
      vertex -1.30526 9.91445 2
    endloop
  endfacet
  facet normal 0.0654022 -0.997859 0
    outer loop
      vertex 0 10 2
      vertex -1.30526 9.91445 0
      vertex 0 10 0
    endloop
  endfacet
  facet normal -0.0654022 0.997859 0
    outer loop
      vertex 1.30526 -9.91445 0
      vertex 0 -10 2
      vertex 1.30526 -9.91445 2
    endloop
  endfacet
  facet normal -0.0654022 0.997859 0
    outer loop
      vertex 0 -10 2
      vertex 1.30526 -9.91445 0
      vertex 0 -10 0
    endloop
  endfacet
  facet normal -0.321438 0.946931 0
    outer loop
      vertex 3.82683 -9.2388 0
      vertex 2.58819 -9.65926 2
      vertex 3.82683 -9.2388 2
    endloop
  endfacet
  facet normal -0.321438 0.946931 0
    outer loop
      vertex 2.58819 -9.65926 2
      vertex 3.82683 -9.2388 0
      vertex 2.58819 -9.65926 0
    endloop
  endfacet
  facet normal -0.555571 0.831469 0
    outer loop
      vertex 6.08761 -7.93353 0
      vertex 5 -8.66025 2
      vertex 6.08761 -7.93353 2
    endloop
  endfacet
  facet normal -0.555571 0.831469 0
    outer loop
      vertex 5 -8.66025 2
      vertex 6.08761 -7.93353 0
      vertex 5 -8.66025 0
    endloop
  endfacet
  facet normal -0.751844 0.659341 0
    outer loop
      vertex 7.07107 -7.07107 0
      vertex 7.93353 -6.08761 2
      vertex 7.93353 -6.08761 0
    endloop
  endfacet
  facet normal -0.751844 0.659341 0
    outer loop
      vertex 7.93353 -6.08761 2
      vertex 7.07107 -7.07107 0
      vertex 7.07107 -7.07107 2
    endloop
  endfacet
  facet normal -0.896871 0.442293 0
    outer loop
      vertex 8.66025 -5 0
      vertex 9.2388 -3.82683 2
      vertex 9.2388 -3.82683 0
    endloop
  endfacet
  facet normal -0.896871 0.442293 0
    outer loop
      vertex 9.2388 -3.82683 2
      vertex 8.66025 -5 0
      vertex 8.66025 -5 2
    endloop
  endfacet
  facet normal 0.659341 0.751844 -0
    outer loop
      vertex -6.08761 -7.93353 0
      vertex -7.07107 -7.07107 2
      vertex -6.08761 -7.93353 2
    endloop
  endfacet
  facet normal 0.659341 0.751844 0
    outer loop
      vertex -7.07107 -7.07107 2
      vertex -6.08761 -7.93353 0
      vertex -7.07107 -7.07107 0
    endloop
  endfacet
  facet normal 0.442293 0.896871 -0
    outer loop
      vertex -3.82683 -9.2388 0
      vertex -5 -8.66025 2
      vertex -3.82683 -9.2388 2
    endloop
  endfacet
  facet normal 0.442293 0.896871 0
    outer loop
      vertex -5 -8.66025 2
      vertex -3.82683 -9.2388 0
      vertex -5 -8.66025 0
    endloop
  endfacet
  facet normal 0.19509 0.980785 -0
    outer loop
      vertex -1.30526 -9.91445 0
      vertex -2.58819 -9.65926 2
      vertex -1.30526 -9.91445 2
    endloop
  endfacet
  facet normal 0.19509 0.980785 0
    outer loop
      vertex -2.58819 -9.65926 2
      vertex -1.30526 -9.91445 0
      vertex -2.58819 -9.65926 0
    endloop
  endfacet
  facet normal 0.831469 0.555571 0
    outer loop
      vertex -7.93353 -6.08761 2
      vertex -8.66025 -5 0
      vertex -8.66025 -5 2
    endloop
  endfacet
  facet normal 0.831469 0.555571 0
    outer loop
      vertex -8.66025 -5 0
      vertex -7.93353 -6.08761 2
      vertex -7.93353 -6.08761 0
    endloop
  endfacet
  facet normal 0.946931 0.321438 0
    outer loop
      vertex -9.2388 -3.82683 2
      vertex -9.65926 -2.58819 0
      vertex -9.65926 -2.58819 2
    endloop
  endfacet
  facet normal 0.946931 0.321438 0
    outer loop
      vertex -9.65926 -2.58819 0
      vertex -9.2388 -3.82683 2
      vertex -9.2388 -3.82683 0
    endloop
  endfacet
  facet normal 0.997858 0.0654116 0
    outer loop
      vertex -9.91445 -1.30526 2
      vertex -9.92135 -1.2 0
      vertex -9.92135 -1.2 2
    endloop
  endfacet
  facet normal 0.997858 0.0654116 0
    outer loop
      vertex -9.92135 -1.2 0
      vertex -9.91445 -1.30526 2
      vertex -9.91445 -1.30526 0
    endloop
  endfacet
  facet normal -0.19509 0.980785 0
    outer loop
      vertex 2.58819 -9.65926 0
      vertex 1.30526 -9.91445 2
      vertex 2.58819 -9.65926 2
    endloop
  endfacet
  facet normal -0.19509 0.980785 0
    outer loop
      vertex 1.30526 -9.91445 2
      vertex 2.58819 -9.65926 0
      vertex 1.30526 -9.91445 0
    endloop
  endfacet
  facet normal -0.659341 0.751844 0
    outer loop
      vertex 7.07107 -7.07107 0
      vertex 6.08761 -7.93353 2
      vertex 7.07107 -7.07107 2
    endloop
  endfacet
  facet normal -0.659341 0.751844 0
    outer loop
      vertex 6.08761 -7.93353 2
      vertex 7.07107 -7.07107 0
      vertex 6.08761 -7.93353 0
    endloop
  endfacet
  facet normal -0.831469 0.555571 0
    outer loop
      vertex 7.93353 -6.08761 0
      vertex 8.66025 -5 2
      vertex 8.66025 -5 0
    endloop
  endfacet
  facet normal -0.831469 0.555571 0
    outer loop
      vertex 8.66025 -5 2
      vertex 7.93353 -6.08761 0
      vertex 7.93353 -6.08761 2
    endloop
  endfacet
  facet normal -0.980785 0.19509 0
    outer loop
      vertex 9.65926 -2.58819 0
      vertex 9.91445 -1.30526 2
      vertex 9.91445 -1.30526 0
    endloop
  endfacet
  facet normal -0.980785 0.19509 0
    outer loop
      vertex 9.91445 -1.30526 2
      vertex 9.65926 -2.58819 0
      vertex 9.65926 -2.58819 2
    endloop
  endfacet
  facet normal -0.946931 0.321438 0
    outer loop
      vertex 9.2388 -3.82683 0
      vertex 9.65926 -2.58819 2
      vertex 9.65926 -2.58819 0
    endloop
  endfacet
  facet normal -0.946931 0.321438 0
    outer loop
      vertex 9.65926 -2.58819 2
      vertex 9.2388 -3.82683 0
      vertex 9.2388 -3.82683 2
    endloop
  endfacet
  facet normal -0.997858 0.0654116 0
    outer loop
      vertex 9.91445 -1.30526 0
      vertex 9.92135 -1.2 2
      vertex 9.92135 -1.2 0
    endloop
  endfacet
  facet normal -0.997858 0.0654116 0
    outer loop
      vertex 9.92135 -1.2 2
      vertex 9.91445 -1.30526 0
      vertex 9.91445 -1.30526 2
    endloop
  endfacet
  facet normal 0.555571 0.831469 -0
    outer loop
      vertex -5 -8.66025 0
      vertex -6.08761 -7.93353 2
      vertex -5 -8.66025 2
    endloop
  endfacet
  facet normal 0.555571 0.831469 0
    outer loop
      vertex -6.08761 -7.93353 2
      vertex -5 -8.66025 0
      vertex -6.08761 -7.93353 0
    endloop
  endfacet
  facet normal 0.0654022 0.997859 -0
    outer loop
      vertex 0 -10 0
      vertex -1.30526 -9.91445 2
      vertex 0 -10 2
    endloop
  endfacet
  facet normal 0.0654022 0.997859 0
    outer loop
      vertex -1.30526 -9.91445 2
      vertex 0 -10 0
      vertex -1.30526 -9.91445 0
    endloop
  endfacet
  facet normal 0.980785 0.19509 0
    outer loop
      vertex -9.65926 -2.58819 2
      vertex -9.91445 -1.30526 0
      vertex -9.91445 -1.30526 2
    endloop
  endfacet
  facet normal 0.980785 0.19509 0
    outer loop
      vertex -9.91445 -1.30526 0
      vertex -9.65926 -2.58819 2
      vertex -9.65926 -2.58819 0
    endloop
  endfacet
endsolid OpenSCAD_Model
