0
SECTION
2
HEADER
9
$INSUNITS
70
4
0
ENDSEC
0
SECTION
2
ENTITIES
0
LINE
8
CUT
10
10.0000
20
10.0000
11
196.0000
21
10.0000
0
LINE
8
CUT
10
196.0000
20
10.0000
11
196.0000
21
225.0000
0
LINE
8
CUT
10
196.0000
20
225.0000
11
118.0000
21
225.0000
0
LINE
8
CUT
10
118.0000
20
225.0000
11
118.0000
21
295.0000
0
LINE
8
CUT
10
118.0000
20
295.0000
11
88.0000
21
295.0000
0
LINE
8
CUT
10
88.0000
20
295.0000
11
88.0000
21
225.0000
0
LINE
8
CUT
10
88.0000
20
225.0000
11
10.0000
21
225.0000
0
LINE
8
CUT
10
10.0000
20
225.0000
11
10.0000
21
10.0000
0
LINE
8
CUT
10
18.0000
20
30.0000
11
68.0000
21
30.0000
0
LINE
8
CUT
10
68.0000
20
30.0000
11
68.0000
21
38.0000
0
LINE
8
CUT
10
68.0000
20
38.0000
11
18.0000
21
38.0000
0
LINE
8
CUT
10
18.0000
20
38.0000
11
18.0000
21
30.0000
0
LINE
8
CUT
10
78.0000
20
30.0000
11
128.0000
21
30.0000
0
LINE
8
CUT
10
128.0000
20
30.0000
11
128.0000
21
38.0000
0
LINE
8
CUT
10
128.0000
20
38.0000
11
78.0000
21
38.0000
0
LINE
8
CUT
10
78.0000
20
38.0000
11
78.0000
21
30.0000
0
LINE
8
CUT
10
138.0000
20
30.0000
11
188.0000
21
30.0000
0
LINE
8
CUT
10
188.0000
20
30.0000
11
188.0000
21
38.0000
0
LINE
8
CUT
10
188.0000
20
38.0000
11
138.0000
21
38.0000
0
LINE
8
CUT
10
138.0000
20
38.0000
11
138.0000
21
30.0000
0
LINE
8
CUT
10
18.0000
20
50.0000
11
68.0000
21
50.0000
0
LINE
8
CUT
10
68.0000
20
50.0000
11
68.0000
21
58.0000
0
LINE
8
CUT
10
68.0000
20
58.0000
11
18.0000
21
58.0000
0
LINE
8
CUT
10
18.0000
20
58.0000
11
18.0000
21
50.0000
0
LINE
8
CUT
10
78.0000
20
50.0000
11
128.0000
21
50.0000
0
LINE
8
CUT
10
128.0000
20
50.0000
11
128.0000
21
58.0000
0
LINE
8
CUT
10
128.0000
20
58.0000
11
78.0000
21
58.0000
0
LINE
8
CUT
10
78.0000
20
58.0000
11
78.0000
21
50.0000
0
LINE
8
CUT
10
138.0000
20
50.0000
11
188.0000
21
50.0000
0
LINE
8
CUT
10
188.0000
20
50.0000
11
188.0000
21
58.0000
0
LINE
8
CUT
10
188.0000
20
58.0000
11
138.0000
21
58.0000
0
LINE
8
CUT
10
138.0000
20
58.0000
11
138.0000
21
50.0000
0
LINE
8
CUT
10
18.0000
20
70.0000
11
68.0000
21
70.0000
0
LINE
8
CUT
10
68.0000
20
70.0000
11
68.0000
21
78.0000
0
LINE
8
CUT
10
68.0000
20
78.0000
11
18.0000
21
78.0000
0
LINE
8
CUT
10
18.0000
20
78.0000
11
18.0000
21
70.0000
0
LINE
8
CUT
10
78.0000
20
70.0000
11
128.0000
21
70.0000
0
LINE
8
CUT
10
128.0000
20
70.0000
11
128.0000
21
78.0000
0
LINE
8
CUT
10
128.0000
20
78.0000
11
78.0000
21
78.0000
0
LINE
8
CUT
10
78.0000
20
78.0000
11
78.0000
21
70.0000
0
LINE
8
CUT
10
138.0000
20
70.0000
11
188.0000
21
70.0000
0
LINE
8
CUT
10
188.0000
20
70.0000
11
188.0000
21
78.0000
0
LINE
8
CUT
10
188.0000
20
78.0000
11
138.0000
21
78.0000
0
LINE
8
CUT
10
138.0000
20
78.0000
11
138.0000
21
70.0000
0
LINE
8
CUT
10
18.0000
20
90.0000
11
68.0000
21
90.0000
0
LINE
8
CUT
10
68.0000
20
90.0000
11
68.0000
21
98.0000
0
LINE
8
CUT
10
68.0000
20
98.0000
11
18.0000
21
98.0000
0
LINE
8
CUT
10
18.0000
20
98.0000
11
18.0000
21
90.0000
0
LINE
8
CUT
10
78.0000
20
90.0000
11
128.0000
21
90.0000
0
LINE
8
CUT
10
128.0000
20
90.0000
11
128.0000
21
98.0000
0
LINE
8
CUT
10
128.0000
20
98.0000
11
78.0000
21
98.0000
0
LINE
8
CUT
10
78.0000
20
98.0000
11
78.0000
21
90.0000
0
LINE
8
CUT
10
138.0000
20
90.0000
11
188.0000
21
90.0000
0
LINE
8
CUT
10
188.0000
20
90.0000
11
188.0000
21
98.0000
0
LINE
8
CUT
10
188.0000
20
98.0000
11
138.0000
21
98.0000
0
LINE
8
CUT
10
138.0000
20
98.0000
11
138.0000
21
90.0000
0
LINE
8
CUT
10
18.0000
20
110.0000
11
68.0000
21
110.0000
0
LINE
8
CUT
10
68.0000
20
110.0000
11
68.0000
21
118.0000
0
LINE
8
CUT
10
68.0000
20
118.0000
11
18.0000
21
118.0000
0
LINE
8
CUT
10
18.0000
20
118.0000
11
18.0000
21
110.0000
0
LINE
8
CUT
10
78.0000
20
110.0000
11
128.0000
21
110.0000
0
LINE
8
CUT
10
128.0000
20
110.0000
11
128.0000
21
118.0000
0
LINE
8
CUT
10
128.0000
20
118.0000
11
78.0000
21
118.0000
0
LINE
8
CUT
10
78.0000
20
118.0000
11
78.0000
21
110.0000
0
LINE
8
CUT
10
138.0000
20
110.0000
11
188.0000
21
110.0000
0
LINE
8
CUT
10
188.0000
20
110.0000
11
188.0000
21
118.0000
0
LINE
8
CUT
10
188.0000
20
118.0000
11
138.0000
21
118.0000
0
LINE
8
CUT
10
138.0000
20
118.0000
11
138.0000
21
110.0000
0
LINE
8
CUT
10
18.0000
20
130.0000
11
68.0000
21
130.0000
0
LINE
8
CUT
10
68.0000
20
130.0000
11
68.0000
21
138.0000
0
LINE
8
CUT
10
68.0000
20
138.0000
11
18.0000
21
138.0000
0
LINE
8
CUT
10
18.0000
20
138.0000
11
18.0000
21
130.0000
0
LINE
8
CUT
10
78.0000
20
130.0000
11
128.0000
21
130.0000
0
LINE
8
CUT
10
128.0000
20
130.0000
11
128.0000
21
138.0000
0
LINE
8
CUT
10
128.0000
20
138.0000
11
78.0000
21
138.0000
0
LINE
8
CUT
10
78.0000
20
138.0000
11
78.0000
21
130.0000
0
LINE
8
CUT
10
138.0000
20
130.0000
11
188.0000
21
130.0000
0
LINE
8
CUT
10
188.0000
20
130.0000
11
188.0000
21
138.0000
0
LINE
8
CUT
10
188.0000
20
138.0000
11
138.0000
21
138.0000
0
LINE
8
CUT
10
138.0000
20
138.0000
11
138.0000
21
130.0000
0
LINE
8
CUT
10
18.0000
20
150.0000
11
68.0000
21
150.0000
0
LINE
8
CUT
10
68.0000
20
150.0000
11
68.0000
21
158.0000
0
LINE
8
CUT
10
68.0000
20
158.0000
11
18.0000
21
158.0000
0
LINE
8
CUT
10
18.0000
20
158.0000
11
18.0000
21
150.0000
0
LINE
8
CUT
10
78.0000
20
150.0000
11
128.0000
21
150.0000
0
LINE
8
CUT
10
128.0000
20
150.0000
11
128.0000
21
158.0000
0
LINE
8
CUT
10
128.0000
20
158.0000
11
78.0000
21
158.0000
0
LINE
8
CUT
10
78.0000
20
158.0000
11
78.0000
21
150.0000
0
LINE
8
CUT
10
138.0000
20
150.0000
11
188.0000
21
150.0000
0
LINE
8
CUT
10
188.0000
20
150.0000
11
188.0000
21
158.0000
0
LINE
8
CUT
10
188.0000
20
158.0000
11
138.0000
21
158.0000
0
LINE
8
CUT
10
138.0000
20
158.0000
11
138.0000
21
150.0000
0
LINE
8
CUT
10
18.0000
20
170.0000
11
68.0000
21
170.0000
0
LINE
8
CUT
10
68.0000
20
170.0000
11
68.0000
21
178.0000
0
LINE
8
CUT
10
68.0000
20
178.0000
11
18.0000
21
178.0000
0
LINE
8
CUT
10
18.0000
20
178.0000
11
18.0000
21
170.0000
0
LINE
8
CUT
10
78.0000
20
170.0000
11
128.0000
21
170.0000
0
LINE
8
CUT
10
128.0000
20
170.0000
11
128.0000
21
178.0000
0
LINE
8
CUT
10
128.0000
20
178.0000
11
78.0000
21
178.0000
0
LINE
8
CUT
10
78.0000
20
178.0000
11
78.0000
21
170.0000
0
LINE
8
CUT
10
138.0000
20
170.0000
11
188.0000
21
170.0000
0
LINE
8
CUT
10
188.0000
20
170.0000
11
188.0000
21
178.0000
0
LINE
8
CUT
10
188.0000
20
178.0000
11
138.0000
21
178.0000
0
LINE
8
CUT
10
138.0000
20
178.0000
11
138.0000
21
170.0000
0
LINE
8
CUT
10
18.0000
20
190.0000
11
68.0000
21
190.0000
0
LINE
8
CUT
10
68.0000
20
190.0000
11
68.0000
21
198.0000
0
LINE
8
CUT
10
68.0000
20
198.0000
11
18.0000
21
198.0000
0
LINE
8
CUT
10
18.0000
20
198.0000
11
18.0000
21
190.0000
0
LINE
8
CUT
10
78.0000
20
190.0000
11
128.0000
21
190.0000
0
LINE
8
CUT
10
128.0000
20
190.0000
11
128.0000
21
198.0000
0
LINE
8
CUT
10
128.0000
20
198.0000
11
78.0000
21
198.0000
0
LINE
8
CUT
10
78.0000
20
198.0000
11
78.0000
21
190.0000
0
LINE
8
CUT
10
138.0000
20
190.0000
11
188.0000
21
190.0000
0
LINE
8
CUT
10
188.0000
20
190.0000
11
188.0000
21
198.0000
0
LINE
8
CUT
10
188.0000
20
198.0000
11
138.0000
21
198.0000
0
LINE
8
CUT
10
138.0000
20
198.0000
11
138.0000
21
190.0000
0
CIRCLE
8
CUT
10
103.0000
20
254.7000
40
1.7000
0
CIRCLE
8
CUT
10
103.0000
20
287.0000
40
1.7000
0
ENDSEC
0
EOF
