0
SECTION
2
HEADER
9
$INSUNITS
70
4
0
ENDSEC
0
SECTION
2
ENTITIES
0
LINE
8
CUT
10
10.0000
20
10.0000
11
558.0000
21
10.0000
0
LINE
8
CUT
10
558.0000
20
10.0000
11
558.0000
21
232.0000
0
LINE
8
CUT
10
558.0000
20
232.0000
11
10.0000
21
232.0000
0
LINE
8
CUT
10
10.0000
20
232.0000
11
10.0000
21
10.0000
0
LINE
8
CUT
10
52.3333
20
18.0000
11
72.3333
21
18.0000
0
LINE
8
CUT
10
72.3333
20
18.0000
11
72.3333
21
21.0000
0
LINE
8
CUT
10
72.3333
20
21.0000
11
52.3333
21
21.0000
0
LINE
8
CUT
10
52.3333
20
21.0000
11
52.3333
21
18.0000
0
LINE
8
CUT
10
52.3333
20
221.0000
11
72.3333
21
221.0000
0
LINE
8
CUT
10
72.3333
20
221.0000
11
72.3333
21
224.0000
0
LINE
8
CUT
10
72.3333
20
224.0000
11
52.3333
21
224.0000
0
LINE
8
CUT
10
52.3333
20
224.0000
11
52.3333
21
221.0000
0
LINE
8
CUT
10
141.0000
20
18.0000
11
161.0000
21
18.0000
0
LINE
8
CUT
10
161.0000
20
18.0000
11
161.0000
21
21.0000
0
LINE
8
CUT
10
161.0000
20
21.0000
11
141.0000
21
21.0000
0
LINE
8
CUT
10
141.0000
20
21.0000
11
141.0000
21
18.0000
0
LINE
8
CUT
10
141.0000
20
221.0000
11
161.0000
21
221.0000
0
LINE
8
CUT
10
161.0000
20
221.0000
11
161.0000
21
224.0000
0
LINE
8
CUT
10
161.0000
20
224.0000
11
141.0000
21
224.0000
0
LINE
8
CUT
10
141.0000
20
224.0000
11
141.0000
21
221.0000
0
LINE
8
CUT
10
229.6667
20
18.0000
11
249.6667
21
18.0000
0
LINE
8
CUT
10
249.6667
20
18.0000
11
249.6667
21
21.0000
0
LINE
8
CUT
10
249.6667
20
21.0000
11
229.6667
21
21.0000
0
LINE
8
CUT
10
229.6667
20
21.0000
11
229.6667
21
18.0000
0
LINE
8
CUT
10
229.6667
20
221.0000
11
249.6667
21
221.0000
0
LINE
8
CUT
10
249.6667
20
221.0000
11
249.6667
21
224.0000
0
LINE
8
CUT
10
249.6667
20
224.0000
11
229.6667
21
224.0000
0
LINE
8
CUT
10
229.6667
20
224.0000
11
229.6667
21
221.0000
0
LINE
8
CUT
10
318.3333
20
18.0000
11
338.3333
21
18.0000
0
LINE
8
CUT
10
338.3333
20
18.0000
11
338.3333
21
21.0000
0
LINE
8
CUT
10
338.3333
20
21.0000
11
318.3333
21
21.0000
0
LINE
8
CUT
10
318.3333
20
21.0000
11
318.3333
21
18.0000
0
LINE
8
CUT
10
318.3333
20
221.0000
11
338.3333
21
221.0000
0
LINE
8
CUT
10
338.3333
20
221.0000
11
338.3333
21
224.0000
0
LINE
8
CUT
10
338.3333
20
224.0000
11
318.3333
21
224.0000
0
LINE
8
CUT
10
318.3333
20
224.0000
11
318.3333
21
221.0000
0
LINE
8
CUT
10
407.0000
20
18.0000
11
427.0000
21
18.0000
0
LINE
8
CUT
10
427.0000
20
18.0000
11
427.0000
21
21.0000
0
LINE
8
CUT
10
427.0000
20
21.0000
11
407.0000
21
21.0000
0
LINE
8
CUT
10
407.0000
20
21.0000
11
407.0000
21
18.0000
0
LINE
8
CUT
10
407.0000
20
221.0000
11
427.0000
21
221.0000
0
LINE
8
CUT
10
427.0000
20
221.0000
11
427.0000
21
224.0000
0
LINE
8
CUT
10
427.0000
20
224.0000
11
407.0000
21
224.0000
0
LINE
8
CUT
10
407.0000
20
224.0000
11
407.0000
21
221.0000
0
LINE
8
CUT
10
495.6667
20
18.0000
11
515.6667
21
18.0000
0
LINE
8
CUT
10
515.6667
20
18.0000
11
515.6667
21
21.0000
0
LINE
8
CUT
10
515.6667
20
21.0000
11
495.6667
21
21.0000
0
LINE
8
CUT
10
495.6667
20
21.0000
11
495.6667
21
18.0000
0
LINE
8
CUT
10
495.6667
20
221.0000
11
515.6667
21
221.0000
0
LINE
8
CUT
10
515.6667
20
221.0000
11
515.6667
21
224.0000
0
LINE
8
CUT
10
515.6667
20
224.0000
11
495.6667
21
224.0000
0
LINE
8
CUT
10
495.6667
20
224.0000
11
495.6667
21
221.0000
0
LINE
8
CUT
10
18.0000
20
61.0000
11
21.0000
21
61.0000
0
LINE
8
CUT
10
21.0000
20
61.0000
11
21.0000
21
81.0000
0
LINE
8
CUT
10
21.0000
20
81.0000
11
18.0000
21
81.0000
0
LINE
8
CUT
10
18.0000
20
81.0000
11
18.0000
21
61.0000
0
LINE
8
CUT
10
18.0000
20
161.0000
11
21.0000
21
161.0000
0
LINE
8
CUT
10
21.0000
20
161.0000
11
21.0000
21
181.0000
0
LINE
8
CUT
10
21.0000
20
181.0000
11
18.0000
21
181.0000
0
LINE
8
CUT
10
18.0000
20
181.0000
11
18.0000
21
161.0000
0
LINE
8
CUT
10
131.0000
20
61.0000
11
134.0000
21
61.0000
0
LINE
8
CUT
10
134.0000
20
61.0000
11
134.0000
21
81.0000
0
LINE
8
CUT
10
134.0000
20
81.0000
11
131.0000
21
81.0000
0
LINE
8
CUT
10
131.0000
20
81.0000
11
131.0000
21
61.0000
0
LINE
8
CUT
10
131.0000
20
161.0000
11
134.0000
21
161.0000
0
LINE
8
CUT
10
134.0000
20
161.0000
11
134.0000
21
181.0000
0
LINE
8
CUT
10
134.0000
20
181.0000
11
131.0000
21
181.0000
0
LINE
8
CUT
10
131.0000
20
181.0000
11
131.0000
21
161.0000
0
LINE
8
CUT
10
454.0000
20
61.0000
11
457.0000
21
61.0000
0
LINE
8
CUT
10
457.0000
20
61.0000
11
457.0000
21
81.0000
0
LINE
8
CUT
10
457.0000
20
81.0000
11
454.0000
21
81.0000
0
LINE
8
CUT
10
454.0000
20
81.0000
11
454.0000
21
61.0000
0
LINE
8
CUT
10
454.0000
20
161.0000
11
457.0000
21
161.0000
0
LINE
8
CUT
10
457.0000
20
161.0000
11
457.0000
21
181.0000
0
LINE
8
CUT
10
457.0000
20
181.0000
11
454.0000
21
181.0000
0
LINE
8
CUT
10
454.0000
20
181.0000
11
454.0000
21
161.0000
0
LINE
8
CUT
10
547.0000
20
61.0000
11
550.0000
21
61.0000
0
LINE
8
CUT
10
550.0000
20
61.0000
11
550.0000
21
81.0000
0
LINE
8
CUT
10
550.0000
20
81.0000
11
547.0000
21
81.0000
0
LINE
8
CUT
10
547.0000
20
81.0000
11
547.0000
21
61.0000
0
LINE
8
CUT
10
547.0000
20
161.0000
11
550.0000
21
161.0000
0
LINE
8
CUT
10
550.0000
20
161.0000
11
550.0000
21
181.0000
0
LINE
8
CUT
10
550.0000
20
181.0000
11
547.0000
21
181.0000
0
LINE
8
CUT
10
547.0000
20
181.0000
11
547.0000
21
161.0000
0
CIRCLE
8
CUT
10
502.0000
20
121.0000
40
3.0000
0
LINE
8
CUT
10
10.0000
20
238.0000
11
124.5000
21
238.0000
0
LINE
8
CUT
10
124.5000
20
238.0000
11
124.5000
21
444.0000
0
LINE
8
CUT
10
124.5000
20
444.0000
11
10.0000
21
444.0000
0
LINE
8
CUT
10
10.0000
20
444.0000
11
10.0000
21
238.0000
0
LINE
8
CUT
10
30.0000
20
278.0000
11
36.0000
21
278.0000
0
LINE
8
CUT
10
36.0000
20
278.0000
11
36.0000
21
404.0000
0
LINE
8
CUT
10
36.0000
20
404.0000
11
30.0000
21
404.0000
0
LINE
8
CUT
10
30.0000
20
404.0000
11
30.0000
21
278.0000
0
LINE
8
CUT
10
44.0000
20
278.0000
11
50.0000
21
278.0000
0
LINE
8
CUT
10
50.0000
20
278.0000
11
50.0000
21
404.0000
0
LINE
8
CUT
10
50.0000
20
404.0000
11
44.0000
21
404.0000
0
LINE
8
CUT
10
44.0000
20
404.0000
11
44.0000
21
278.0000
0
LINE
8
CUT
10
58.0000
20
278.0000
11
64.0000
21
278.0000
0
LINE
8
CUT
10
64.0000
20
278.0000
11
64.0000
21
404.0000
0
LINE
8
CUT
10
64.0000
20
404.0000
11
58.0000
21
404.0000
0
LINE
8
CUT
10
58.0000
20
404.0000
11
58.0000
21
278.0000
0
LINE
8
CUT
10
72.0000
20
278.0000
11
78.0000
21
278.0000
0
LINE
8
CUT
10
78.0000
20
278.0000
11
78.0000
21
404.0000
0
LINE
8
CUT
10
78.0000
20
404.0000
11
72.0000
21
404.0000
0
LINE
8
CUT
10
72.0000
20
404.0000
11
72.0000
21
278.0000
0
LINE
8
CUT
10
86.0000
20
278.0000
11
92.0000
21
278.0000
0
LINE
8
CUT
10
92.0000
20
278.0000
11
92.0000
21
404.0000
0
LINE
8
CUT
10
92.0000
20
404.0000
11
86.0000
21
404.0000
0
LINE
8
CUT
10
86.0000
20
404.0000
11
86.0000
21
278.0000
0
LINE
8
CUT
10
130.5000
20
238.0000
11
453.5000
21
238.0000
0
LINE
8
CUT
10
453.5000
20
238.0000
11
453.5000
21
444.0000
0
LINE
8
CUT
10
453.5000
20
444.0000
11
130.5000
21
444.0000
0
LINE
8
CUT
10
130.5000
20
444.0000
11
130.5000
21
238.0000
0
LINE
8
CUT
10
148.5000
20
283.0000
11
154.5000
21
283.0000
0
LINE
8
CUT
10
154.5000
20
283.0000
11
154.5000
21
399.0000
0
LINE
8
CUT
10
154.5000
20
399.0000
11
148.5000
21
399.0000
0
LINE
8
CUT
10
148.5000
20
399.0000
11
148.5000
21
283.0000
0
LINE
8
CUT
10
162.5000
20
283.0000
11
168.5000
21
283.0000
0
LINE
8
CUT
10
168.5000
20
283.0000
11
168.5000
21
399.0000
0
LINE
8
CUT
10
168.5000
20
399.0000
11
162.5000
21
399.0000
0
LINE
8
CUT
10
162.5000
20
399.0000
11
162.5000
21
283.0000
0
LINE
8
CUT
10
176.5000
20
283.0000
11
182.5000
21
283.0000
0
LINE
8
CUT
10
182.5000
20
283.0000
11
182.5000
21
399.0000
0
LINE
8
CUT
10
182.5000
20
399.0000
11
176.5000
21
399.0000
0
LINE
8
CUT
10
176.5000
20
399.0000
11
176.5000
21
283.0000
0
LINE
8
CUT
10
190.5000
20
283.0000
11
196.5000
21
283.0000
0
LINE
8
CUT
10
196.5000
20
283.0000
11
196.5000
21
399.0000
0
LINE
8
CUT
10
196.5000
20
399.0000
11
190.5000
21
399.0000
0
LINE
8
CUT
10
190.5000
20
399.0000
11
190.5000
21
283.0000
0
LINE
8
CUT
10
225.5000
20
319.0000
11
228.5000
21
319.0000
0
LINE
8
CUT
10
228.5000
20
319.0000
11
228.5000
21
329.0000
0
LINE
8
CUT
10
228.5000
20
329.0000
11
225.5000
21
329.0000
0
LINE
8
CUT
10
225.5000
20
329.0000
11
225.5000
21
319.0000
0
LINE
8
CUT
10
225.5000
20
353.0000
11
228.5000
21
353.0000
0
LINE
8
CUT
10
228.5000
20
353.0000
11
228.5000
21
363.0000
0
LINE
8
CUT
10
228.5000
20
363.0000
11
225.5000
21
363.0000
0
LINE
8
CUT
10
225.5000
20
363.0000
11
225.5000
21
353.0000
0
CIRCLE
8
CUT
10
245.5000
20
419.0000
40
3.0000
0
CIRCLE
8
CUT
10
393.5000
20
341.0000
40
12.5000
0
LINE
8
CUT
10
459.5000
20
238.0000
11
554.0000
21
238.0000
0
LINE
8
CUT
10
554.0000
20
238.0000
11
554.0000
21
444.0000
0
LINE
8
CUT
10
554.0000
20
444.0000
11
459.5000
21
444.0000
0
LINE
8
CUT
10
459.5000
20
444.0000
11
459.5000
21
358.0000
0
LINE
8
CUT
10
459.5000
20
358.0000
11
465.5000
21
358.0000
0
LINE
8
CUT
10
465.5000
20
358.0000
11
465.5000
21
324.0000
0
LINE
8
CUT
10
465.5000
20
324.0000
11
459.5000
21
324.0000
0
LINE
8
CUT
10
459.5000
20
324.0000
11
459.5000
21
238.0000
0
CIRCLE
8
CUT
10
516.7500
20
341.0000
40
10.0000
0
LINE
8
CUT
10
567.0000
20
13.0000
11
607.0000
21
13.0000
0
LINE
8
CUT
10
607.0000
20
13.0000
11
607.0000
21
10.0000
0
LINE
8
CUT
10
607.0000
20
10.0000
11
627.0000
21
10.0000
0
LINE
8
CUT
10
627.0000
20
10.0000
11
627.0000
21
13.0000
0
LINE
8
CUT
10
627.0000
20
13.0000
11
707.0000
21
13.0000
0
LINE
8
CUT
10
707.0000
20
13.0000
11
707.0000
21
10.0000
0
LINE
8
CUT
10
707.0000
20
10.0000
11
727.0000
21
10.0000
0
LINE
8
CUT
10
727.0000
20
10.0000
11
727.0000
21
13.0000
0
LINE
8
CUT
10
727.0000
20
13.0000
11
767.0000
21
13.0000
0
LINE
8
CUT
10
767.0000
20
13.0000
11
767.0000
21
48.0000
0
LINE
8
CUT
10
767.0000
20
48.0000
11
770.0000
21
48.0000
0
LINE
8
CUT
10
770.0000
20
48.0000
11
770.0000
21
68.0000
0
LINE
8
CUT
10
770.0000
20
68.0000
11
767.0000
21
68.0000
0
LINE
8
CUT
10
767.0000
20
68.0000
11
767.0000
21
128.0000
0
LINE
8
CUT
10
767.0000
20
128.0000
11
770.0000
21
128.0000
0
LINE
8
CUT
10
770.0000
20
128.0000
11
770.0000
21
148.0000
0
LINE
8
CUT
10
770.0000
20
148.0000
11
767.0000
21
148.0000
0
LINE
8
CUT
10
767.0000
20
148.0000
11
767.0000
21
208.0000
0
LINE
8
CUT
10
767.0000
20
208.0000
11
770.0000
21
208.0000
0
LINE
8
CUT
10
770.0000
20
208.0000
11
770.0000
21
228.0000
0
LINE
8
CUT
10
770.0000
20
228.0000
11
767.0000
21
228.0000
0
LINE
8
CUT
10
767.0000
20
228.0000
11
767.0000
21
263.0000
0
LINE
8
CUT
10
767.0000
20
263.0000
11
567.0000
21
263.0000
0
LINE
8
CUT
10
567.0000
20
263.0000
11
567.0000
21
228.0000
0
LINE
8
CUT
10
567.0000
20
228.0000
11
564.0000
21
228.0000
0
LINE
8
CUT
10
564.0000
20
228.0000
11
564.0000
21
208.0000
0
LINE
8
CUT
10
564.0000
20
208.0000
11
567.0000
21
208.0000
0
LINE
8
CUT
10
567.0000
20
208.0000
11
567.0000
21
148.0000
0
LINE
8
CUT
10
567.0000
20
148.0000
11
564.0000
21
148.0000
0
LINE
8
CUT
10
564.0000
20
148.0000
11
564.0000
21
128.0000
0
LINE
8
CUT
10
564.0000
20
128.0000
11
567.0000
21
128.0000
0
LINE
8
CUT
10
567.0000
20
128.0000
11
567.0000
21
68.0000
0
LINE
8
CUT
10
567.0000
20
68.0000
11
564.0000
21
68.0000
0
LINE
8
CUT
10
564.0000
20
68.0000
11
564.0000
21
48.0000
0
LINE
8
CUT
10
564.0000
20
48.0000
11
567.0000
21
48.0000
0
LINE
8
CUT
10
567.0000
20
48.0000
11
567.0000
21
13.0000
0
CIRCLE
8
CUT
10
607.0000
20
73.0000
40
6.0000
0
CIRCLE
8
CUT
10
647.0000
20
73.0000
40
6.0000
0
CIRCLE
8
CUT
10
687.0000
20
73.0000
40
6.0000
0
CIRCLE
8
CUT
10
727.0000
20
73.0000
40
6.0000
0
CIRCLE
8
CUT
10
667.0000
20
183.0000
40
6.0000
0
CIRCLE
8
CUT
10
737.0000
20
248.0000
40
4.0000
0
LINE
8
CUT
10
567.0000
20
272.0000
11
607.0000
21
272.0000
0
LINE
8
CUT
10
607.0000
20
272.0000
11
607.0000
21
269.0000
0
LINE
8
CUT
10
607.0000
20
269.0000
11
627.0000
21
269.0000
0
LINE
8
CUT
10
627.0000
20
269.0000
11
627.0000
21
272.0000
0
LINE
8
CUT
10
627.0000
20
272.0000
11
707.0000
21
272.0000
0
LINE
8
CUT
10
707.0000
20
272.0000
11
707.0000
21
269.0000
0
LINE
8
CUT
10
707.0000
20
269.0000
11
727.0000
21
269.0000
0
LINE
8
CUT
10
727.0000
20
269.0000
11
727.0000
21
272.0000
0
LINE
8
CUT
10
727.0000
20
272.0000
11
767.0000
21
272.0000
0
LINE
8
CUT
10
767.0000
20
272.0000
11
767.0000
21
307.0000
0
LINE
8
CUT
10
767.0000
20
307.0000
11
770.0000
21
307.0000
0
LINE
8
CUT
10
770.0000
20
307.0000
11
770.0000
21
327.0000
0
LINE
8
CUT
10
770.0000
20
327.0000
11
767.0000
21
327.0000
0
LINE
8
CUT
10
767.0000
20
327.0000
11
767.0000
21
387.0000
0
LINE
8
CUT
10
767.0000
20
387.0000
11
770.0000
21
387.0000
0
LINE
8
CUT
10
770.0000
20
387.0000
11
770.0000
21
407.0000
0
LINE
8
CUT
10
770.0000
20
407.0000
11
767.0000
21
407.0000
0
LINE
8
CUT
10
767.0000
20
407.0000
11
767.0000
21
467.0000
0
LINE
8
CUT
10
767.0000
20
467.0000
11
770.0000
21
467.0000
0
LINE
8
CUT
10
770.0000
20
467.0000
11
770.0000
21
487.0000
0
LINE
8
CUT
10
770.0000
20
487.0000
11
767.0000
21
487.0000
0
LINE
8
CUT
10
767.0000
20
487.0000
11
767.0000
21
522.0000
0
LINE
8
CUT
10
767.0000
20
522.0000
11
567.0000
21
522.0000
0
LINE
8
CUT
10
567.0000
20
522.0000
11
567.0000
21
487.0000
0
LINE
8
CUT
10
567.0000
20
487.0000
11
564.0000
21
487.0000
0
LINE
8
CUT
10
564.0000
20
487.0000
11
564.0000
21
467.0000
0
LINE
8
CUT
10
564.0000
20
467.0000
11
567.0000
21
467.0000
0
LINE
8
CUT
10
567.0000
20
467.0000
11
567.0000
21
407.0000
0
LINE
8
CUT
10
567.0000
20
407.0000
11
564.0000
21
407.0000
0
LINE
8
CUT
10
564.0000
20
407.0000
11
564.0000
21
387.0000
0
LINE
8
CUT
10
564.0000
20
387.0000
11
567.0000
21
387.0000
0
LINE
8
CUT
10
567.0000
20
387.0000
11
567.0000
21
327.0000
0
LINE
8
CUT
10
567.0000
20
327.0000
11
564.0000
21
327.0000
0
LINE
8
CUT
10
564.0000
20
327.0000
11
564.0000
21
307.0000
0
LINE
8
CUT
10
564.0000
20
307.0000
11
567.0000
21
307.0000
0
LINE
8
CUT
10
567.0000
20
307.0000
11
567.0000
21
272.0000
0
LINE
8
CUT
10
582.0000
20
302.0000
11
632.0000
21
302.0000
0
LINE
8
CUT
10
632.0000
20
302.0000
11
632.0000
21
310.0000
0
LINE
8
CUT
10
632.0000
20
310.0000
11
582.0000
21
310.0000
0
LINE
8
CUT
10
582.0000
20
310.0000
11
582.0000
21
302.0000
0
LINE
8
CUT
10
642.0000
20
302.0000
11
692.0000
21
302.0000
0
LINE
8
CUT
10
692.0000
20
302.0000
11
692.0000
21
310.0000
0
LINE
8
CUT
10
692.0000
20
310.0000
11
642.0000
21
310.0000
0
LINE
8
CUT
10
642.0000
20
310.0000
11
642.0000
21
302.0000
0
LINE
8
CUT
10
702.0000
20
302.0000
11
752.0000
21
302.0000
0
LINE
8
CUT
10
752.0000
20
302.0000
11
752.0000
21
310.0000
0
LINE
8
CUT
10
752.0000
20
310.0000
11
702.0000
21
310.0000
0
LINE
8
CUT
10
702.0000
20
310.0000
11
702.0000
21
302.0000
0
LINE
8
CUT
10
582.0000
20
322.0000
11
632.0000
21
322.0000
0
LINE
8
CUT
10
632.0000
20
322.0000
11
632.0000
21
330.0000
0
LINE
8
CUT
10
632.0000
20
330.0000
11
582.0000
21
330.0000
0
LINE
8
CUT
10
582.0000
20
330.0000
11
582.0000
21
322.0000
0
LINE
8
CUT
10
642.0000
20
322.0000
11
692.0000
21
322.0000
0
LINE
8
CUT
10
692.0000
20
322.0000
11
692.0000
21
330.0000
0
LINE
8
CUT
10
692.0000
20
330.0000
11
642.0000
21
330.0000
0
LINE
8
CUT
10
642.0000
20
330.0000
11
642.0000
21
322.0000
0
LINE
8
CUT
10
702.0000
20
322.0000
11
752.0000
21
322.0000
0
LINE
8
CUT
10
752.0000
20
322.0000
11
752.0000
21
330.0000
0
LINE
8
CUT
10
752.0000
20
330.0000
11
702.0000
21
330.0000
0
LINE
8
CUT
10
702.0000
20
330.0000
11
702.0000
21
322.0000
0
LINE
8
CUT
10
582.0000
20
342.0000
11
632.0000
21
342.0000
0
LINE
8
CUT
10
632.0000
20
342.0000
11
632.0000
21
350.0000
0
LINE
8
CUT
10
632.0000
20
350.0000
11
582.0000
21
350.0000
0
LINE
8
CUT
10
582.0000
20
350.0000
11
582.0000
21
342.0000
0
LINE
8
CUT
10
642.0000
20
342.0000
11
692.0000
21
342.0000
0
LINE
8
CUT
10
692.0000
20
342.0000
11
692.0000
21
350.0000
0
LINE
8
CUT
10
692.0000
20
350.0000
11
642.0000
21
350.0000
0
LINE
8
CUT
10
642.0000
20
350.0000
11
642.0000
21
342.0000
0
LINE
8
CUT
10
702.0000
20
342.0000
11
752.0000
21
342.0000
0
LINE
8
CUT
10
752.0000
20
342.0000
11
752.0000
21
350.0000
0
LINE
8
CUT
10
752.0000
20
350.0000
11
702.0000
21
350.0000
0
LINE
8
CUT
10
702.0000
20
350.0000
11
702.0000
21
342.0000
0
LINE
8
CUT
10
582.0000
20
362.0000
11
632.0000
21
362.0000
0
LINE
8
CUT
10
632.0000
20
362.0000
11
632.0000
21
370.0000
0
LINE
8
CUT
10
632.0000
20
370.0000
11
582.0000
21
370.0000
0
LINE
8
CUT
10
582.0000
20
370.0000
11
582.0000
21
362.0000
0
LINE
8
CUT
10
642.0000
20
362.0000
11
692.0000
21
362.0000
0
LINE
8
CUT
10
692.0000
20
362.0000
11
692.0000
21
370.0000
0
LINE
8
CUT
10
692.0000
20
370.0000
11
642.0000
21
370.0000
0
LINE
8
CUT
10
642.0000
20
370.0000
11
642.0000
21
362.0000
0
LINE
8
CUT
10
702.0000
20
362.0000
11
752.0000
21
362.0000
0
LINE
8
CUT
10
752.0000
20
362.0000
11
752.0000
21
370.0000
0
LINE
8
CUT
10
752.0000
20
370.0000
11
702.0000
21
370.0000
0
LINE
8
CUT
10
702.0000
20
370.0000
11
702.0000
21
362.0000
0
LINE
8
CUT
10
582.0000
20
382.0000
11
632.0000
21
382.0000
0
LINE
8
CUT
10
632.0000
20
382.0000
11
632.0000
21
390.0000
0
LINE
8
CUT
10
632.0000
20
390.0000
11
582.0000
21
390.0000
0
LINE
8
CUT
10
582.0000
20
390.0000
11
582.0000
21
382.0000
0
LINE
8
CUT
10
642.0000
20
382.0000
11
692.0000
21
382.0000
0
LINE
8
CUT
10
692.0000
20
382.0000
11
692.0000
21
390.0000
0
LINE
8
CUT
10
692.0000
20
390.0000
11
642.0000
21
390.0000
0
LINE
8
CUT
10
642.0000
20
390.0000
11
642.0000
21
382.0000
0
LINE
8
CUT
10
702.0000
20
382.0000
11
752.0000
21
382.0000
0
LINE
8
CUT
10
752.0000
20
382.0000
11
752.0000
21
390.0000
0
LINE
8
CUT
10
752.0000
20
390.0000
11
702.0000
21
390.0000
0
LINE
8
CUT
10
702.0000
20
390.0000
11
702.0000
21
382.0000
0
LINE
8
CUT
10
582.0000
20
402.0000
11
632.0000
21
402.0000
0
LINE
8
CUT
10
632.0000
20
402.0000
11
632.0000
21
410.0000
0
LINE
8
CUT
10
632.0000
20
410.0000
11
582.0000
21
410.0000
0
LINE
8
CUT
10
582.0000
20
410.0000
11
582.0000
21
402.0000
0
LINE
8
CUT
10
642.0000
20
402.0000
11
692.0000
21
402.0000
0
LINE
8
CUT
10
692.0000
20
402.0000
11
692.0000
21
410.0000
0
LINE
8
CUT
10
692.0000
20
410.0000
11
642.0000
21
410.0000
0
LINE
8
CUT
10
642.0000
20
410.0000
11
642.0000
21
402.0000
0
LINE
8
CUT
10
702.0000
20
402.0000
11
752.0000
21
402.0000
0
LINE
8
CUT
10
752.0000
20
402.0000
11
752.0000
21
410.0000
0
LINE
8
CUT
10
752.0000
20
410.0000
11
702.0000
21
410.0000
0
LINE
8
CUT
10
702.0000
20
410.0000
11
702.0000
21
402.0000
0
LINE
8
CUT
10
582.0000
20
422.0000
11
632.0000
21
422.0000
0
LINE
8
CUT
10
632.0000
20
422.0000
11
632.0000
21
430.0000
0
LINE
8
CUT
10
632.0000
20
430.0000
11
582.0000
21
430.0000
0
LINE
8
CUT
10
582.0000
20
430.0000
11
582.0000
21
422.0000
0
LINE
8
CUT
10
642.0000
20
422.0000
11
692.0000
21
422.0000
0
LINE
8
CUT
10
692.0000
20
422.0000
11
692.0000
21
430.0000
0
LINE
8
CUT
10
692.0000
20
430.0000
11
642.0000
21
430.0000
0
LINE
8
CUT
10
642.0000
20
430.0000
11
642.0000
21
422.0000
0
LINE
8
CUT
10
702.0000
20
422.0000
11
752.0000
21
422.0000
0
LINE
8
CUT
10
752.0000
20
422.0000
11
752.0000
21
430.0000
0
LINE
8
CUT
10
752.0000
20
430.0000
11
702.0000
21
430.0000
0
LINE
8
CUT
10
702.0000
20
430.0000
11
702.0000
21
422.0000
0
LINE
8
CUT
10
582.0000
20
442.0000
11
632.0000
21
442.0000
0
LINE
8
CUT
10
632.0000
20
442.0000
11
632.0000
21
450.0000
0
LINE
8
CUT
10
632.0000
20
450.0000
11
582.0000
21
450.0000
0
LINE
8
CUT
10
582.0000
20
450.0000
11
582.0000
21
442.0000
0
LINE
8
CUT
10
642.0000
20
442.0000
11
692.0000
21
442.0000
0
LINE
8
CUT
10
692.0000
20
442.0000
11
692.0000
21
450.0000
0
LINE
8
CUT
10
692.0000
20
450.0000
11
642.0000
21
450.0000
0
LINE
8
CUT
10
642.0000
20
450.0000
11
642.0000
21
442.0000
0
LINE
8
CUT
10
702.0000
20
442.0000
11
752.0000
21
442.0000
0
LINE
8
CUT
10
752.0000
20
442.0000
11
752.0000
21
450.0000
0
LINE
8
CUT
10
752.0000
20
450.0000
11
702.0000
21
450.0000
0
LINE
8
CUT
10
702.0000
20
450.0000
11
702.0000
21
442.0000
0
LINE
8
CUT
10
582.0000
20
462.0000
11
632.0000
21
462.0000
0
LINE
8
CUT
10
632.0000
20
462.0000
11
632.0000
21
470.0000
0
LINE
8
CUT
10
632.0000
20
470.0000
11
582.0000
21
470.0000
0
LINE
8
CUT
10
582.0000
20
470.0000
11
582.0000
21
462.0000
0
LINE
8
CUT
10
642.0000
20
462.0000
11
692.0000
21
462.0000
0
LINE
8
CUT
10
692.0000
20
462.0000
11
692.0000
21
470.0000
0
LINE
8
CUT
10
692.0000
20
470.0000
11
642.0000
21
470.0000
0
LINE
8
CUT
10
642.0000
20
470.0000
11
642.0000
21
462.0000
0
LINE
8
CUT
10
702.0000
20
462.0000
11
752.0000
21
462.0000
0
LINE
8
CUT
10
752.0000
20
462.0000
11
752.0000
21
470.0000
0
LINE
8
CUT
10
752.0000
20
470.0000
11
702.0000
21
470.0000
0
LINE
8
CUT
10
702.0000
20
470.0000
11
702.0000
21
462.0000
0
CIRCLE
8
CUT
10
737.0000
20
507.0000
40
4.0000
0
LINE
8
CUT
10
776.0000
20
10.0000
11
880.0000
21
10.0000
0
LINE
8
CUT
10
880.0000
20
10.0000
11
880.0000
21
200.0000
0
LINE
8
CUT
10
880.0000
20
200.0000
11
776.0000
21
200.0000
0
LINE
8
CUT
10
776.0000
20
200.0000
11
776.0000
21
10.0000
0
CIRCLE
8
CUT
10
783.0000
20
20.0000
40
1.6000
0
CIRCLE
8
CUT
10
783.0000
20
30.0000
40
1.6000
0
CIRCLE
8
CUT
10
783.0000
20
40.0000
40
1.6000
0
CIRCLE
8
CUT
10
783.0000
20
50.0000
40
1.6000
0
CIRCLE
8
CUT
10
783.0000
20
60.0000
40
1.6000
0
CIRCLE
8
CUT
10
783.0000
20
70.0000
40
1.6000
0
CIRCLE
8
CUT
10
783.0000
20
80.0000
40
1.6000
0
CIRCLE
8
CUT
10
783.0000
20
90.0000
40
1.6000
0
CIRCLE
8
CUT
10
783.0000
20
100.0000
40
1.6000
0
CIRCLE
8
CUT
10
783.0000
20
110.0000
40
1.6000
0
CIRCLE
8
CUT
10
783.0000
20
120.0000
40
1.6000
0
CIRCLE
8
CUT
10
783.0000
20
130.0000
40
1.6000
0
CIRCLE
8
CUT
10
783.0000
20
140.0000
40
1.6000
0
CIRCLE
8
CUT
10
783.0000
20
150.0000
40
1.6000
0
CIRCLE
8
CUT
10
783.0000
20
160.0000
40
1.6000
0
CIRCLE
8
CUT
10
783.0000
20
170.0000
40
1.6000
0
CIRCLE
8
CUT
10
783.0000
20
180.0000
40
1.6000
0
CIRCLE
8
CUT
10
783.0000
20
190.0000
40
1.6000
0
CIRCLE
8
CUT
10
793.0000
20
20.0000
40
1.6000
0
CIRCLE
8
CUT
10
793.0000
20
30.0000
40
1.6000
0
CIRCLE
8
CUT
10
793.0000
20
40.0000
40
1.6000
0
CIRCLE
8
CUT
10
793.0000
20
50.0000
40
1.6000
0
CIRCLE
8
CUT
10
793.0000
20
60.0000
40
1.6000
0
CIRCLE
8
CUT
10
793.0000
20
70.0000
40
1.6000
0
CIRCLE
8
CUT
10
793.0000
20
80.0000
40
1.6000
0
CIRCLE
8
CUT
10
793.0000
20
90.0000
40
1.6000
0
CIRCLE
8
CUT
10
793.0000
20
100.0000
40
1.6000
0
CIRCLE
8
CUT
10
793.0000
20
110.0000
40
1.6000
0
CIRCLE
8
CUT
10
793.0000
20
120.0000
40
1.6000
0
CIRCLE
8
CUT
10
793.0000
20
130.0000
40
1.6000
0
CIRCLE
8
CUT
10
793.0000
20
140.0000
40
1.6000
0
CIRCLE
8
CUT
10
793.0000
20
150.0000
40
1.6000
0
CIRCLE
8
CUT
10
793.0000
20
160.0000
40
1.6000
0
CIRCLE
8
CUT
10
793.0000
20
170.0000
40
1.6000
0
CIRCLE
8
CUT
10
793.0000
20
180.0000
40
1.6000
0
CIRCLE
8
CUT
10
793.0000
20
190.0000
40
1.6000
0
CIRCLE
8
CUT
10
803.0000
20
20.0000
40
1.6000
0
CIRCLE
8
CUT
10
803.0000
20
30.0000
40
1.6000
0
CIRCLE
8
CUT
10
803.0000
20
40.0000
40
1.6000
0
CIRCLE
8
CUT
10
803.0000
20
50.0000
40
1.6000
0
CIRCLE
8
CUT
10
803.0000
20
60.0000
40
1.6000
0
CIRCLE
8
CUT
10
803.0000
20
70.0000
40
1.6000
0
CIRCLE
8
CUT
10
803.0000
20
80.0000
40
1.6000
0
CIRCLE
8
CUT
10
803.0000
20
90.0000
40
1.6000
0
CIRCLE
8
CUT
10
803.0000
20
100.0000
40
1.6000
0
CIRCLE
8
CUT
10
803.0000
20
110.0000
40
1.6000
0
CIRCLE
8
CUT
10
803.0000
20
120.0000
40
1.6000
0
CIRCLE
8
CUT
10
803.0000
20
130.0000
40
1.6000
0
CIRCLE
8
CUT
10
803.0000
20
140.0000
40
1.6000
0
CIRCLE
8
CUT
10
803.0000
20
150.0000
40
1.6000
0
CIRCLE
8
CUT
10
803.0000
20
160.0000
40
1.6000
0
CIRCLE
8
CUT
10
803.0000
20
170.0000
40
1.6000
0
CIRCLE
8
CUT
10
803.0000
20
180.0000
40
1.6000
0
CIRCLE
8
CUT
10
803.0000
20
190.0000
40
1.6000
0
CIRCLE
8
CUT
10
813.0000
20
20.0000
40
1.6000
0
CIRCLE
8
CUT
10
813.0000
20
30.0000
40
1.6000
0
CIRCLE
8
CUT
10
813.0000
20
40.0000
40
1.6000
0
CIRCLE
8
CUT
10
813.0000
20
50.0000
40
1.6000
0
CIRCLE
8
CUT
10
813.0000
20
60.0000
40
1.6000
0
CIRCLE
8
CUT
10
813.0000
20
70.0000
40
1.6000
0
CIRCLE
8
CUT
10
813.0000
20
80.0000
40
1.6000
0
CIRCLE
8
CUT
10
813.0000
20
90.0000
40
1.6000
0
CIRCLE
8
CUT
10
813.0000
20
100.0000
40
1.6000
0
CIRCLE
8
CUT
10
813.0000
20
110.0000
40
1.6000
0
CIRCLE
8
CUT
10
813.0000
20
120.0000
40
1.6000
0
CIRCLE
8
CUT
10
813.0000
20
130.0000
40
1.6000
0
CIRCLE
8
CUT
10
813.0000
20
140.0000
40
1.6000
0
CIRCLE
8
CUT
10
813.0000
20
150.0000
40
1.6000
0
CIRCLE
8
CUT
10
813.0000
20
160.0000
40
1.6000
0
CIRCLE
8
CUT
10
813.0000
20
170.0000
40
1.6000
0
CIRCLE
8
CUT
10
813.0000
20
180.0000
40
1.6000
0
CIRCLE
8
CUT
10
813.0000
20
190.0000
40
1.6000
0
CIRCLE
8
CUT
10
823.0000
20
20.0000
40
1.6000
0
CIRCLE
8
CUT
10
823.0000
20
30.0000
40
1.6000
0
CIRCLE
8
CUT
10
823.0000
20
40.0000
40
1.6000
0
CIRCLE
8
CUT
10
823.0000
20
50.0000
40
1.6000
0
CIRCLE
8
CUT
10
823.0000
20
60.0000
40
1.6000
0
CIRCLE
8
CUT
10
823.0000
20
70.0000
40
1.6000
0
CIRCLE
8
CUT
10
823.0000
20
80.0000
40
1.6000
0
CIRCLE
8
CUT
10
823.0000
20
90.0000
40
1.6000
0
CIRCLE
8
CUT
10
823.0000
20
100.0000
40
1.6000
0
CIRCLE
8
CUT
10
823.0000
20
110.0000
40
1.6000
0
CIRCLE
8
CUT
10
823.0000
20
120.0000
40
1.6000
0
CIRCLE
8
CUT
10
823.0000
20
130.0000
40
1.6000
0
CIRCLE
8
CUT
10
823.0000
20
140.0000
40
1.6000
0
CIRCLE
8
CUT
10
823.0000
20
150.0000
40
1.6000
0
CIRCLE
8
CUT
10
823.0000
20
160.0000
40
1.6000
0
CIRCLE
8
CUT
10
823.0000
20
170.0000
40
1.6000
0
CIRCLE
8
CUT
10
823.0000
20
180.0000
40
1.6000
0
CIRCLE
8
CUT
10
823.0000
20
190.0000
40
1.6000
0
CIRCLE
8
CUT
10
833.0000
20
20.0000
40
1.6000
0
CIRCLE
8
CUT
10
833.0000
20
30.0000
40
1.6000
0
CIRCLE
8
CUT
10
833.0000
20
40.0000
40
1.6000
0
CIRCLE
8
CUT
10
833.0000
20
50.0000
40
1.6000
0
CIRCLE
8
CUT
10
833.0000
20
60.0000
40
1.6000
0
CIRCLE
8
CUT
10
833.0000
20
70.0000
40
1.6000
0
CIRCLE
8
CUT
10
833.0000
20
80.0000
40
1.6000
0
CIRCLE
8
CUT
10
833.0000
20
90.0000
40
1.6000
0
CIRCLE
8
CUT
10
833.0000
20
100.0000
40
1.6000
0
CIRCLE
8
CUT
10
833.0000
20
110.0000
40
1.6000
0
CIRCLE
8
CUT
10
833.0000
20
120.0000
40
1.6000
0
CIRCLE
8
CUT
10
833.0000
20
130.0000
40
1.6000
0
CIRCLE
8
CUT
10
833.0000
20
140.0000
40
1.6000
0
CIRCLE
8
CUT
10
833.0000
20
150.0000
40
1.6000
0
CIRCLE
8
CUT
10
833.0000
20
160.0000
40
1.6000
0
CIRCLE
8
CUT
10
833.0000
20
170.0000
40
1.6000
0
CIRCLE
8
CUT
10
833.0000
20
180.0000
40
1.6000
0
CIRCLE
8
CUT
10
833.0000
20
190.0000
40
1.6000
0
CIRCLE
8
CUT
10
843.0000
20
20.0000
40
1.6000
0
CIRCLE
8
CUT
10
843.0000
20
30.0000
40
1.6000
0
CIRCLE
8
CUT
10
843.0000
20
40.0000
40
1.6000
0
CIRCLE
8
CUT
10
843.0000
20
50.0000
40
1.6000
0
CIRCLE
8
CUT
10
843.0000
20
60.0000
40
1.6000
0
CIRCLE
8
CUT
10
843.0000
20
70.0000
40
1.6000
0
CIRCLE
8
CUT
10
843.0000
20
80.0000
40
1.6000
0
CIRCLE
8
CUT
10
843.0000
20
90.0000
40
1.6000
0
CIRCLE
8
CUT
10
843.0000
20
100.0000
40
1.6000
0
CIRCLE
8
CUT
10
843.0000
20
110.0000
40
1.6000
0
CIRCLE
8
CUT
10
843.0000
20
120.0000
40
1.6000
0
CIRCLE
8
CUT
10
843.0000
20
130.0000
40
1.6000
0
CIRCLE
8
CUT
10
843.0000
20
140.0000
40
1.6000
0
CIRCLE
8
CUT
10
843.0000
20
150.0000
40
1.6000
0
CIRCLE
8
CUT
10
843.0000
20
160.0000
40
1.6000
0
CIRCLE
8
CUT
10
843.0000
20
170.0000
40
1.6000
0
CIRCLE
8
CUT
10
843.0000
20
180.0000
40
1.6000
0
CIRCLE
8
CUT
10
843.0000
20
190.0000
40
1.6000
0
CIRCLE
8
CUT
10
853.0000
20
20.0000
40
1.6000
0
CIRCLE
8
CUT
10
853.0000
20
30.0000
40
1.6000
0
CIRCLE
8
CUT
10
853.0000
20
40.0000
40
1.6000
0
CIRCLE
8
CUT
10
853.0000
20
50.0000
40
1.6000
0
CIRCLE
8
CUT
10
853.0000
20
60.0000
40
1.6000
0
CIRCLE
8
CUT
10
853.0000
20
70.0000
40
1.6000
0
CIRCLE
8
CUT
10
853.0000
20
80.0000
40
1.6000
0
CIRCLE
8
CUT
10
853.0000
20
90.0000
40
1.6000
0
CIRCLE
8
CUT
10
853.0000
20
100.0000
40
1.6000
0
CIRCLE
8
CUT
10
853.0000
20
110.0000
40
1.6000
0
CIRCLE
8
CUT
10
853.0000
20
120.0000
40
1.6000
0
CIRCLE
8
CUT
10
853.0000
20
130.0000
40
1.6000
0
CIRCLE
8
CUT
10
853.0000
20
140.0000
40
1.6000
0
CIRCLE
8
CUT
10
853.0000
20
150.0000
40
1.6000
0
CIRCLE
8
CUT
10
853.0000
20
160.0000
40
1.6000
0
CIRCLE
8
CUT
10
853.0000
20
170.0000
40
1.6000
0
CIRCLE
8
CUT
10
853.0000
20
180.0000
40
1.6000
0
CIRCLE
8
CUT
10
853.0000
20
190.0000
40
1.6000
0
CIRCLE
8
CUT
10
863.0000
20
20.0000
40
1.6000
0
CIRCLE
8
CUT
10
863.0000
20
30.0000
40
1.6000
0
CIRCLE
8
CUT
10
863.0000
20
40.0000
40
1.6000
0
CIRCLE
8
CUT
10
863.0000
20
50.0000
40
1.6000
0
CIRCLE
8
CUT
10
863.0000
20
60.0000
40
1.6000
0
CIRCLE
8
CUT
10
863.0000
20
70.0000
40
1.6000
0
CIRCLE
8
CUT
10
863.0000
20
80.0000
40
1.6000
0
CIRCLE
8
CUT
10
863.0000
20
90.0000
40
1.6000
0
CIRCLE
8
CUT
10
863.0000
20
100.0000
40
1.6000
0
CIRCLE
8
CUT
10
863.0000
20
110.0000
40
1.6000
0
CIRCLE
8
CUT
10
863.0000
20
120.0000
40
1.6000
0
CIRCLE
8
CUT
10
863.0000
20
130.0000
40
1.6000
0
CIRCLE
8
CUT
10
863.0000
20
140.0000
40
1.6000
0
CIRCLE
8
CUT
10
863.0000
20
150.0000
40
1.6000
0
CIRCLE
8
CUT
10
863.0000
20
160.0000
40
1.6000
0
CIRCLE
8
CUT
10
863.0000
20
170.0000
40
1.6000
0
CIRCLE
8
CUT
10
863.0000
20
180.0000
40
1.6000
0
CIRCLE
8
CUT
10
863.0000
20
190.0000
40
1.6000
0
CIRCLE
8
CUT
10
873.0000
20
20.0000
40
1.6000
0
CIRCLE
8
CUT
10
873.0000
20
30.0000
40
1.6000
0
CIRCLE
8
CUT
10
873.0000
20
40.0000
40
1.6000
0
CIRCLE
8
CUT
10
873.0000
20
50.0000
40
1.6000
0
CIRCLE
8
CUT
10
873.0000
20
60.0000
40
1.6000
0
CIRCLE
8
CUT
10
873.0000
20
70.0000
40
1.6000
0
CIRCLE
8
CUT
10
873.0000
20
80.0000
40
1.6000
0
CIRCLE
8
CUT
10
873.0000
20
90.0000
40
1.6000
0
CIRCLE
8
CUT
10
873.0000
20
100.0000
40
1.6000
0
CIRCLE
8
CUT
10
873.0000
20
110.0000
40
1.6000
0
CIRCLE
8
CUT
10
873.0000
20
120.0000
40
1.6000
0
CIRCLE
8
CUT
10
873.0000
20
130.0000
40
1.6000
0
CIRCLE
8
CUT
10
873.0000
20
140.0000
40
1.6000
0
CIRCLE
8
CUT
10
873.0000
20
150.0000
40
1.6000
0
CIRCLE
8
CUT
10
873.0000
20
160.0000
40
1.6000
0
CIRCLE
8
CUT
10
873.0000
20
170.0000
40
1.6000
0
CIRCLE
8
CUT
10
873.0000
20
180.0000
40
1.6000
0
CIRCLE
8
CUT
10
873.0000
20
190.0000
40
1.6000
0
LINE
8
CUT
10
776.0000
20
206.0000
11
782.0000
21
206.0000
0
LINE
8
CUT
10
782.0000
20
206.0000
11
782.0000
21
446.0000
0
LINE
8
CUT
10
782.0000
20
446.0000
11
776.0000
21
446.0000
0
LINE
8
CUT
10
776.0000
20
446.0000
11
776.0000
21
206.0000
0
LINE
8
CUT
10
788.0000
20
206.0000
11
794.0000
21
206.0000
0
LINE
8
CUT
10
794.0000
20
206.0000
11
794.0000
21
446.0000
0
LINE
8
CUT
10
794.0000
20
446.0000
11
788.0000
21
446.0000
0
LINE
8
CUT
10
788.0000
20
446.0000
11
788.0000
21
206.0000
0
LINE
8
CUT
10
800.0000
20
206.0000
11
816.0000
21
206.0000
0
LINE
8
CUT
10
816.0000
20
206.0000
11
816.0000
21
446.0000
0
LINE
8
CUT
10
816.0000
20
446.0000
11
800.0000
21
446.0000
0
LINE
8
CUT
10
800.0000
20
446.0000
11
800.0000
21
206.0000
0
LINE
8
CUT
10
822.0000
20
206.0000
11
838.0000
21
206.0000
0
LINE
8
CUT
10
838.0000
20
206.0000
11
838.0000
21
446.0000
0
LINE
8
CUT
10
838.0000
20
446.0000
11
822.0000
21
446.0000
0
LINE
8
CUT
10
822.0000
20
446.0000
11
822.0000
21
206.0000
0
LINE
8
CUT
10
222.0000
20
450.0000
11
278.0000
21
450.0000
0
LINE
8
CUT
10
278.0000
20
450.0000
11
278.0000
21
520.0000
0
LINE
8
CUT
10
278.0000
20
520.0000
11
272.0000
21
520.0000
0
LINE
8
CUT
10
272.0000
20
520.0000
11
272.0000
21
523.0000
0
LINE
8
CUT
10
272.0000
20
523.0000
11
262.0000
21
523.0000
0
LINE
8
CUT
10
262.0000
20
523.0000
11
262.0000
21
520.0000
0
LINE
8
CUT
10
262.0000
20
520.0000
11
238.0000
21
520.0000
0
LINE
8
CUT
10
238.0000
20
520.0000
11
238.0000
21
523.0000
0
LINE
8
CUT
10
238.0000
20
523.0000
11
228.0000
21
523.0000
0
LINE
8
CUT
10
228.0000
20
523.0000
11
228.0000
21
520.0000
0
LINE
8
CUT
10
228.0000
20
520.0000
11
222.0000
21
520.0000
0
LINE
8
CUT
10
222.0000
20
520.0000
11
222.0000
21
450.0000
0
CIRCLE
8
CUT
10
250.0000
20
480.0000
40
19.0000
0
CIRCLE
8
CUT
10
234.0000
20
464.0000
40
1.7000
0
CIRCLE
8
CUT
10
234.0000
20
496.0000
40
1.7000
0
CIRCLE
8
CUT
10
266.0000
20
464.0000
40
1.7000
0
CIRCLE
8
CUT
10
266.0000
20
496.0000
40
1.7000
0
LINE
8
CUT
10
10.0000
20
450.0000
11
20.0000
21
450.0000
0
LINE
8
CUT
10
20.0000
20
450.0000
11
20.0000
21
500.0000
0
LINE
8
CUT
10
20.0000
20
500.0000
11
10.0000
21
500.0000
0
LINE
8
CUT
10
10.0000
20
500.0000
11
10.0000
21
450.0000
0
LINE
8
CUT
10
26.0000
20
450.0000
11
36.0000
21
450.0000
0
LINE
8
CUT
10
36.0000
20
450.0000
11
36.0000
21
500.0000
0
LINE
8
CUT
10
36.0000
20
500.0000
11
26.0000
21
500.0000
0
LINE
8
CUT
10
26.0000
20
500.0000
11
26.0000
21
450.0000
0
LINE
8
CUT
10
42.0000
20
450.0000
11
52.0000
21
450.0000
0
LINE
8
CUT
10
52.0000
20
450.0000
11
52.0000
21
500.0000
0
LINE
8
CUT
10
52.0000
20
500.0000
11
42.0000
21
500.0000
0
LINE
8
CUT
10
42.0000
20
500.0000
11
42.0000
21
450.0000
0
LINE
8
CUT
10
58.0000
20
450.0000
11
68.0000
21
450.0000
0
LINE
8
CUT
10
68.0000
20
450.0000
11
68.0000
21
500.0000
0
LINE
8
CUT
10
68.0000
20
500.0000
11
58.0000
21
500.0000
0
LINE
8
CUT
10
58.0000
20
500.0000
11
58.0000
21
450.0000
0
LINE
8
CUT
10
74.0000
20
450.0000
11
84.0000
21
450.0000
0
LINE
8
CUT
10
84.0000
20
450.0000
11
84.0000
21
500.0000
0
LINE
8
CUT
10
84.0000
20
500.0000
11
74.0000
21
500.0000
0
LINE
8
CUT
10
74.0000
20
500.0000
11
74.0000
21
450.0000
0
LINE
8
CUT
10
90.0000
20
450.0000
11
100.0000
21
450.0000
0
LINE
8
CUT
10
100.0000
20
450.0000
11
100.0000
21
500.0000
0
LINE
8
CUT
10
100.0000
20
500.0000
11
90.0000
21
500.0000
0
LINE
8
CUT
10
90.0000
20
500.0000
11
90.0000
21
450.0000
0
LINE
8
CUT
10
106.0000
20
450.0000
11
116.0000
21
450.0000
0
LINE
8
CUT
10
116.0000
20
450.0000
11
116.0000
21
500.0000
0
LINE
8
CUT
10
116.0000
20
500.0000
11
106.0000
21
500.0000
0
LINE
8
CUT
10
106.0000
20
500.0000
11
106.0000
21
450.0000
0
LINE
8
CUT
10
122.0000
20
450.0000
11
132.0000
21
450.0000
0
LINE
8
CUT
10
132.0000
20
450.0000
11
132.0000
21
500.0000
0
LINE
8
CUT
10
132.0000
20
500.0000
11
122.0000
21
500.0000
0
LINE
8
CUT
10
122.0000
20
500.0000
11
122.0000
21
450.0000
0
LINE
8
CUT
10
138.0000
20
450.0000
11
148.0000
21
450.0000
0
LINE
8
CUT
10
148.0000
20
450.0000
11
148.0000
21
500.0000
0
LINE
8
CUT
10
148.0000
20
500.0000
11
138.0000
21
500.0000
0
LINE
8
CUT
10
138.0000
20
500.0000
11
138.0000
21
450.0000
0
LINE
8
CUT
10
154.0000
20
450.0000
11
164.0000
21
450.0000
0
LINE
8
CUT
10
164.0000
20
450.0000
11
164.0000
21
500.0000
0
LINE
8
CUT
10
164.0000
20
500.0000
11
154.0000
21
500.0000
0
LINE
8
CUT
10
154.0000
20
500.0000
11
154.0000
21
450.0000
0
LINE
8
CUT
10
170.0000
20
450.0000
11
180.0000
21
450.0000
0
LINE
8
CUT
10
180.0000
20
450.0000
11
180.0000
21
500.0000
0
LINE
8
CUT
10
180.0000
20
500.0000
11
170.0000
21
500.0000
0
LINE
8
CUT
10
170.0000
20
500.0000
11
170.0000
21
450.0000
0
LINE
8
CUT
10
186.0000
20
450.0000
11
196.0000
21
450.0000
0
LINE
8
CUT
10
196.0000
20
450.0000
11
196.0000
21
500.0000
0
LINE
8
CUT
10
196.0000
20
500.0000
11
186.0000
21
500.0000
0
LINE
8
CUT
10
186.0000
20
500.0000
11
186.0000
21
450.0000
0
ENDSEC
0
EOF
