0
SECTION
2
HEADER
9
$INSUNITS
70
4
0
ENDSEC
0
SECTION
2
ENTITIES
0
LINE
8
CUT
10
10.0000
20
13.0000
11
52.3333
21
13.0000
0
LINE
8
CUT
10
52.3333
20
13.0000
11
52.3333
21
10.0000
0
LINE
8
CUT
10
52.3333
20
10.0000
11
72.3333
21
10.0000
0
LINE
8
CUT
10
72.3333
20
10.0000
11
72.3333
21
13.0000
0
LINE
8
CUT
10
72.3333
20
13.0000
11
141.0000
21
13.0000
0
LINE
8
CUT
10
141.0000
20
13.0000
11
141.0000
21
10.0000
0
LINE
8
CUT
10
141.0000
20
10.0000
11
161.0000
21
10.0000
0
LINE
8
CUT
10
161.0000
20
10.0000
11
161.0000
21
13.0000
0
LINE
8
CUT
10
161.0000
20
13.0000
11
229.6667
21
13.0000
0
LINE
8
CUT
10
229.6667
20
13.0000
11
229.6667
21
10.0000
0
LINE
8
CUT
10
229.6667
20
10.0000
11
249.6667
21
10.0000
0
LINE
8
CUT
10
249.6667
20
10.0000
11
249.6667
21
13.0000
0
LINE
8
CUT
10
249.6667
20
13.0000
11
318.3333
21
13.0000
0
LINE
8
CUT
10
318.3333
20
13.0000
11
318.3333
21
10.0000
0
LINE
8
CUT
10
318.3333
20
10.0000
11
338.3333
21
10.0000
0
LINE
8
CUT
10
338.3333
20
10.0000
11
338.3333
21
13.0000
0
LINE
8
CUT
10
338.3333
20
13.0000
11
407.0000
21
13.0000
0
LINE
8
CUT
10
407.0000
20
13.0000
11
407.0000
21
10.0000
0
LINE
8
CUT
10
407.0000
20
10.0000
11
427.0000
21
10.0000
0
LINE
8
CUT
10
427.0000
20
10.0000
11
427.0000
21
13.0000
0
LINE
8
CUT
10
427.0000
20
13.0000
11
495.6667
21
13.0000
0
LINE
8
CUT
10
495.6667
20
13.0000
11
495.6667
21
10.0000
0
LINE
8
CUT
10
495.6667
20
10.0000
11
515.6667
21
10.0000
0
LINE
8
CUT
10
515.6667
20
10.0000
11
515.6667
21
13.0000
0
LINE
8
CUT
10
515.6667
20
13.0000
11
558.0000
21
13.0000
0
LINE
8
CUT
10
558.0000
20
13.0000
11
558.0000
21
263.0000
0
LINE
8
CUT
10
558.0000
20
263.0000
11
10.0000
21
263.0000
0
LINE
8
CUT
10
10.0000
20
263.0000
11
10.0000
21
13.0000
0
LINE
8
CUT
10
18.0000
20
48.0000
11
21.0000
21
48.0000
0
LINE
8
CUT
10
21.0000
20
48.0000
11
21.0000
21
68.0000
0
LINE
8
CUT
10
21.0000
20
68.0000
11
18.0000
21
68.0000
0
LINE
8
CUT
10
18.0000
20
68.0000
11
18.0000
21
48.0000
0
LINE
8
CUT
10
18.0000
20
128.0000
11
21.0000
21
128.0000
0
LINE
8
CUT
10
21.0000
20
128.0000
11
21.0000
21
148.0000
0
LINE
8
CUT
10
21.0000
20
148.0000
11
18.0000
21
148.0000
0
LINE
8
CUT
10
18.0000
20
148.0000
11
18.0000
21
128.0000
0
LINE
8
CUT
10
18.0000
20
208.0000
11
21.0000
21
208.0000
0
LINE
8
CUT
10
21.0000
20
208.0000
11
21.0000
21
228.0000
0
LINE
8
CUT
10
21.0000
20
228.0000
11
18.0000
21
228.0000
0
LINE
8
CUT
10
18.0000
20
228.0000
11
18.0000
21
208.0000
0
LINE
8
CUT
10
131.0000
20
48.0000
11
134.0000
21
48.0000
0
LINE
8
CUT
10
134.0000
20
48.0000
11
134.0000
21
68.0000
0
LINE
8
CUT
10
134.0000
20
68.0000
11
131.0000
21
68.0000
0
LINE
8
CUT
10
131.0000
20
68.0000
11
131.0000
21
48.0000
0
LINE
8
CUT
10
131.0000
20
128.0000
11
134.0000
21
128.0000
0
LINE
8
CUT
10
134.0000
20
128.0000
11
134.0000
21
148.0000
0
LINE
8
CUT
10
134.0000
20
148.0000
11
131.0000
21
148.0000
0
LINE
8
CUT
10
131.0000
20
148.0000
11
131.0000
21
128.0000
0
LINE
8
CUT
10
131.0000
20
208.0000
11
134.0000
21
208.0000
0
LINE
8
CUT
10
134.0000
20
208.0000
11
134.0000
21
228.0000
0
LINE
8
CUT
10
134.0000
20
228.0000
11
131.0000
21
228.0000
0
LINE
8
CUT
10
131.0000
20
228.0000
11
131.0000
21
208.0000
0
LINE
8
CUT
10
454.0000
20
48.0000
11
457.0000
21
48.0000
0
LINE
8
CUT
10
457.0000
20
48.0000
11
457.0000
21
68.0000
0
LINE
8
CUT
10
457.0000
20
68.0000
11
454.0000
21
68.0000
0
LINE
8
CUT
10
454.0000
20
68.0000
11
454.0000
21
48.0000
0
LINE
8
CUT
10
454.0000
20
128.0000
11
457.0000
21
128.0000
0
LINE
8
CUT
10
457.0000
20
128.0000
11
457.0000
21
148.0000
0
LINE
8
CUT
10
457.0000
20
148.0000
11
454.0000
21
148.0000
0
LINE
8
CUT
10
454.0000
20
148.0000
11
454.0000
21
128.0000
0
LINE
8
CUT
10
454.0000
20
208.0000
11
457.0000
21
208.0000
0
LINE
8
CUT
10
457.0000
20
208.0000
11
457.0000
21
228.0000
0
LINE
8
CUT
10
457.0000
20
228.0000
11
454.0000
21
228.0000
0
LINE
8
CUT
10
454.0000
20
228.0000
11
454.0000
21
208.0000
0
LINE
8
CUT
10
547.0000
20
48.0000
11
550.0000
21
48.0000
0
LINE
8
CUT
10
550.0000
20
48.0000
11
550.0000
21
68.0000
0
LINE
8
CUT
10
550.0000
20
68.0000
11
547.0000
21
68.0000
0
LINE
8
CUT
10
547.0000
20
68.0000
11
547.0000
21
48.0000
0
LINE
8
CUT
10
547.0000
20
128.0000
11
550.0000
21
128.0000
0
LINE
8
CUT
10
550.0000
20
128.0000
11
550.0000
21
148.0000
0
LINE
8
CUT
10
550.0000
20
148.0000
11
547.0000
21
148.0000
0
LINE
8
CUT
10
547.0000
20
148.0000
11
547.0000
21
128.0000
0
LINE
8
CUT
10
547.0000
20
208.0000
11
550.0000
21
208.0000
0
LINE
8
CUT
10
550.0000
20
208.0000
11
550.0000
21
228.0000
0
LINE
8
CUT
10
550.0000
20
228.0000
11
547.0000
21
228.0000
0
LINE
8
CUT
10
547.0000
20
228.0000
11
547.0000
21
208.0000
0
LINE
8
CUT
10
10.0000
20
272.0000
11
52.3333
21
272.0000
0
LINE
8
CUT
10
52.3333
20
272.0000
11
52.3333
21
269.0000
0
LINE
8
CUT
10
52.3333
20
269.0000
11
72.3333
21
269.0000
0
LINE
8
CUT
10
72.3333
20
269.0000
11
72.3333
21
272.0000
0
LINE
8
CUT
10
72.3333
20
272.0000
11
141.0000
21
272.0000
0
LINE
8
CUT
10
141.0000
20
272.0000
11
141.0000
21
269.0000
0
LINE
8
CUT
10
141.0000
20
269.0000
11
161.0000
21
269.0000
0
LINE
8
CUT
10
161.0000
20
269.0000
11
161.0000
21
272.0000
0
LINE
8
CUT
10
161.0000
20
272.0000
11
229.6667
21
272.0000
0
LINE
8
CUT
10
229.6667
20
272.0000
11
229.6667
21
269.0000
0
LINE
8
CUT
10
229.6667
20
269.0000
11
249.6667
21
269.0000
0
LINE
8
CUT
10
249.6667
20
269.0000
11
249.6667
21
272.0000
0
LINE
8
CUT
10
249.6667
20
272.0000
11
318.3333
21
272.0000
0
LINE
8
CUT
10
318.3333
20
272.0000
11
318.3333
21
269.0000
0
LINE
8
CUT
10
318.3333
20
269.0000
11
338.3333
21
269.0000
0
LINE
8
CUT
10
338.3333
20
269.0000
11
338.3333
21
272.0000
0
LINE
8
CUT
10
338.3333
20
272.0000
11
407.0000
21
272.0000
0
LINE
8
CUT
10
407.0000
20
272.0000
11
407.0000
21
269.0000
0
LINE
8
CUT
10
407.0000
20
269.0000
11
427.0000
21
269.0000
0
LINE
8
CUT
10
427.0000
20
269.0000
11
427.0000
21
272.0000
0
LINE
8
CUT
10
427.0000
20
272.0000
11
495.6667
21
272.0000
0
LINE
8
CUT
10
495.6667
20
272.0000
11
495.6667
21
269.0000
0
LINE
8
CUT
10
495.6667
20
269.0000
11
515.6667
21
269.0000
0
LINE
8
CUT
10
515.6667
20
269.0000
11
515.6667
21
272.0000
0
LINE
8
CUT
10
515.6667
20
272.0000
11
558.0000
21
272.0000
0
LINE
8
CUT
10
558.0000
20
272.0000
11
558.0000
21
522.0000
0
LINE
8
CUT
10
558.0000
20
522.0000
11
10.0000
21
522.0000
0
LINE
8
CUT
10
10.0000
20
522.0000
11
10.0000
21
272.0000
0
LINE
8
CUT
10
18.0000
20
307.0000
11
21.0000
21
307.0000
0
LINE
8
CUT
10
21.0000
20
307.0000
11
21.0000
21
327.0000
0
LINE
8
CUT
10
21.0000
20
327.0000
11
18.0000
21
327.0000
0
LINE
8
CUT
10
18.0000
20
327.0000
11
18.0000
21
307.0000
0
LINE
8
CUT
10
18.0000
20
387.0000
11
21.0000
21
387.0000
0
LINE
8
CUT
10
21.0000
20
387.0000
11
21.0000
21
407.0000
0
LINE
8
CUT
10
21.0000
20
407.0000
11
18.0000
21
407.0000
0
LINE
8
CUT
10
18.0000
20
407.0000
11
18.0000
21
387.0000
0
LINE
8
CUT
10
18.0000
20
467.0000
11
21.0000
21
467.0000
0
LINE
8
CUT
10
21.0000
20
467.0000
11
21.0000
21
487.0000
0
LINE
8
CUT
10
21.0000
20
487.0000
11
18.0000
21
487.0000
0
LINE
8
CUT
10
18.0000
20
487.0000
11
18.0000
21
467.0000
0
LINE
8
CUT
10
131.0000
20
307.0000
11
134.0000
21
307.0000
0
LINE
8
CUT
10
134.0000
20
307.0000
11
134.0000
21
327.0000
0
LINE
8
CUT
10
134.0000
20
327.0000
11
131.0000
21
327.0000
0
LINE
8
CUT
10
131.0000
20
327.0000
11
131.0000
21
307.0000
0
LINE
8
CUT
10
131.0000
20
387.0000
11
134.0000
21
387.0000
0
LINE
8
CUT
10
134.0000
20
387.0000
11
134.0000
21
407.0000
0
LINE
8
CUT
10
134.0000
20
407.0000
11
131.0000
21
407.0000
0
LINE
8
CUT
10
131.0000
20
407.0000
11
131.0000
21
387.0000
0
LINE
8
CUT
10
131.0000
20
467.0000
11
134.0000
21
467.0000
0
LINE
8
CUT
10
134.0000
20
467.0000
11
134.0000
21
487.0000
0
LINE
8
CUT
10
134.0000
20
487.0000
11
131.0000
21
487.0000
0
LINE
8
CUT
10
131.0000
20
487.0000
11
131.0000
21
467.0000
0
LINE
8
CUT
10
454.0000
20
307.0000
11
457.0000
21
307.0000
0
LINE
8
CUT
10
457.0000
20
307.0000
11
457.0000
21
327.0000
0
LINE
8
CUT
10
457.0000
20
327.0000
11
454.0000
21
327.0000
0
LINE
8
CUT
10
454.0000
20
327.0000
11
454.0000
21
307.0000
0
LINE
8
CUT
10
454.0000
20
387.0000
11
457.0000
21
387.0000
0
LINE
8
CUT
10
457.0000
20
387.0000
11
457.0000
21
407.0000
0
LINE
8
CUT
10
457.0000
20
407.0000
11
454.0000
21
407.0000
0
LINE
8
CUT
10
454.0000
20
407.0000
11
454.0000
21
387.0000
0
LINE
8
CUT
10
454.0000
20
467.0000
11
457.0000
21
467.0000
0
LINE
8
CUT
10
457.0000
20
467.0000
11
457.0000
21
487.0000
0
LINE
8
CUT
10
457.0000
20
487.0000
11
454.0000
21
487.0000
0
LINE
8
CUT
10
454.0000
20
487.0000
11
454.0000
21
467.0000
0
LINE
8
CUT
10
547.0000
20
307.0000
11
550.0000
21
307.0000
0
LINE
8
CUT
10
550.0000
20
307.0000
11
550.0000
21
327.0000
0
LINE
8
CUT
10
550.0000
20
327.0000
11
547.0000
21
327.0000
0
LINE
8
CUT
10
547.0000
20
327.0000
11
547.0000
21
307.0000
0
LINE
8
CUT
10
547.0000
20
387.0000
11
550.0000
21
387.0000
0
LINE
8
CUT
10
550.0000
20
387.0000
11
550.0000
21
407.0000
0
LINE
8
CUT
10
550.0000
20
407.0000
11
547.0000
21
407.0000
0
LINE
8
CUT
10
547.0000
20
407.0000
11
547.0000
21
387.0000
0
LINE
8
CUT
10
547.0000
20
467.0000
11
550.0000
21
467.0000
0
LINE
8
CUT
10
550.0000
20
467.0000
11
550.0000
21
487.0000
0
LINE
8
CUT
10
550.0000
20
487.0000
11
547.0000
21
487.0000
0
LINE
8
CUT
10
547.0000
20
487.0000
11
547.0000
21
467.0000
0
LINE
8
CUT
10
36.0000
20
292.0000
11
56.0000
21
292.0000
0
LINE
8
CUT
10
56.0000
20
292.0000
11
56.0000
21
296.0000
0
LINE
8
CUT
10
56.0000
20
296.0000
11
36.0000
21
296.0000
0
LINE
8
CUT
10
36.0000
20
296.0000
11
36.0000
21
292.0000
0
LINE
8
CUT
10
66.0000
20
292.0000
11
86.0000
21
292.0000
0
LINE
8
CUT
10
86.0000
20
292.0000
11
86.0000
21
296.0000
0
LINE
8
CUT
10
86.0000
20
296.0000
11
66.0000
21
296.0000
0
LINE
8
CUT
10
66.0000
20
296.0000
11
66.0000
21
292.0000
0
LINE
8
CUT
10
96.0000
20
292.0000
11
116.0000
21
292.0000
0
LINE
8
CUT
10
116.0000
20
292.0000
11
116.0000
21
296.0000
0
LINE
8
CUT
10
116.0000
20
296.0000
11
96.0000
21
296.0000
0
LINE
8
CUT
10
96.0000
20
296.0000
11
96.0000
21
292.0000
0
LINE
8
CUT
10
36.0000
20
497.0000
11
56.0000
21
497.0000
0
LINE
8
CUT
10
56.0000
20
497.0000
11
56.0000
21
501.0000
0
LINE
8
CUT
10
56.0000
20
501.0000
11
36.0000
21
501.0000
0
LINE
8
CUT
10
36.0000
20
501.0000
11
36.0000
21
497.0000
0
LINE
8
CUT
10
66.0000
20
497.0000
11
86.0000
21
497.0000
0
LINE
8
CUT
10
86.0000
20
497.0000
11
86.0000
21
501.0000
0
LINE
8
CUT
10
86.0000
20
501.0000
11
66.0000
21
501.0000
0
LINE
8
CUT
10
66.0000
20
501.0000
11
66.0000
21
497.0000
0
LINE
8
CUT
10
96.0000
20
497.0000
11
116.0000
21
497.0000
0
LINE
8
CUT
10
116.0000
20
497.0000
11
116.0000
21
501.0000
0
LINE
8
CUT
10
116.0000
20
501.0000
11
96.0000
21
501.0000
0
LINE
8
CUT
10
96.0000
20
501.0000
11
96.0000
21
497.0000
0
LINE
8
CUT
10
567.0000
20
13.0000
11
607.0000
21
13.0000
0
LINE
8
CUT
10
607.0000
20
13.0000
11
607.0000
21
10.0000
0
LINE
8
CUT
10
607.0000
20
10.0000
11
627.0000
21
10.0000
0
LINE
8
CUT
10
627.0000
20
10.0000
11
627.0000
21
13.0000
0
LINE
8
CUT
10
627.0000
20
13.0000
11
707.0000
21
13.0000
0
LINE
8
CUT
10
707.0000
20
13.0000
11
707.0000
21
10.0000
0
LINE
8
CUT
10
707.0000
20
10.0000
11
727.0000
21
10.0000
0
LINE
8
CUT
10
727.0000
20
10.0000
11
727.0000
21
13.0000
0
LINE
8
CUT
10
727.0000
20
13.0000
11
767.0000
21
13.0000
0
LINE
8
CUT
10
767.0000
20
13.0000
11
767.0000
21
48.0000
0
LINE
8
CUT
10
767.0000
20
48.0000
11
770.0000
21
48.0000
0
LINE
8
CUT
10
770.0000
20
48.0000
11
770.0000
21
68.0000
0
LINE
8
CUT
10
770.0000
20
68.0000
11
767.0000
21
68.0000
0
LINE
8
CUT
10
767.0000
20
68.0000
11
767.0000
21
128.0000
0
LINE
8
CUT
10
767.0000
20
128.0000
11
770.0000
21
128.0000
0
LINE
8
CUT
10
770.0000
20
128.0000
11
770.0000
21
148.0000
0
LINE
8
CUT
10
770.0000
20
148.0000
11
767.0000
21
148.0000
0
LINE
8
CUT
10
767.0000
20
148.0000
11
767.0000
21
208.0000
0
LINE
8
CUT
10
767.0000
20
208.0000
11
770.0000
21
208.0000
0
LINE
8
CUT
10
770.0000
20
208.0000
11
770.0000
21
228.0000
0
LINE
8
CUT
10
770.0000
20
228.0000
11
767.0000
21
228.0000
0
LINE
8
CUT
10
767.0000
20
228.0000
11
767.0000
21
263.0000
0
LINE
8
CUT
10
767.0000
20
263.0000
11
567.0000
21
263.0000
0
LINE
8
CUT
10
567.0000
20
263.0000
11
567.0000
21
228.0000
0
LINE
8
CUT
10
567.0000
20
228.0000
11
564.0000
21
228.0000
0
LINE
8
CUT
10
564.0000
20
228.0000
11
564.0000
21
208.0000
0
LINE
8
CUT
10
564.0000
20
208.0000
11
567.0000
21
208.0000
0
LINE
8
CUT
10
567.0000
20
208.0000
11
567.0000
21
148.0000
0
LINE
8
CUT
10
567.0000
20
148.0000
11
564.0000
21
148.0000
0
LINE
8
CUT
10
564.0000
20
148.0000
11
564.0000
21
128.0000
0
LINE
8
CUT
10
564.0000
20
128.0000
11
567.0000
21
128.0000
0
LINE
8
CUT
10
567.0000
20
128.0000
11
567.0000
21
68.0000
0
LINE
8
CUT
10
567.0000
20
68.0000
11
564.0000
21
68.0000
0
LINE
8
CUT
10
564.0000
20
68.0000
11
564.0000
21
48.0000
0
LINE
8
CUT
10
564.0000
20
48.0000
11
567.0000
21
48.0000
0
LINE
8
CUT
10
567.0000
20
48.0000
11
567.0000
21
13.0000
0
CIRCLE
8
CUT
10
602.0000
20
53.0000
40
4.0000
0
CIRCLE
8
CUT
10
632.0000
20
53.0000
40
6.0000
0
LINE
8
CUT
10
667.0000
20
25.0000
11
683.0000
21
25.0000
0
LINE
8
CUT
10
683.0000
20
25.0000
11
683.0000
21
35.0000
0
LINE
8
CUT
10
683.0000
20
35.0000
11
667.0000
21
35.0000
0
LINE
8
CUT
10
667.0000
20
35.0000
11
667.0000
21
25.0000
0
CIRCLE
8
CUT
10
717.0000
20
53.0000
40
3.0000
0
LINE
8
CUT
10
582.0000
20
238.0000
11
602.0000
21
238.0000
0
LINE
8
CUT
10
602.0000
20
238.0000
11
602.0000
21
242.0000
0
LINE
8
CUT
10
602.0000
20
242.0000
11
582.0000
21
242.0000
0
LINE
8
CUT
10
582.0000
20
242.0000
11
582.0000
21
238.0000
0
LINE
8
CUT
10
612.0000
20
238.0000
11
632.0000
21
238.0000
0
LINE
8
CUT
10
632.0000
20
238.0000
11
632.0000
21
242.0000
0
LINE
8
CUT
10
632.0000
20
242.0000
11
612.0000
21
242.0000
0
LINE
8
CUT
10
612.0000
20
242.0000
11
612.0000
21
238.0000
0
LINE
8
CUT
10
642.0000
20
238.0000
11
662.0000
21
238.0000
0
LINE
8
CUT
10
662.0000
20
238.0000
11
662.0000
21
242.0000
0
LINE
8
CUT
10
662.0000
20
242.0000
11
642.0000
21
242.0000
0
LINE
8
CUT
10
642.0000
20
242.0000
11
642.0000
21
238.0000
0
LINE
8
CUT
10
672.0000
20
238.0000
11
692.0000
21
238.0000
0
LINE
8
CUT
10
692.0000
20
238.0000
11
692.0000
21
242.0000
0
LINE
8
CUT
10
692.0000
20
242.0000
11
672.0000
21
242.0000
0
LINE
8
CUT
10
672.0000
20
242.0000
11
672.0000
21
238.0000
0
LINE
8
CUT
10
702.0000
20
238.0000
11
722.0000
21
238.0000
0
LINE
8
CUT
10
722.0000
20
238.0000
11
722.0000
21
242.0000
0
LINE
8
CUT
10
722.0000
20
242.0000
11
702.0000
21
242.0000
0
LINE
8
CUT
10
702.0000
20
242.0000
11
702.0000
21
238.0000
0
LINE
8
CUT
10
732.0000
20
238.0000
11
752.0000
21
238.0000
0
LINE
8
CUT
10
752.0000
20
238.0000
11
752.0000
21
242.0000
0
LINE
8
CUT
10
752.0000
20
242.0000
11
732.0000
21
242.0000
0
LINE
8
CUT
10
732.0000
20
242.0000
11
732.0000
21
238.0000
0
LINE
8
CUT
10
692.0000
20
73.0000
11
712.0000
21
73.0000
0
LINE
8
CUT
10
712.0000
20
73.0000
11
712.0000
21
77.0000
0
LINE
8
CUT
10
712.0000
20
77.0000
11
692.0000
21
77.0000
0
LINE
8
CUT
10
692.0000
20
77.0000
11
692.0000
21
73.0000
0
LINE
8
CUT
10
722.0000
20
73.0000
11
742.0000
21
73.0000
0
LINE
8
CUT
10
742.0000
20
73.0000
11
742.0000
21
77.0000
0
LINE
8
CUT
10
742.0000
20
77.0000
11
722.0000
21
77.0000
0
LINE
8
CUT
10
722.0000
20
77.0000
11
722.0000
21
73.0000
0
LINE
8
CUT
10
567.0000
20
272.0000
11
607.0000
21
272.0000
0
LINE
8
CUT
10
607.0000
20
272.0000
11
607.0000
21
269.0000
0
LINE
8
CUT
10
607.0000
20
269.0000
11
627.0000
21
269.0000
0
LINE
8
CUT
10
627.0000
20
269.0000
11
627.0000
21
272.0000
0
LINE
8
CUT
10
627.0000
20
272.0000
11
707.0000
21
272.0000
0
LINE
8
CUT
10
707.0000
20
272.0000
11
707.0000
21
269.0000
0
LINE
8
CUT
10
707.0000
20
269.0000
11
727.0000
21
269.0000
0
LINE
8
CUT
10
727.0000
20
269.0000
11
727.0000
21
272.0000
0
LINE
8
CUT
10
727.0000
20
272.0000
11
767.0000
21
272.0000
0
LINE
8
CUT
10
767.0000
20
272.0000
11
767.0000
21
307.0000
0
LINE
8
CUT
10
767.0000
20
307.0000
11
770.0000
21
307.0000
0
LINE
8
CUT
10
770.0000
20
307.0000
11
770.0000
21
327.0000
0
LINE
8
CUT
10
770.0000
20
327.0000
11
767.0000
21
327.0000
0
LINE
8
CUT
10
767.0000
20
327.0000
11
767.0000
21
387.0000
0
LINE
8
CUT
10
767.0000
20
387.0000
11
770.0000
21
387.0000
0
LINE
8
CUT
10
770.0000
20
387.0000
11
770.0000
21
407.0000
0
LINE
8
CUT
10
770.0000
20
407.0000
11
767.0000
21
407.0000
0
LINE
8
CUT
10
767.0000
20
407.0000
11
767.0000
21
467.0000
0
LINE
8
CUT
10
767.0000
20
467.0000
11
770.0000
21
467.0000
0
LINE
8
CUT
10
770.0000
20
467.0000
11
770.0000
21
487.0000
0
LINE
8
CUT
10
770.0000
20
487.0000
11
767.0000
21
487.0000
0
LINE
8
CUT
10
767.0000
20
487.0000
11
767.0000
21
522.0000
0
LINE
8
CUT
10
767.0000
20
522.0000
11
567.0000
21
522.0000
0
LINE
8
CUT
10
567.0000
20
522.0000
11
567.0000
21
487.0000
0
LINE
8
CUT
10
567.0000
20
487.0000
11
564.0000
21
487.0000
0
LINE
8
CUT
10
564.0000
20
487.0000
11
564.0000
21
467.0000
0
LINE
8
CUT
10
564.0000
20
467.0000
11
567.0000
21
467.0000
0
LINE
8
CUT
10
567.0000
20
467.0000
11
567.0000
21
407.0000
0
LINE
8
CUT
10
567.0000
20
407.0000
11
564.0000
21
407.0000
0
LINE
8
CUT
10
564.0000
20
407.0000
11
564.0000
21
387.0000
0
LINE
8
CUT
10
564.0000
20
387.0000
11
567.0000
21
387.0000
0
LINE
8
CUT
10
567.0000
20
387.0000
11
567.0000
21
327.0000
0
LINE
8
CUT
10
567.0000
20
327.0000
11
564.0000
21
327.0000
0
LINE
8
CUT
10
564.0000
20
327.0000
11
564.0000
21
307.0000
0
LINE
8
CUT
10
564.0000
20
307.0000
11
567.0000
21
307.0000
0
LINE
8
CUT
10
567.0000
20
307.0000
11
567.0000
21
272.0000
0
CIRCLE
8
CUT
10
667.0000
20
397.0000
40
19.0000
0
CIRCLE
8
CUT
10
651.0000
20
381.0000
40
1.7000
0
CIRCLE
8
CUT
10
651.0000
20
413.0000
40
1.7000
0
CIRCLE
8
CUT
10
683.0000
20
381.0000
40
1.7000
0
CIRCLE
8
CUT
10
683.0000
20
413.0000
40
1.7000
0
CIRCLE
8
CUT
10
727.0000
20
302.0000
40
3.0000
0
ENDSEC
0
EOF
